SplineFontDB: 3.0
FontName: Laksaman
FullName: Laksaman
FamilyName: Laksaman
Weight: Book
Copyright: Laksaman, based on TH Sarabun New.\n\nCopyright (c) 2014 Theppitak Karoonboonyanan.\n\nTH Sarabun New:\n\nCopyright (c) 2010-2011 by Software Industry Promotion Agency (Public Organization) (SIPA). All rights reserved.\nCreated by : Suppakit CHALERMLARP.
Version: 3.0: 2014-04-30
ItalicAngle: 0
UnderlinePosition: -20
UnderlineWidth: 30
Ascent: 800
Descent: 200
LayerCount: 2
Layer: 0 0 "Back"  1
Layer: 1 0 "Fore"  0
XUID: [1021 373 914837695 13816194]
FSType: 0
OS2Version: 3
OS2_WeightWidthSlopeOnly: 0
OS2_UseTypoMetrics: 1
CreationTime: 1308745588
ModificationTime: 1399045368
PfmFamily: 33
TTFWeight: 400
TTFWidth: 5
LineGap: 30
VLineGap: 0
Panose: 2 11 5 0 4 2 0 2 0 3
OS2TypoAscent: 1279
OS2TypoAOffset: 0
OS2TypoDescent: -376
OS2TypoDOffset: 0
OS2TypoLinegap: 60
OS2WinAscent: 1270
OS2WinAOffset: 0
OS2WinDescent: 687
OS2WinDOffset: 0
HheadAscent: 1270
HheadAOffset: 0
HheadDescent: -687
HheadDOffset: 0
OS2SubXSize: 700
OS2SubYSize: 650
OS2SubXOff: 0
OS2SubYOff: 140
OS2SupXSize: 700
OS2SupYSize: 650
OS2SupXOff: 0
OS2SupYOff: 477
OS2StrikeYSize: 30
OS2StrikeYPos: 250
OS2FamilyClass: 2053
OS2Vendor: 'psk '
OS2CodePages: 60010183.80000000
OS2UnicodeRanges: a100006f.5000205a.00000000.00000000
Lookup: 4 0 0 "'frac' Diagonal Fractions in Latin lookup 0"  {"'frac' Diagonal Fractions in Latin lookup 0 subtable"  } ['frac' ('latn' <'dflt' > ) ]
Lookup: 4 0 1 "'rlig' Required Ligatures in Latin lookup 1"  {"'rlig' Required Ligatures in Latin lookup 1 subtable"  } ['rlig' ('latn' <'dflt' > ) ]
Lookup: 6 0 0 "'rlig' Required Ligatures in Latin lookup 2"  {"'rlig' Required Ligatures in Latin lookup 2 subtable"  } ['rlig' ('latn' <'dflt' > ) ]
Lookup: 6 0 0 "'rlig' Required Ligatures in Latin lookup 3"  {"'rlig' Required Ligatures in Latin lookup 3 subtable"  } ['rlig' ('latn' <'dflt' > ) ]

StartChar: .notdef
Encoding: 65536 -1 0
Width: 1040
VWidth: 1504
Flags: HW
LayerCount: 2
Fore
SplineSet
966 0 m 1
 75 0 l 1
 75 1217 l 1
 966 1217 l 1
 966 0 l 1
921 42 m 1
 921 1175 l 1
 120 1175 l 1
 120 42 l 1
 921 42 l 1
EndSplineSet
EndChar

StartChar: exclam
Encoding: 33 33 2
Width: 221
VWidth: 1504
Flags: W
HStem: -9 104<67.1808 150.097>
VStem: 57 104<1.18085 84.0971> 74 70<403.083 714> 84 48<181 491.917>
LayerCount: 2
Fore
SplineSet
132 181 m 1x90
 84 181 l 1x90
 74 714 l 1
 144 714 l 1xa0
 132 181 l 1x90
108 95 m 259
 136 95 161 70 161 42 c 259
 161 14 136 -9 108 -9 c 259
 80 -9 57 14 57 42 c 259xc0
 57 70 80 95 108 95 c 259
EndSplineSet
EndChar

StartChar: quotedbl
Encoding: 34 34 3
Width: 312
VWidth: 1504
Flags: W
HStem: 508 243<71 111 202 242>
VStem: 71 40<508 621.4> 202 40<508 621.4>
LayerCount: 2
Fore
SplineSet
242 508 m 1
 202 508 l 1
 187 751 l 1
 257 751 l 1
 242 508 l 1
111 508 m 1
 71 508 l 1
 56 751 l 1
 126 751 l 1
 111 508 l 1
EndSplineSet
EndChar

StartChar: numbersign
Encoding: 35 35 4
Width: 606
VWidth: 1504
Flags: W
HStem: 206 45<51 135 187 369 423 549> 442 45<51 182 236 415 471 549>
DStem2: 92 6 135 6 0.204927 0.978777<8.81186 204.567 259.268 445.19 500.301 697.4> 325 6 369 6 0.206299 0.978489<9.07717 204.775 259.947 445.188 500.773 697.396>
LayerCount: 2
Fore
SplineSet
549 206 m 1
 411 206 l 1
 369 6 l 1
 325 6 l 1
 369 206 l 1
 179 206 l 1
 135 6 l 1
 92 6 l 1
 135 206 l 1
 51 206 l 1
 51 251 l 1
 143 251 l 1
 182 442 l 1
 51 442 l 1
 51 487 l 1
 191 487 l 1
 233 689 l 1
 278 689 l 1
 236 487 l 1
 423 487 l 1
 466 689 l 1
 513 689 l 1
 471 487 l 1
 549 487 l 1
 549 442 l 1
 462 442 l 1
 423 251 l 1
 549 251 l 1
 549 206 l 1
415 442 m 1
 227 442 l 1
 187 251 l 1
 376 251 l 1
 415 442 l 1
EndSplineSet
EndChar

StartChar: dollar
Encoding: 36 36 5
Width: 543
VWidth: 1504
Flags: W
HStem: 24 48<150.316 242 295 342.466> 600 21G<400 428.25> 644 48<200.309 254 305 383.269>
VStem: 93 56<471.926 597.068> 242 53<-87 24> 254 51<690.025 806> 406 57<128.743 262.169>
LayerCount: 2
Fore
SplineSet
281 644 m 3xf6
 210 644 149 603 149 534 c 3
 149 460 216 429 290 396 c 0
 387 353 463 306 463 200 c 3
 463 101 383 40 295 24 c 1
 295 -87 l 1
 242 -87 l 1
 242 24 l 1xfa
 178 24 123 42 78 77 c 1
 105 123 l 1
 145 89 195 72 256 72 c 3
 338 72 406 119 406 197 c 3
 406 255 362 303 274 340 c 0
 153 390 93 452 93 526 c 3
 93 621 167 679 254 692 c 1
 254 806 l 1
 305 806 l 1
 305 692 l 1
 354 689 401 674 444 648 c 1
 417 600 l 1
 383 629 338 644 281 644 c 3xf6
EndSplineSet
EndChar

StartChar: percent
Encoding: 37 37 6
Width: 879
VWidth: 1504
Flags: W
HStem: -14 21G<194 256.945> -5 49<603.378 728.77> 289 48<149.23 274.77> 375 48<603.378 728.77> 668 48<149.23 274.77>
VStem: 51 54<389.441 615.307> 319 54<389.22 615.099> 505 55<94.6738 323.744> 773 54<96.1039 322.099>
DStem2: 194 -14 245 -14 0.512765 0.858529<26.151 850.292>
LayerCount: 2
Fore
SplineSet
681 716 m 1xbf80
 245 -14 l 1
 194 -14 l 1
 630 716 l 1
 681 716 l 1xbf80
373 502 m 259
 373 359 319 289 212 289 c 259
 105 289 51 360 51 502 c 259
 51 645 105 716 212 716 c 259
 319 716 373 645 373 502 c 259
319 502 m 259
 319 612 283 668 212 668 c 259
 141 668 105 613 105 502 c 259
 105 392 141 337 212 337 c 259
 283 337 319 392 319 502 c 259
827 209 m 259
 827 66 773 -5 666 -5 c 259x7f80
 559 -5 505 66 505 209 c 259
 505 352 559 423 666 423 c 259
 773 423 827 352 827 209 c 259
773 209 m 259
 773 319 737 375 666 375 c 259
 595 375 560 320 560 209 c 259
 560 99 595 44 666 44 c 259
 737 44 773 99 773 209 c 259
EndSplineSet
EndChar

StartChar: ampersand
Encoding: 38 38 7
Width: 636
VWidth: 1504
Flags: W
HStem: -14 49<171.724 363.58> 0 21G<562.5 647> 696 46<220.933 353.429>
VStem: 29 57<117.15 279.701> 116 55<494.362 643.307> 391 53<527.818 658.045> 566 55<291.925 385>
DStem2: 260 391 211 373 0.678416 -0.734678<0 328.91> 520 120 487 80 0.716075 -0.698023<2.1651 120.999>
LayerCount: 2
Fore
SplineSet
293 742 m 3xbe
 380 742 444 681 444 594 c 3
 444 514 383 446 260 391 c 1
 318 327 393 247 486 152 c 1
 520 198 547 276 566 385 c 1
 621 385 l 1
 597 258 563 169 520 120 c 1
 558 82 600 42 647 0 c 1
 572 0 l 1x7e
 553 18 524 45 487 80 c 1
 413 18 332 -14 245 -14 c 3
 128 -14 29 76 29 193 c 3
 29 288 80 361 181 411 c 1
 138 468 116 519 116 564 c 3
 116 664 190 742 293 742 c 3xbe
287 696 m 3
 218 696 171 638 171 570 c 3
 171 531 192 484 235 429 c 1
 339 479 391 532 391 588 c 3
 391 653 350 696 287 696 c 3
86 200 m 3
 86 102 161 35 259 35 c 3xbe
 334 35 399 62 453 116 c 1
 362 207 281 293 211 373 c 1
 128 329 86 271 86 200 c 3
EndSplineSet
EndChar

StartChar: quotesingle
Encoding: 39 39 8
Width: 180
VWidth: 1504
Flags: W
HStem: 508 243<71 111>
VStem: 71 40<508 621.4>
LayerCount: 2
Fore
SplineSet
111 508 m 1
 71 508 l 1
 56 751 l 1
 125 751 l 1
 111 508 l 1
EndSplineSet
EndChar

StartChar: parenleft
Encoding: 40 40 9
Width: 285
VWidth: 1504
Flags: W
VStem: 30 57<184.783 521.133>
LayerCount: 2
Fore
SplineSet
254 -87 m 1
 197 -87 l 1
 86 34 30 181 30 352 c 3
 30 515 85 664 196 800 c 1
 256 800 l 1
 144 671 87 522 87 352 c 3
 87 193 143 46 254 -87 c 1
EndSplineSet
EndChar

StartChar: parenright
Encoding: 41 41 10
Width: 285
VWidth: 1504
Flags: W
VStem: 197 57<190.874 523.675>
LayerCount: 2
Fore
SplineSet
254 356 m 3
 254 189 198 42 87 -87 c 1
 30 -87 l 1
 141 52 197 200 197 356 c 3
 197 515 141 663 30 800 c 1
 87 800 l 1
 198 675 254 527 254 356 c 3
EndSplineSet
EndChar

StartChar: asterisk
Encoding: 42 42 11
Width: 428
VWidth: 1504
Flags: W
HStem: 573 20G<27 182 247 402>
LayerCount: 2
Fore
SplineSet
402 535 m 1
 247 549 l 1
 343 420 l 1
 293 388 l 1
 214 537 l 1
 135 388 l 1
 86 420 l 1
 182 549 l 1
 27 535 l 1
 27 593 l 1
 182 582 l 1
 86 710 l 1
 143 743 l 1
 215 605 l 1
 286 743 l 1
 343 710 l 1
 247 582 l 1
 402 593 l 1
 402 535 l 1
EndSplineSet
EndChar

StartChar: plus
Encoding: 43 43 12
Width: 618
VWidth: 1504
Flags: W
HStem: 0 21G<283 335> 248 50<57 283 335 561>
VStem: 283 52<0 248 298 537>
LayerCount: 2
Fore
SplineSet
561 248 m 1
 335 248 l 1
 335 0 l 1
 283 0 l 1
 283 248 l 1
 57 248 l 1
 57 298 l 1
 283 298 l 1
 283 537 l 1
 335 537 l 1
 335 298 l 1
 561 298 l 1
 561 248 l 1
EndSplineSet
EndChar

StartChar: comma
Encoding: 44 44 13
Width: 243
VWidth: 1504
Flags: W
HStem: -164 266
VStem: 74 111<4.76417 89.3858>
LayerCount: 2
Fore
SplineSet
129 102 m 3
 162 102 185 74 185 41 c 1
 182 -45 130 -133 66 -164 c 1
 45 -141 l 1
 97 -106 126 -62 132 -11 c 1
 101 -11 74 15 74 45 c 259
 74 75 99 102 129 102 c 3
EndSplineSet
EndChar

StartChar: hyphen
Encoding: 45 45 14
Width: 324
VWidth: 1504
Flags: W
HStem: 248 50<30 293>
VStem: 30 263<248 298>
LayerCount: 2
Fore
SplineSet
293 248 m 1
 30 248 l 1
 30 298 l 1
 293 298 l 1
 293 248 l 1
EndSplineSet
EndChar

StartChar: period
Encoding: 46 46 15
Width: 243
VWidth: 1504
Flags: W
HStem: -9 104<79.1808 162.097>
VStem: 69 104<1.18085 84.0971>
LayerCount: 2
Fore
SplineSet
120 95 m 259
 148 95 173 70 173 42 c 259
 173 14 148 -9 120 -9 c 259
 92 -9 69 14 69 42 c 259
 69 70 92 95 120 95 c 259
EndSplineSet
EndChar

StartChar: slash
Encoding: 47 47 16
Width: 406
VWidth: 1504
Flags: W
DStem2: -27 -44 30 -44 0.442644 0.896697<25.2307 874.337>
LayerCount: 2
Fore
SplineSet
418 742 m 1
 30 -44 l 1
 -27 -44 l 1
 356 742 l 1
 418 742 l 1
EndSplineSet
EndChar

StartChar: zero
Encoding: 48 48 17
Width: 544
VWidth: 1507
Flags: W
HStem: -14 50<211.505 332.065> 678 50<208.012 335.87>
VStem: 47 60<193.477 515.467> 436 60<194.137 522.823>
LayerCount: 2
Back
SplineSet
272 721 m 259
 433 721 496 522 496 341 c 3
 496 175 421 -17 272 -17 c 3
 122 -17 47 173 47 341 c 3
 47 521 112 721 272 721 c 259
272 669 m 3
 147 669 107 489 107 343 c 3
 107 211 157 35 272 35 c 3
 386 35 436 212 436 343 c 3
 436 488 396 669 272 669 c 3
EndSplineSet
Fore
SplineSet
272 728 m 259
 433 728 496 527 496 346 c 3
 496 180 421 -14 272 -14 c 3
 122 -14 47 178 47 346 c 3
 47 526 112 728 272 728 c 259
272 678 m 3
 147 678 107 494 107 348 c 3
 107 216 157 36 272 36 c 3
 386 36 436 217 436 348 c 3
 436 493 396 678 272 678 c 3
EndSplineSet
EndChar

StartChar: one
Encoding: 49 49 18
Width: 544
VWidth: 1504
Flags: W
HStem: 0 50<146 259 319 432> 708 20G<263.237 297>
VStem: 259 60<50 636>
DStem2: 113 576 146 538 0.75123 0.66004<0 149.282>
LayerCount: 2
Back
SplineSet
432 0 m 1
 146 0 l 1
 146 54 l 1
 259 54 l 1
 259 627 l 1
 146 529 l 1
 113 567 l 1
 286 719 l 1
 308 719 319 700 319 662 c 2
 319 54 l 1
 432 54 l 1
 432 0 l 1
EndSplineSet
Fore
SplineSet
432 0 m 1
 146 0 l 1
 146 50 l 1
 259 50 l 1
 259 636 l 1
 146 538 l 1
 113 576 l 1
 286 728 l 1
 308 728 319 709 319 671 c 2
 319 50 l 1
 432 50 l 1
 432 0 l 1
EndSplineSet
EndChar

StartChar: two
Encoding: 50 50 19
Width: 544
VWidth: 1504
Flags: W
HStem: 0 50<120 492> 678 50<205.039 369.148>
VStem: 83 54<550.056 604.354> 426 60<458.604 623.314>
LayerCount: 2
Back
SplineSet
292 719 m 3
 400 719 486 643 486 537 c 3
 486 461 426 365 305 250 c 0
 216 166 156 100 120 59 c 1
 504 59 l 1
 492 0 l 1
 39 0 l 1
 43 25 50 54 60 86 c 1
 103 130 151 177 203 227 c 0
 255 277 313 341 378 418 c 0
 413 459 426 503 426 542 c 259
 426 621 369 663 290 663 c 3
 200 663 149 618 137 528 c 1
 83 543 l 1
 94 652 170 719 292 719 c 3
EndSplineSet
Fore
SplineSet
292 728 m 3
 400 728 486 652 486 546 c 3
 486 460 426 365 305 250 c 0
 216 166 144 94 120 50 c 1
 504 50 l 1
 492 0 l 1
 39 0 l 1
 43 25 50 54 60 86 c 1
 103 130 151 177 203 227 c 0
 255 277 313 341 378 418 c 0
 413 459 426 512 426 551 c 259
 426 630 369 678 290 678 c 3
 200 678 149 627 137 537 c 1
 83 552 l 1
 94 661 170 728 292 728 c 3
EndSplineSet
EndChar

StartChar: three
Encoding: 51 51 20
Width: 544
VWidth: 1504
Flags: W
HStem: -14 50<111.207 311.485> 385 54<308 372.975> 678 50<190.201 349.571>
VStem: 372 60<546.917 654.906> 433 60<156.037 320.769>
LayerCount: 2
Back
SplineSet
493 242 m 0
 493 166 467 104.333 415 57 c 0
 363 9.66667 296 -15 214 -17 c 0
 148 -19 93.6667 -0.333332 51 39 c 1
 77 86 l 1
 114.333 58 163 44 223 44 c 0
 281 44 330.5 63.5 371.5 102.5 c 0
 412.5 141.5 433 187 433 239 c 0
 433 278.333 421 311 397 337 c 0
 373 363 342.333 376 305 376 c 0
 261.667 376 228.333 364.333 205 341 c 1
 176 390 l 1
 233 434 233 434 290 478 c 1
 347.333 526 376 563.667 376 591 c 0
 376 640.333 342 665 274 665 c 0
 198.667 665 142.333 627.333 105 552 c 1
 63 575 l 1
 79 619 106.667 654 146 680 c 0
 185.333 706 229.333 719 278 719 c 0
 320 719 356.167 707.667 386.5 685 c 0
 416.833 662.333 432 631.667 432 593 c 0
 432 547 390.667 492.667 308 430 c 1
 317 430 l 2
 370.333 430 413 412.167 445 376.5 c 0
 477 340.833 493 296 493 242 c 0
EndSplineSet
Fore
SplineSet
317 439 m 2
 424 439 493 352 493 245 c 3
 493 90 371 -14 214 -14 c 3
 148 -14 94 3 51 42 c 1
 77 78 l 1
 114 50 163 36 223 36 c 3
 334 36 433 133 433 242 c 3
 433 319 381 385 305 385 c 3
 262 385 228 373 205 350 c 1
 176 399 l 1
 290 487 l 2
 349 533 372 573 372 600 c 3
 372 649 342 678 274 678 c 3
 199 678 142 636 105 561 c 1
 63 584 l 1
 92 664 173 728 278 728 c 3
 358 728 432 681 432 602 c 3
 432 556 391 502 308 439 c 1
 317 439 l 2
EndSplineSet
EndChar

StartChar: four
Encoding: 52 52 21
Width: 544
VWidth: 1504
Flags: W
HStem: 0 21G<352 412> 167 50<113 352 412 511> 708 20G<297.5 412>
VStem: 48 65<217 353.578> 352 60<0 167 217 651>
LayerCount: 2
Back
SplineSet
352 223 m 1
 352 657 l 1
 282.667 623 225.667 563.333 181 478 c 0
 137.667 396.667 115 311.667 113 223 c 1
 352 223 l 1
412 223 m 1
 519 223 l 1
 511 167 l 1
 412 167 l 1
 412 0 l 1
 352 0 l 1
 352 167 l 1
 48 167 l 1
 50 316.333 83.8333 442.667 149.5 546 c 0
 215.167 649.333 302.667 712 412 734 c 1
 412 223 l 1
EndSplineSet
Fore
SplineSet
352 217 m 1
 352 651 l 1
 224 588 113 401 113 217 c 1
 352 217 l 1
412 217 m 1
 519 217 l 1
 511 167 l 1
 412 167 l 1
 412 0 l 1
 352 0 l 1
 352 167 l 1
 48 167 l 1
 48 449 183 682 412 728 c 1
 412 217 l 1
EndSplineSet
EndChar

StartChar: five
Encoding: 53 53 22
Width: 544
VWidth: 1504
Flags: W
HStem: -14 50<104.194 301.747> 412 50<180.296 334.402> 666 50<193 445>
VStem: 418 60<152.69 332.464>
DStem2: 113 359 179 447 0.061508 0.998107<91.8929 311.339>
LayerCount: 2
Back
SplineSet
478 247 m 0
 478 169.667 452 107.167 400 59.5 c 0
 348 11.8333 281 -12 199 -12 c 0
 129.667 -12 75.3333 6.66667 36 44 c 1
 62 90 l 1
 76 80.6667 91 72.3333 107 65 c 0
 135 51.6667 169.667 45 211 45 c 0
 265 45 312.833 62.5 354.5 97.5 c 0
 396.167 132.5 417 181.667 417 245 c 0
 417 299 399 339.667 363 367 c 1
 333 391 293.667 403 245 403 c 0
 203 403 169.333 386.333 144 353 c 1
 113 350 l 1
 135 714 l 1
 456 714 l 1
 445 657 l 1
 193 657 l 1
 179 445 l 1
 205 455 233 460 263 460 c 0
 321 460 370.667 442 412 406 c 0
 456 366 478 313 478 247 c 0
EndSplineSet
Fore
SplineSet
418 245 m 3
 418 346 348 412 245 412 c 3
 203 412 169 395 144 362 c 1
 113 359 l 1
 135 716 l 1
 456 716 l 1
 445 666 l 1
 193 666 l 1
 179 447 l 1
 205 457 233 462 263 462 c 3
 388 462 478 371 478 247 c 3
 478 90 358 -14 199 -14 c 3
 130 -14 75 5 36 42 c 1
 62 81 l 1
 101 55 145 36 211 36 c 3
 324 36 418 127 418 245 c 3
EndSplineSet
EndChar

StartChar: six
Encoding: 54 54 23
Width: 544
VWidth: 1504
Flags: W
HStem: -14 50<200.537 346.431> 398 50<199.487 346.982> 684 44<388.191 436.795>
VStem: 57 60<128.521 307.449> 424 60<122.241 314.741>
LayerCount: 2
Back
SplineSet
484 218 m 0
 484 152.667 465.833 98 429.5 54 c 0
 393.167 10 343.333 -12 280 -12 c 0
 208.667 -12 152.333 15 111 69 c 0
 75 117 57 177.667 57 251 c 0
 57 366.333 92.6667 469.333 164 560 c 0
 235.333 650.667 326 706.667 436 728 c 1
 441 684 l 1
 373.667 664.665 312.333 629.332 257 578 c 0
 195 520 152.333 450.667 129 370 c 1
 133 385.333 147.667 401.333 173 418 c 1
 205 438 242 448 284 448 c 0
 343.333 448 391.5 425.5 428.5 380.5 c 0
 465.5 335.5 484 281.333 484 218 c 0
424 218 m 0
 424 268 410.5 310.667 383.5 346 c 0
 356.5 381.333 319.333 399 272 399 c 0
 228.667 399 192 381.333 162 346 c 0
 132 310.667 117 268 117 218 c 0
 117 168.667 132.167 126.5 162.5 91.5 c 0
 192.833 56.5 229.333 39 272 39 c 0
 320 39 357.333 56.5 384 91.5 c 0
 410.667 126.5 424 168.667 424 218 c 0
EndSplineSet
Fore
SplineSet
280 -14 m 3
 139 -14 57 103 57 251 c 3
 57 491 229 688 436 728 c 1
 441 684 l 1
 294 642 171 517 129 370 c 1
 141 416 224 448 284 448 c 3
 404 448 484 339 484 218 c 3
 484 90 408 -14 280 -14 c 3
424 218 m 3
 424 316 369 398 272 398 c 3
 181 398 117 311 117 218 c 3
 117 126 182 36 272 36 c 3
 368 36 424 122 424 218 c 3
EndSplineSet
EndChar

StartChar: seven
Encoding: 55 55 24
Width: 544
VWidth: 1504
Flags: W
HStem: 0 21G<198 258> 666 50<72 412>
VStem: 198 60<0 221.735>
LayerCount: 2
Back
SplineSet
260 0 m 1
 197 0 l 1
 197 151.333 227 296.333 287 435 c 0
 301 467 325.167 511.833 359.5 569.5 c 0
 393.833 627.168 411.333 656.335 412 657 c 1
 50 657 l 1
 72 714 l 1
 495 714 l 1
 483 654 l 1
 415.667 566 361.667 470.667 321 368 c 0
 280.333 265.333 260 142.667 260 0 c 1
EndSplineSet
Fore
SplineSet
258 0 m 1
 198 0 l 1
 198 151 226 296 287 435 c 0
 326 524 376 606 412 666 c 1
 50 666 l 1
 72 716 l 1
 495 716 l 1
 483 663 l 1
 416 575 362 471 321 368 c 0
 280 265 258 143 258 0 c 1
EndSplineSet
EndChar

StartChar: eight
Encoding: 56 56 25
Width: 544
VWidth: 1504
Flags: W
HStem: -12 53<182.453 360.449> 665 56<186.7 356.11>
VStem: 50 60<108.545 271.482> 72 60<479.312 612.531> 411 60<479.214 611.61> 433 60<108.854 271.482>
LayerCount: 2
Fore
SplineSet
433 188 m 0xe4
 433 227.333 419.5 264.667 392.5 300 c 0
 365.5 335.334 325 354.667 271 358 c 1
 217.667 354.667 177.5 335.333 150.5 300 c 0
 123.5 264.667 110 227.333 110 188 c 0
 110 142.667 125.333 106.833 156 80.5 c 0
 186.667 54.1667 225.333 41 272 41 c 0
 318 41 356.333 54.1667 387 80.5 c 0
 417.667 106.833 433 142.667 433 188 c 0xe4
411 543 m 0xd8
 411 578.333 398.333 607.5 373 630.5 c 0
 347.667 653.5 314 665 272 665 c 0
 228.667 665 194.5 653.5 169.5 630.5 c 0
 144.5 607.5 132 578.333 132 543 c 0
 132 481 178.333 438.333 271 415 c 1
 364.333 438.333 411 481 411 543 c 0xd8
493 193 m 0xc4
 493 129 473 78.8333 433 42.5 c 0
 393 6.16667 339 -12 271 -12 c 0
 203.667 -12 150 6 110 42 c 0
 70 78 50 128.333 50 193 c 0xe4
 50 242.333 64.1667 284.667 92.5 320 c 0
 120.833 355.334 157.333 377.667 202 387 c 1
 164.667 398.334 133.667 418.167 109 446.5 c 0
 84.3333 474.834 72 505.667 72 539 c 0
 72 592.333 90.6667 636 128 670 c 0
 165.333 704 213.333 721 272 721 c 0
 330 721 377.667 703.833 415 669.5 c 0
 452.333 635.167 471 591.667 471 539 c 0xd8
 471 505.667 458.667 474.667 434 446 c 0
 409.333 417.333 378.333 397.666 341 387 c 1
 385 377.667 421.333 355.333 450 320 c 0
 478.667 284.667 493 242.333 493 193 c 0xc4
EndSplineSet
EndChar

StartChar: nine
Encoding: 57 57 26
Width: 544
VWidth: 1504
Flags: W
HStem: -18 44<104.364 159.294> 262 49<191.897 344.037> 671 51<190.649 344.084>
VStem: 57 60<395.935 589.355> 424 60<399.949 582.622>
LayerCount: 2
Fore
SplineSet
484 459 m 0
 484 343.667 448.5 240.667 377.5 150 c 0
 306.5 59.3333 215.667 3.33333 105 -18 c 1
 101 26 l 1
 168.333 45.3333 229.333 80.6667 284 132 c 0
 346 190 388.667 259.333 412 340 c 1
 408 324.667 393.667 308.667 369 292 c 1
 337 272 299.667 262 257 262 c 0
 197.667 262 149.5 284.5 112.5 329.5 c 0
 75.5 374.5 57 428.667 57 492 c 0
 57 557.333 75.3333 612 112 656 c 0
 148.667 700 198.667 722 262 722 c 0
 333.333 722 389.333 695 430 641 c 0
 466 593 484 532.333 484 459 c 0
424 492 m 0
 424 541.333 409 583.5 379 618.5 c 0
 349 653.5 312.333 671 269 671 c 0
 221 671 183.667 653.5 157 618.5 c 0
 130.333 583.5 117 541.333 117 492 c 0
 117 442 130.667 399.333 158 364 c 0
 185.333 328.667 222.333 311 269 311 c 0
 312.333 311 349 328.667 379 364 c 0
 409 399.333 424 442 424 492 c 0
EndSplineSet
EndChar

StartChar: colon
Encoding: 58 58 27
Width: 243
VWidth: 1504
Flags: HW
LayerCount: 2
Fore
SplineSet
173 42 m 256
 173 28 167.667 16 157 6 c 128
 146.333 -4 134 -9 120 -9 c 256
 106 -9 94 -4 84 6 c 128
 74 16 69 28 69 42 c 256
 69 56 74 68.3333 84 79 c 128
 94 89.6667 106 95 120 95 c 256
 134 95 146.333 89.6667 157 79 c 128
 167.667 68.3333 173 56 173 42 c 256
173 426 m 256
 173 412 167.667 400 157 390 c 128
 146.333 380 134 375 120 375 c 256
 106 375 94 380 84 390 c 128
 74 400 69 412 69 426 c 256
 69 440 74 452.167 84 462.5 c 128
 94 472.833 106 478 120 478 c 256
 134 478 146.333 472.833 157 462.5 c 128
 167.667 452.167 173 440 173 426 c 256
EndSplineSet
EndChar

StartChar: semicolon
Encoding: 59 59 28
Width: 243
VWidth: 1504
Flags: HW
LayerCount: 2
Fore
SplineSet
185 41 m 0
 183 -13 166.333 -60.6667 135 -102 c 0
 113.667 -131.333 90.6667 -152 66 -164 c 1
 45 -141 l 1
 97 -105.667 126 -62.3333 132 -11 c 1
 116 -11 102.333 -5.33333 91 6 c 128
 79.6667 17.3333 74 30.3333 74 45 c 256
 74 60.3333 79.5 73.6667 90.5 85 c 128
 101.5 96.3333 114.333 102 129 102 c 0
 145 102 158.333 96.1667 169 84.5 c 128
 179.667 72.8333 185 58.3333 185 41 c 0
173 426 m 256
 173 412 167.667 400 157 390 c 128
 146.333 380 134 375 120 375 c 256
 106 375 94 380 84 390 c 128
 74 400 69 412 69 426 c 256
 69 440 74 452.167 84 462.5 c 128
 94 472.833 106 478 120 478 c 256
 134 478 146.333 472.833 157 462.5 c 128
 167.667 452.167 173 440 173 426 c 256
EndSplineSet
EndChar

StartChar: less
Encoding: 60 60 29
Width: 618
VWidth: 1504
Flags: HW
LayerCount: 2
Fore
SplineSet
551 54 m 1
 551 -3 l 1
 66 262 l 1
 66 302 l 1
 551 567 l 1
 551 511 l 1
 126 281 l 1
 551 54 l 1
EndSplineSet
EndChar

StartChar: equal
Encoding: 61 61 30
Width: 618
VWidth: 1504
Flags: HW
LayerCount: 2
Fore
SplineSet
535 399 m 1
 535 349 l 1
 83 349 l 1
 83 399 l 1
 535 399 l 1
535 203 m 1
 535 153 l 1
 83 153 l 1
 83 203 l 1
 535 203 l 1
EndSplineSet
EndChar

StartChar: greater
Encoding: 62 62 31
Width: 618
VWidth: 1504
Flags: HW
LayerCount: 2
Fore
SplineSet
551 302 m 1
 551 262 l 1
 66 -3 l 1
 66 54 l 1
 490 283 l 1
 66 511 l 1
 66 567 l 1
 551 302 l 1
EndSplineSet
EndChar

StartChar: question
Encoding: 63 63 32
Width: 425
VWidth: 1504
Flags: HW
LayerCount: 2
Fore
SplineSet
208 185 m 1
 156 185 l 1
 150.666 200.333 148.332 218 149 238 c 0
 149 291.333 176.333 348.5 231 409.5 c 128
 285.667 470.5 313 522.667 313 566 c 0
 313 638 272 674 190 674 c 0
 142.667 674 102.333 661 69 635 c 1
 47 680 l 1
 95 711.333 146 727 200 727 c 0
 257.333 727 301 710.333 331 677 c 0
 358.333 647.667 372 611.667 372 569 c 0
 372 515.667 340.333 455.333 277 388 c 0
 227.667 336 203 284.333 203 233 c 0
 203 215 204.667 199 208 185 c 1
232 42 m 256
 232 28 226.667 16 216 6 c 128
 205.333 -4 193 -9 179 -9 c 256
 165 -9 153 -4 143 6 c 128
 133 16 128 28 128 42 c 256
 128 56 133 68.3333 143 79 c 128
 153 89.6667 165 95 179 95 c 256
 193 95 205.333 89.6667 216 79 c 128
 226.667 68.3333 232 56 232 42 c 256
EndSplineSet
EndChar

StartChar: at
Encoding: 64 64 33
Width: 806
VWidth: 1504
Flags: HW
LayerCount: 2
Fore
SplineSet
767 265 m 0
 767 197 746 138.833 704 90.5 c 128
 662 42.1667 616.333 16.6667 567 14 c 2
 520 11 l 1
 505 78 l 1
 465 26.6667 412 1.33333 346 2 c 0
 334 2 324.333 2.33333 317 3 c 0
 285 8.33333 257.833 22.5 235.5 45.5 c 128
 213.167 68.5 202 95 202 125 c 0
 202 237 302 293 502 293 c 1
 502 301 l 2
 502 386.333 461.667 429 381 429 c 0
 337 429 299.333 417 268 393 c 1
 251 430 l 1
 290.334 459.333 334.667 474 384 474 c 0
 498 474 555 410.333 555 283 c 2
 555 122 l 2
 555 100 557 79.3333 561 60 c 1
 600.333 62 636 82.6667 668 122 c 128
 700 161.333 716 207.333 716 260 c 0
 716 343.333 690 412.333 638 467 c 128
 586 521.667 515.333 549 426 549 c 0
 332 549 253.667 518 191 456 c 0
 125 390 92 304.667 92 200 c 0
 92 114 119.5 42.6667 174.5 -14 c 128
 229.5 -70.6667 297.667 -99 379 -99 c 0
 448.333 -99 507 -84 555 -54 c 1
 576 -98 l 1
 516 -130 449 -146 375 -146 c 0
 281 -146 200.833 -113.833 134.5 -49.5 c 128
 68.1667 14.8333 35 96.6667 35 196 c 0
 35 305.333 70 397.333 140 472 c 0
 214 552 311.667 592.333 433 593 c 0
 533 593 613.667 561.833 675 499.5 c 128
 736.333 437.167 767 359 767 265 c 0
502 158 m 2
 502 250 l 1
 338.667 248 257 209.333 257 134 c 0
 257 74 287.667 44 349 44 c 0
 421 44 471 75.3333 499 138 c 0
 501 142 502 148.667 502 158 c 2
EndSplineSet
EndChar

StartChar: A
Encoding: 65 65 34
Width: 601
VWidth: 1504
Flags: W
HStem: 0 21G<0 72.0435 529.783 602> 230 50<164 436> 707 20G<263.545 338.455>
DStem2: 0 0 65 0 0.349287 0.937016<22.7036 266.51 319.647 319.647>
LayerCount: 2
Fore
SplineSet
602 0 m 1
 537 0 l 1
 454 230 l 1
 146 230 l 1
 65 0 l 1
 0 0 l 1
 271 727 l 1
 331 727 l 1
 602 0 l 1
436 280 m 1
 301 662 l 1
 164 280 l 1
 436 280 l 1
EndSplineSet
EndChar

StartChar: B
Encoding: 66 66 35
Width: 568
VWidth: 1504
Flags: W
HStem: -9 48<140.65 358.189> 355 48<140 360.469> 675 50<141.755 359.912>
VStem: 81 59<44.0625 355 403 669.139> 433 59<469.632 615.275> 463 57<123.05 277.909>
LayerCount: 2
Fore
SplineSet
520 200 m 0xf4
 520 60.6667 419.333 -8.99999 218 -9 c 0
 174 -9 128.333 -4 81 6 c 1
 81 705 l 1
 131 718.333 181.333 725 232 725 c 0
 405.333 725 492 665 492 545 c 0xf8
 492 509 481.167 476.167 459.5 446.5 c 0
 437.833 416.833 409 395.333 373 382 c 1
 409 372.667 442.5 352.333 473.5 321 c 0
 504.5 289.667 520 249.333 520 200 c 0xf4
433 543 m 0
 433 631 366 675 232 675 c 0
 200.667 675 170 671.667 140 665 c 1
 140 403 l 1
 262 403 l 2
 315.333 403 358 417 390 445 c 0
 418.667 471 433 503.667 433 543 c 0
463 199 m 0xf4
 463 252.333 442.167 291.667 400.5 317 c 0
 358.833 342.333 306.666 355 244 355 c 2
 140 355 l 1
 140 48 l 1
 167.333 42 197.333 39 230 39 c 0
 294 39 346.667 50.6667 388 74 c 0
 438 102 463 143.667 463 199 c 0xf4
EndSplineSet
EndChar

StartChar: C
Encoding: 67 67 36
Width: 610
VWidth: 1504
Flags: W
HStem: -11 52<270.75 518.599> 675 52<272.391 518.599>
VStem: 35 60<229.672 486.261>
LayerCount: 2
Fore
SplineSet
552 75 m 1
 570 27 l 1
 516.666 1.66667 451.666 -11 375 -11 c 0
 277.667 -11 196.667 24 132 94 c 0
 67.3333 164 35 252.667 35 360 c 256
 35 467.334 67.3333 555.334 132 624 c 0
 196.667 692.667 277.667 727 375 727 c 0
 452.334 727 517.334 714.333 570 689 c 1
 552 641 l 1
 498 664.333 440 675.667 378 675 c 0
 300.667 675 235 646.667 181 590 c 0
 123.667 530 95 452.667 95 358 c 256
 95 264 123.667 186.667 181 126 c 0
 235 68.6666 300.667 40.3333 378 41 c 0
 440 40.3333 498 51.6667 552 75 c 1
EndSplineSet
EndChar

StartChar: D
Encoding: 68 68 37
Width: 648
VWidth: 1504
Flags: W
HStem: -6 51<141.667 390.611> 672 52<142.743 397.297>
VStem: 81 59<51.6467 662.481> 546 59<224.639 506.953>
LayerCount: 2
Fore
SplineSet
605 373 m 0
 605 120.333 491.667 -6 265 -6 c 0
 235 -6 173.667 -1.33333 81 8 c 1
 81 705 l 1
 173 717 244.333 723.333 295 724 c 0
 386.333 724 460.333 693.333 517 632 c 1
 575.667 567.333 605 481 605 373 c 0
546 373 m 0
 546 468.333 521 543 471 597 c 0
 425 647 364.667 672 290 672 c 0
 258.667 672 208.667 668 140 660 c 1
 140 54 l 1
 190 48 237.667 45 283 45 c 0
 364.333 45 428.5 73.8333 475.5 131.5 c 0
 522.5 189.167 546 269.667 546 373 c 0
EndSplineSet
EndChar

StartChar: E
Encoding: 69 69 38
Width: 527
VWidth: 1504
Flags: W
HStem: 0 50<140 471> 353 50<140 435> 666 50<140 471>
VStem: 81 59<50 353 403 666>
LayerCount: 2
Fore
SplineSet
471 0 m 1
 81 0 l 1
 81 716 l 1
 471 716 l 1
 471 666 l 1
 140 666 l 1
 140 403 l 1
 435 403 l 1
 435 353 l 1
 140 353 l 1
 140 50 l 1
 471 50 l 1
 471 0 l 1
EndSplineSet
EndChar

StartChar: F
Encoding: 70 70 39
Width: 527
VWidth: 1504
Flags: W
HStem: 0 21G<81 140> 344 50<140 463> 666 50<140 486>
VStem: 81 59<0 344 394 666>
LayerCount: 2
Fore
SplineSet
463 344 m 1
 140 344 l 1
 140 0 l 1
 81 0 l 1
 81 716 l 1
 486 716 l 1
 486 666 l 1
 140 666 l 1
 140 394 l 1
 463 394 l 1
 463 344 l 1
EndSplineSet
EndChar

StartChar: G
Encoding: 71 71 40
Width: 639
VWidth: 1504
Flags: W
HStem: -8 49<238.955 481.268> 310 48<337 519> 674 50<259.96 497.971>
VStem: 35 60<209.19 491.285> 519 57<69.328 310>
LayerCount: 2
Fore
SplineSet
576 358 m 1
 576 15 l 1
 568 21 557.667 24 545 24 c 1
 456 8 l 0
 396.667 -2.66667 357 -8 337 -8 c 0
 245.667 -8 172.5 25.5 117.5 92.5 c 0
 62.5 159.5 35 248.667 35 360 c 0
 35 466 63.3333 552 120 618 c 1
 179.333 688 260.333 723.333 363 724 c 0
 436.333 724 500.333 711.667 555 687 c 1
 537 639 l 1
 477 662.333 418 674 360 674 c 0
 284.667 674 221.667 644.333 171 585 c 0
 120.333 525.666 95 450 95 358 c 0
 95 260 116.833 182.667 160.5 126 c 0
 204.167 69.3333 266 41 346 41 c 0
 409.333 41 467 53.3333 519 78 c 1
 519 310 l 1
 337 310 l 1
 337 358 l 1
 576 358 l 1
EndSplineSet
EndChar

StartChar: H
Encoding: 72 72 41
Width: 663
VWidth: 1504
Flags: W
HStem: 0 21G<81 140 523 582> 356 50<140 523> 696 20G<81 140 523 582>
VStem: 81 59<0 356 406 716> 523 59<0 356 406 716>
LayerCount: 2
Fore
SplineSet
582 0 m 1
 523 0 l 1
 523 356 l 1
 140 356 l 1
 140 0 l 1
 81 0 l 1
 81 716 l 1
 140 716 l 1
 140 406 l 1
 523 406 l 1
 523 716 l 1
 582 716 l 1
 582 0 l 1
EndSplineSet
EndChar

StartChar: I
Encoding: 73 73 42
Width: 221
VWidth: 1504
Flags: W
HStem: 0 21G<81 140> 696 20G<81 140>
VStem: 81 59<0 716>
LayerCount: 2
Fore
SplineSet
140 0 m 1
 81 0 l 1
 81 716 l 1
 140 716 l 1
 140 0 l 1
EndSplineSet
EndChar

StartChar: J
Encoding: 74 74 43
Width: 397
VWidth: 1504
Flags: W
HStem: -14 52<8.05476 192.594> 696 20G<257 316>
VStem: 257 59<109.519 716>
LayerCount: 2
Fore
SplineSet
316 235 m 2
 316 69.6667 245.667 -13.3333 105 -14 c 0
 65.6667 -14 30 -6.33333 -2 9 c 1
 14 56 l 1
 37.3333 44 67.6667 38 105 38 c 0
 157 38 195.333 53.1667 220 83.5 c 0
 244.667 113.833 257 169.333 257 250 c 2
 257 716 l 1
 316 716 l 1
 316 235 l 2
EndSplineSet
EndChar

StartChar: K
Encoding: 75 75 44
Width: 565
VWidth: 1504
Flags: W
HStem: 0 13G<81 140 517.36 582.182> 696 20G<81 140 475.83 555>
VStem: 81 59<0 296 372 716>
DStem2: 140 372 140 296 0.709667 0.704537<0 55.3489 110.508 501.343> 257 411 217 373 0.639231 -0.769015<3.65331 499.284>
LayerCount: 2
Fore
SplineSet
587 14 m 1
 534 -8 l 1
 217 373 l 1
 140 296 l 1
 140 0 l 1
 81 0 l 1
 81 716 l 1
 140 716 l 1
 140 372 l 1
 496 725 l 1
 555 708 l 1
 257 411 l 1
 587 14 l 1
EndSplineSet
EndChar

StartChar: L
Encoding: 76 76 45
Width: 530
VWidth: 1504
Flags: W
HStem: 0 50<140 492> 696 20G<81 140>
VStem: 81 59<50 716>
LayerCount: 2
Fore
SplineSet
492 0 m 1
 81 0 l 1
 81 716 l 1
 140 716 l 1
 140 50 l 1
 492 50 l 1
 492 0 l 1
EndSplineSet
EndChar

StartChar: M
Encoding: 77 77 46
Width: 824
VWidth: 1504
Flags: W
HStem: 0 21G<60 117.424 385.658 439.31 706.576 764> 696 20G<108.603 186.259 637.741 715.397>
DStem2: 60 0 116 0 0.0696627 0.997571<3.90111 637.501> 179 716 161 632 0.341155 -0.940007<72.8198 682.974> 412 74 432 0 0.341155 0.940007<0 610.154> 714 716 663 632 0.0696627 -0.997571<80.2431 713.843>
LayerCount: 2
Fore
SplineSet
764 0 m 1
 708 0 l 1
 663 632 l 1
 432 0 l 1
 393 0 l 1
 161 632 l 1
 116 0 l 1
 60 0 l 1
 110 716 l 1
 179 716 l 1
 412 74 l 1
 645 716 l 1
 714 716 l 1
 764 0 l 1
EndSplineSet
EndChar

StartChar: N
Encoding: 78 78 47
Width: 663
VWidth: 1504
Flags: W
HStem: 0 21G<81 141 508.025 582> 696 20G<81 161.051 525 582>
VStem: 81 60<0 633> 525 57<92 716>
DStem2: 149 716 141 633 0.513698 -0.857971<67.102 728.524>
LayerCount: 2
Fore
SplineSet
582 0 m 1
 520 0 l 1
 141 633 l 1
 141 0 l 1
 81 0 l 1
 81 716 l 1
 149 716 l 1
 525 92 l 1
 525 716 l 1
 582 716 l 1
 582 0 l 1
EndSplineSet
EndChar

StartChar: O
Encoding: 79 79 48
Width: 731
VWidth: 1504
Flags: W
HStem: -15 51<260.868 468.764> 677 51<262.876 468.764>
VStem: 33 59<226.453 486.279> 639 59<226.159 485.959>
LayerCount: 2
Fore
SplineSet
698 356 m 256
 698 248.667 667.167 160 605.5 90 c 0
 543.833 20 464 -15 366 -15 c 256
 268 -15 188 20.1667 126 90.5 c 0
 64 160.833 33 249.333 33 356 c 256
 33 463.333 63.8333 552.167 125.5 622.5 c 0
 187.167 692.833 267.333 728 366 728 c 256
 464 728 543.834 692.833 605.5 622.5 c 0
 667.167 552.167 698 463.333 698 356 c 256
639 356 m 256
 639 444 613.5 519.5 562.5 582.5 c 0
 511.5 645.5 446 677 366 677 c 256
 286 677 220.333 645.667 169 583 c 0
 117.667 520.333 92 444.667 92 356 c 256
 92 268 117.5 192.667 168.5 130 c 0
 219.5 67.3333 285.333 36 366 36 c 256
 446 36 511.5 67.3333 562.5 130 c 0
 613.5 192.667 639 268 639 356 c 256
EndSplineSet
EndChar

StartChar: P
Encoding: 80 80 49
Width: 568
VWidth: 1504
Flags: W
HStem: 0 21G<81 140> 292 49<141.407 355.224> 672 52<141.622 377.619>
VStem: 81 59<0 301 347.188 668.063> 463 56<427.98 597.574>
LayerCount: 2
Fore
SplineSet
519 517 m 0
 519 441.667 489 383.667 429 343 c 0
 377 307.667 311.667 290.667 233 292 c 0
 201 292 170 295 140 301 c 1
 140 0 l 1
 81 0 l 1
 81 708 l 1
 141 718 198.667 723.333 254 724 c 0
 326 724 386.667 707.333 436 674 c 0
 491.333 635.333 519 583 519 517 c 0
463 513 m 256
 463 619 393 672 253 672 c 0
 203 672 165.333 669.667 140 665 c 1
 140 352 l 1
 167.333 344.667 202.333 341 245 341 c 1
 390.333 349.667 463 407 463 513 c 256
EndSplineSet
EndChar

StartChar: Q
Encoding: 81 81 50
Width: 732
VWidth: 1504
Flags: W
HStem: -101 56<556.244 640.625> -15 51<262.34 419.86> 677 51<262.876 468.764>
VStem: 33 59<226.453 486.279> 639 59<227.08 485.959>
LayerCount: 2
Fore
SplineSet
698 356 m 0
 698 270 677 194.333 635 129 c 0
 591 61 530.667 17.3333 454 -2 c 1
 513.333 -27.3333 581.667 -41.6667 659 -45 c 1
 638 -101 l 1
 538.666 -77.6667 448 -49 366 -15 c 1
 268 -15 188 20.1667 126 90.5 c 0
 64 160.833 33 249.333 33 356 c 256
 33 463.333 63.8333 552.167 125.5 622.5 c 0
 187.167 692.833 267.333 728 366 728 c 256
 464 728 543.834 692.833 605.5 622.5 c 0
 667.167 552.167 698 463.333 698 356 c 0
639 356 m 256
 639 444 613.5 519.5 562.5 582.5 c 0
 511.5 645.5 446 677 366 677 c 256
 286 677 220.333 645.667 169 583 c 0
 117.667 520.333 92 444.667 92 356 c 256
 92 268 117.5 192.667 168.5 130 c 0
 219.5 67.3333 285.333 36 366 36 c 256
 446 36 511.5 67.3333 562.5 130 c 0
 613.5 192.667 639 268 639 356 c 256
EndSplineSet
EndChar

StartChar: R
Encoding: 82 82 51
Width: 570
VWidth: 1504
Flags: W
HStem: 0 21G<81 140 467.333 539> 326 47<140 351.437> 672 52<141.741 382.89>
VStem: 81 59<0 326 373 666.607> 463 56<444.393 602.783> 481 58<0 118.266>
LayerCount: 2
Fore
SplineSet
539 0 m 1xf4
 481 0 l 1xf4
 453.667 217.333 386 326 278 326 c 2
 140 326 l 1
 140 0 l 1
 81 0 l 1
 81 707 l 1
 137 718.333 195.667 724 257 724 c 0
 334.333 722.664 395.667 707.331 441 678 c 0
 493 644 519 595 519 531 c 0xf8
 519 441.667 473 380 381 346 c 1
 434.333 316.667 474.333 262.667 501 184 c 0
 514.333 142.667 527 81.3333 539 0 c 1xf4
463 523 m 0xf8
 463 622.333 394.333 672 257 672 c 0
 201.667 672 162.667 668.667 140 662 c 1
 140 373 l 1
 274 373 l 2
 333.333 373 379.667 386.167 413 412.5 c 0
 446.333 438.834 463 475.667 463 523 c 0xf8
EndSplineSet
EndChar

StartChar: S
Encoding: 83 83 52
Width: 529
VWidth: 1504
Flags: W
HStem: -14 50<126.02 347.294> 680 50<187.076 397.745>
VStem: 65 55<487.582 618.9> 424 57<105.616 260.278>
LayerCount: 2
Fore
SplineSet
481 187 m 0
 481 133 461.667 87.6667 423 51 c 1
 379 7.66667 317.333 -14 238 -14 c 0
 160 -14 94.3333 4.33333 41 41 c 1
 65 92 l 1
 114.333 54.6667 174 36 244 36 c 0
 300 36 344 49.3333 376 76 c 0
 408 102.667 424 138 424 182 c 0
 424 222 411.667 254.333 387 279 c 0
 362.333 303.667 321.666 325 265 343 c 0
 131.667 386.334 65 453.667 65 545 c 0
 65 598.333 85.5 642.5 126.5 677.5 c 0
 167.5 712.5 221 730 287 730 c 0
 354.333 730 409 717.333 451 692 c 1
 441.667 674.667 433.333 659 426 645 c 1
 382.667 668.333 336 680 286 680 c 0
 230 680 186.667 665.333 156 636 c 0
 132 612 120 584 120 552 c 0
 120 486 173.333 435 280 399 c 0
 349.333 375 399 348.667 429 320 c 0
 463.667 287.333 481 243 481 187 c 0
EndSplineSet
EndChar

StartChar: T
Encoding: 84 84 53
Width: 570
VWidth: 1504
Flags: W
HStem: 0 21G<257 314> 666 50<-8 257 314 578>
VStem: 257 57<0 666>
LayerCount: 2
Fore
SplineSet
578 666 m 1
 314 666 l 1
 314 0 l 1
 257 0 l 1
 257 666 l 1
 -8 666 l 1
 -8 716 l 1
 578 716 l 1
 578 666 l 1
EndSplineSet
EndChar

StartChar: U
Encoding: 85 85 54
Width: 700
VWidth: 1504
Flags: W
HStem: -14 50<252.581 448.507> 696 20G<81 140 561 620>
VStem: 81 59<163.75 716> 561 59<157.359 716>
LayerCount: 2
Fore
SplineSet
620 302 m 2
 620 91.3333 530 -14 350 -14 c 256
 170.667 -14 81 91.3333 81 302 c 2
 81 716 l 1
 140 716 l 1
 140 304 l 2
 140 210 159.333 141.833 198 99.5 c 0
 236.667 57.1667 287.333 36 350 36 c 0
 414 36 465.5 57 504.5 99 c 0
 543.5 141 562.333 209.333 561 304 c 1
 561 716 l 1
 620 716 l 1
 620 302 l 2
EndSplineSet
EndChar

StartChar: V
Encoding: 86 86 55
Width: 586
VWidth: 1504
Flags: W
HStem: 0 21G<254.682 332.318> 696 20G<0 73.0062 512.994 587>
DStem2: 66 716 0 716 0.343638 -0.939102<0 686.544> 293 68 325 0 0.343638 0.939102<0 686.544>
LayerCount: 2
Fore
SplineSet
587 716 m 1
 325 0 l 1
 262 0 l 1
 0 716 l 1
 66 716 l 1
 293 68 l 1
 520 716 l 1
 587 716 l 1
EndSplineSet
EndChar

StartChar: W
Encoding: 87 87 56
Width: 884
VWidth: 1504
Flags: W
HStem: 0 21G<210.939 284.985 599.985 674.034> 696 20G<0 71.6173 404.031 479.969 812.383 884>
VStem: 0 66<692.903 716>
DStem2: 248 68 280 0 0.241833 0.970318<0 611.641> 475 716 442 650 0.243238 -0.969967<55.991 667.7> 636 68 668 0 0.28882 0.957384<0 672.95>
LayerCount: 2
Fore
SplineSet
884 716 m 1
 668 0 l 1
 605 0 l 1
 442 650 l 1
 280 0 l 1
 217 0 l 1
 0 716 l 1
 66 716 l 1
 248 68 l 1
 409 716 l 1
 475 716 l 1
 636 68 l 1
 818 716 l 1
 884 716 l 1
EndSplineSet
EndChar

StartChar: X
Encoding: 88 88 57
Width: 628
VWidth: 1504
Flags: W
HStem: 0 21G<26 108.56 520.378 603> 696 20G<36 120.227 508.709 593>
DStem2: 26 0 95 0 0.570997 0.820952<39.3988 429.615 495.291 871.016> 107 716 36 716 0.570997 -0.820952<0 375.154 440.831 831.617>
LayerCount: 2
Fore
SplineSet
603 0 m 1
 534 0 l 1
 314 323 l 1
 95 0 l 1
 26 0 l 1
 280 367 l 1
 36 716 l 1
 107 716 l 1
 314 403 l 1
 522 716 l 1
 593 716 l 1
 349 367 l 1
 603 0 l 1
EndSplineSet
EndChar

StartChar: Y
Encoding: 89 89 58
Width: 550
VWidth: 1504
Flags: W
HStem: 0 21G<247 304> 696 20G<0 79.8286 471.114 551>
VStem: 247 57<0 314>
DStem2: 68 716 0 716 0.523506 -0.852022<0 406.573> 275 366 304 316 0.525402 0.850854<0 407.083>
LayerCount: 2
Fore
SplineSet
551 716 m 1
 304 316 l 1
 304 0 l 1
 247 0 l 1
 247 314 l 1
 0 716 l 1
 68 716 l 1
 275 366 l 1
 483 716 l 1
 551 716 l 1
EndSplineSet
EndChar

StartChar: Z
Encoding: 90 90 59
Width: 637
VWidth: 1504
Flags: W
HStem: 0 50<110 602> 666 50<72 519>
DStem2: 33 39 110 50 0.612631 0.790369<55.8666 793.3>
LayerCount: 2
Fore
SplineSet
614 50 m 1
 602 0 l 1
 33 0 l 1
 33 39 l 1
 519 666 l 1
 63 666 l 1
 72 716 l 1
 594 716 l 1
 594 675 l 1
 110 50 l 1
 614 50 l 1
EndSplineSet
EndChar

StartChar: bracketleft
Encoding: 91 91 60
Width: 294
VWidth: 1504
Flags: HW
LayerCount: 2
Fore
SplineSet
278 -72 m 1
 278 -117 l 1
 78 -117 l 1
 78 761 l 1
 278 761 l 1
 278 716 l 1
 131 716 l 1
 131 -72 l 1
 278 -72 l 1
EndSplineSet
EndChar

StartChar: backslash
Encoding: 92 92 61
Width: 394
VWidth: 1504
Flags: HW
LayerCount: 2
Fore
SplineSet
420 -42 m 1
 360 -42 l 1
 -14 727 l 1
 45 727 l 1
 420 -42 l 1
EndSplineSet
EndChar

StartChar: bracketright
Encoding: 93 93 62
Width: 294
VWidth: 1504
Flags: HW
LayerCount: 2
Fore
SplineSet
218 -117 m 1
 17 -117 l 1
 17 -72 l 1
 164 -72 l 1
 164 716 l 1
 17 716 l 1
 17 761 l 1
 218 761 l 1
 218 -117 l 1
EndSplineSet
EndChar

StartChar: asciicircum
Encoding: 94 94 63
Width: 619
VWidth: 1504
Flags: HW
LayerCount: 2
Fore
SplineSet
335 722 m 1
 552 239 l 1
 496 239 l 1
 308 665 l 1
 120 239 l 1
 65 239 l 1
 281 722 l 1
 335 722 l 1
EndSplineSet
EndChar

StartChar: underscore
Encoding: 95 95 64
Width: 529
VWidth: 1504
Flags: HW
LayerCount: 2
Fore
SplineSet
529 -229 m 1
 529 -275 l 1
 0 -275 l 1
 0 -229 l 1
 529 -229 l 1
EndSplineSet
EndChar

StartChar: grave
Encoding: 96 96 65
Width: 306
VWidth: 1504
Flags: HW
LayerCount: 2
Fore
SplineSet
223 587 m 1
 176 587 l 1
 89 708 l 1
 147 724 l 1
 223 587 l 1
EndSplineSet
EndChar

StartChar: a
Encoding: 97 97 66
Width: 517
VWidth: 1504
Flags: W
HStem: -14 50<136.785 300.206> 268 51<203.63 381> 475 47<120.87 321.199>
VStem: 39 62<70.6714 197.802> 381 58<113.328 268 319 411.448>
LayerCount: 2
Fore
SplineSet
457 0 m 1
 405 -11 l 1
 384 72 l 1
 338 14.6667 277.333 -14 202 -14 c 0
 158 -14 119.833 -1.33333 87.5 24 c 0
 55.1667 49.3333 39 84 39 128 c 0
 39 255.333 150 319 372 319 c 2
 381 319 l 1
 381 328 l 2
 381 361.333 373.333 390.333 358 415 c 0
 334.667 455 295.667 475 241 475 c 0
 205.667 475 151.333 463.667 78 441 c 1
 71 495 l 1
 127 513 185 522 245 522 c 0
 374.333 522 439 450.667 439 308 c 2
 439 125 l 2
 439 83 445 41.3333 457 0 c 1
381 165 m 2
 381 268 l 1
 194.333 268 101 224.667 101 138 c 0
 101 104.667 111 79.3333 131 62 c 0
 151 44.6667 176 36 206 36 c 0
 285.333 36 341 69.6667 373 137 c 0
 378.333 147.667 381 157 381 165 c 2
EndSplineSet
Substitution2: "Single Substitution lookup 62 subtable" uni0E38
EndChar

StartChar: b
Encoding: 98 98 67
Width: 603
VWidth: 1504
Flags: W
HStem: -14 50<225.216 413.27> 0 21G<74 129> 475 47<234.074 410.413>
VStem: 78 59<120.62 380.016 414 760> 504 57<136.22 371.386>
LayerCount: 2
Fore
SplineSet
561 262 m 0x78
 561 180 539.5 113.5 496.5 62.5 c 0
 453.5 11.5 395.333 -14 322 -14 c 0xb8
 242 -14 178.333 20.6667 131 90 c 1
 131 56 130 26 128 0 c 1
 74 0 l 1
 77.3335 26 78.6668 67.6667 78 125 c 2
 78 760 l 1
 137 760 l 1
 137 414 l 1
 181 486 245.667 522 331 522 c 0
 402.333 522 458.5 497.5 499.5 448.5 c 0
 540.5 399.5 561 337.333 561 262 c 0x78
504 260 m 0
 504 323.333 488 375 456 415 c 0
 424 455 378.667 475 320 475 c 0
 272 475 230.667 458.667 196 426 c 1
 156.667 390.667 137 345.333 137 290 c 2
 137 205 l 2
 137 157 154 116.833 188 84.5 c 0
 222 52.1667 264 36 314 36 c 0
 440.667 36 504 110.667 504 260 c 0
EndSplineSet
Substitution2: "Single Substitution lookup 62 subtable" uni0E39
EndChar

StartChar: c
Encoding: 99 99 68
Width: 497
VWidth: 1504
Flags: W
HStem: -14 49<209.938 421.582> 474 48<209.608 421.582>
VStem: 41 57<147.76 361.518>
LayerCount: 2
Fore
SplineSet
448 71 m 1
 469 23 l 1
 425.667 -1 373 -13.3333 311 -14 c 0
 227 -14 161 10.3333 113 59 c 0
 65 107.667 41 172.667 41 254 c 256
 41 335.333 65 400.333 113 449 c 0
 161 497.667 227 522 311 522 c 0
 373 522 425.667 510 469 486 c 1
 448 438 l 1
 410.667 462 364 474 308 474 c 0
 246.667 474 196.333 454.333 157 415 c 0
 117.667 375.667 98 322 98 254 c 256
 98 186 117.833 132.5 157.5 93.5 c 0
 197.167 54.5 247.333 35 308 35 c 0
 364 35 410.667 47 448 71 c 1
EndSplineSet
Substitution2: "Single Substitution lookup 62 subtable" uni0E3A
EndChar

StartChar: d
Encoding: 100 100 69
Width: 603
VWidth: 1504
Flags: W
HStem: -14 50<189.729 377.784> 0 21G<474 529> 475 47<193.26 368.965>
VStem: 42 57<135.893 371.386> 472 53<0 90>
LayerCount: 2
Fore
SplineSet
529 0 m 1x78
 475 0 l 1x78
 473 26 472 56 472 90 c 1
 424.667 20.6667 361 -14 281 -14 c 0xb8
 207.667 -14 149.5 11.3333 106.5 62 c 0
 63.5 112.667 42 179.333 42 262 c 0
 42 337.333 62.5 399.5 103.5 448.5 c 0
 144.5 497.5 200.667 522 272 522 c 0
 357.333 522 422 486 466 414 c 1
 466 760 l 1
 525 760 l 1
 525 125 l 2
 524.333 67.6667 525.667 26 529 0 c 1x78
466 205 m 2
 466 290 l 2
 466 345.334 446.667 390.667 408 426 c 1
 372.667 459.334 331 475.668 283 475 c 0
 225 475 179.833 455 147.5 415 c 0
 115.167 375 99 323.333 99 260 c 0
 99 110.667 162.333 36 289 36 c 0xb8
 339 36 381 52.1667 415 84.5 c 0
 449 116.833 466 157 466 205 c 2
EndSplineSet
EndChar

StartChar: e
Encoding: 101 101 70
Width: 562
VWidth: 1504
Flags: W
HStem: -14 52<209.348 447.5> 253 46<101 460> 475 47<200.76 376.154>
VStem: 41 57<152.244 253 299 362.046> 460 56<299 383.034>
LayerCount: 2
Fore
SplineSet
487 72 m 1
 492 23 l 1
 434 -1 370.667 -13.3333 302 -14 c 0
 224 -14 161 10.1667 113 58.5 c 0
 65 106.833 41 168 41 242 c 0
 41 326 65 393.667 113 445 c 0
 161 496.333 222 522 296 522 c 0
 439.333 522 512.667 432.333 516 253 c 1
 98 253 l 1
 100 185 120.333 132.167 159 94.5 c 0
 197.667 56.8333 247.333 38 308 38 c 0
 368 37.3333 427.667 48.6667 487 72 c 1
460 299 m 1
 458.667 340.333 447.333 377 426 409 c 0
 396 453 350.333 475 289 475 c 0
 233.667 475 188.333 455 153 415 c 0
 125 383 107.667 344.333 101 299 c 1
 460 299 l 1
EndSplineSet
EndChar

StartChar: f
Encoding: 102 102 71
Width: 309
VWidth: 1504
Flags: W
HStem: 0 21G<93 152> 465 46<8 93 152 299> 722 50<206.127 352.594>
VStem: 93 59<0 465 511 658.09>
LayerCount: 2
Fore
SplineSet
363 748 m 1
 346 705 l 1
 324 716.333 299.333 722 272 722 c 0
 192 722 152 658.333 152 531 c 2
 152 511 l 1
 299 511 l 1
 299 465 l 1
 152 465 l 1
 152 0 l 1
 93 0 l 1
 93 465 l 1
 8 465 l 1
 8 511 l 1
 95 511 l 1
 95 531 l 2
 95 691.667 155.667 772 277 772 c 0
 315 772 343.667 764 363 748 c 1
EndSplineSet
EndChar

StartChar: g
Encoding: 103 103 72
Width: 467
VWidth: 1504
Flags: W
HStem: -236 51<134.599 318.485> 159 46<161.535 308.33> 468 45<159.436 305.961 352 426>
VStem: 54 53<258.829 411.915> 95 49<99.9837 175.282> 360 51<-146.97 -38.8742 253.609 413.543>
LayerCount: 2
Fore
SplineSet
414 343 m 0xf4
 414 287 396.667 242.333 362 209 c 0
 327.333 175.667 284.333 159 233 159 c 0
 201.667 159 175 164.667 153 176 c 1
 147 160.667 144 146 144 132 c 0
 144 106 184.667 81.6667 266 59 c 0
 362 31.6667 410.333 -17.6667 411 -89 c 0
 411 -132.333 395.333 -167.667 364 -195 c 0
 332.667 -222.333 287 -236 227 -236 c 0
 173.667 -236 125 -222.667 81 -196 c 1
 102 -147 l 1
 145.333 -172.333 188.667 -185 232 -185 c 0
 269.333 -185 300 -176.5 324 -159.5 c 0
 348 -142.5 360 -120.333 360 -93 c 0
 360 -45 320.333 -8 241 18 c 0
 193 33.3333 159.667 47 141 59 c 0
 109.667 78.3334 94.3333 102.667 95 132 c 0xec
 95 150 100 174.333 110 205 c 1
 72.6667 245 54 287.333 54 332 c 0
 54 386 71 429.667 105 463 c 0
 139 496.333 179.333 513 226 513 c 2
 426 513 l 1
 426 465 l 1
 352 472 l 1
 393.333 432 414 389 414 343 c 0xf4
363 335 m 0
 363 368.333 352.333 397.667 331 423 c 0
 307 453 274.333 468 233 468 c 0
 193 468 162 454.667 140 428 c 0
 118 401.333 107 370 107 334 c 0xf4
 107 294 120.333 262 147 238 c 0
 172.333 216 201 205 233 205 c 0
 269 205 299.667 216.333 325 239 c 0
 350.333 261.667 363 293.667 363 335 c 0
EndSplineSet
EndChar

StartChar: h
Encoding: 104 104 73
Width: 586
VWidth: 1504
Flags: W
HStem: 0 21G<78 137 450 508> 474 48<221.862 382.338>
VStem: 78 59<0 387.014 420 760> 450 58<0 402.125>
LayerCount: 2
Fore
SplineSet
508 290 m 2
 508 0 l 1
 450 0 l 1
 450 290 l 2
 450 412.667 398.667 474 296 474 c 0
 254.667 474 217.833 456.667 185.5 422 c 0
 153.167 387.333 137 350 137 310 c 2
 137 0 l 1
 78 0 l 1
 78 760 l 1
 137 760 l 1
 137 420 l 1
 178.333 488 235.333 522 308 522 c 0
 441.333 522 508 444.667 508 290 c 2
EndSplineSet
EndChar

StartChar: i
Encoding: 105 105 74
Width: 215
VWidth: 1504
Flags: W
HStem: 0 21G<78 137> 491 20G<78 137> 620 94<71.8927 139.076>
VStem: 59 94<632.893 700.076> 78 59<0 511>
LayerCount: 2
Fore
SplineSet
137 0 m 1xe8
 78 0 l 1
 78 511 l 1
 137 511 l 1
 137 0 l 1xe8
153 666 m 256xf0
 153 652 148.5 640.833 139.5 632.5 c 0
 130.5 624.167 119 620 105 620 c 256
 91 620 79.8333 624.167 71.5 632.5 c 0
 63.1667 640.833 59 652 59 666 c 256
 59 680 63.1667 691.5 71.5 700.5 c 0
 79.8333 709.5 91 714 105 714 c 256
 119 714 130.5 709.5 139.5 700.5 c 0
 148.5 691.5 153 680 153 666 c 256xf0
EndSplineSet
EndChar

StartChar: j
Encoding: 106 106 75
Width: 233
VWidth: 1504
Flags: W
HStem: -223 47<-57 19.4067> 491 20G<96 155> 620 94<89.8927 157.076>
VStem: 77 94<632.893 700.076> 96 59<-100.094 511>
LayerCount: 2
Fore
SplineSet
155 11 m 1xe8
 153 -141.667 82.3333 -219.667 -57 -223 c 1
 -63 -176 l 1
 6.33334 -170 52 -146 74 -104 c 0
 89.3334 -74.6667 96.6668 -31 96 27 c 2
 96 511 l 1
 155 511 l 1
 155 11 l 1xe8
171 666 m 256xf0
 171 652 166.5 640.833 157.5 632.5 c 0
 148.5 624.167 137 620 123 620 c 256
 109 620 97.8333 624.167 89.5 632.5 c 0
 81.1667 640.833 77 652 77 666 c 256
 77 680 81.1667 691.5 89.5 700.5 c 0
 97.8333 709.5 109 714 123 714 c 256
 137 714 148.5 709.5 157.5 700.5 c 0
 166.5 691.5 171 680 171 666 c 256xf0
EndSplineSet
EndChar

StartChar: k
Encoding: 107 107 76
Width: 475
VWidth: 1504
Flags: W
HStem: 0 6G<78 137 415.705 492> 499 20G<369.655 451>
VStem: 78 59<0 215 281 760>
DStem2: 137 281 190 266 0.732295 0.680988<0 28.5968 81.8258 348.078> 232 299 190 266 0.658684 -0.75242<0 368.655>
LayerCount: 2
Fore
SplineSet
492 2 m 1
 433 -15 l 1
 190 266 l 1
 137 215 l 1
 137 0 l 1
 78 0 l 1
 78 760 l 1
 137 760 l 1
 137 281 l 1
 391 519 l 1
 451 507 l 1
 232 299 l 1
 492 2 l 1
EndSplineSet
EndChar

StartChar: l
Encoding: 108 108 77
Width: 300
VWidth: 1504
Flags: W
HStem: -11 52<203.43 268>
VStem: 78 59<115.261 760>
LayerCount: 2
Fore
SplineSet
274 41 m 1
 268 -11 l 1
 141.333 -5 78 84.3333 78 257 c 2
 78 760 l 1
 137 760 l 1
 137 280 l 2
 137 206.667 143.333 153.333 156 120 c 0
 176.667 68.6666 216 42.3333 274 41 c 1
EndSplineSet
EndChar

StartChar: m
Encoding: 109 109 78
Width: 904
VWidth: 1504
Flags: W
HStem: 0 21G<78 137 423 481 767 826> 474 48<221.158 369.596 555.094 701.353> 491 20G<68 126.666>
VStem: 78 59<0 387.014 420 508.354> 423 58<0 398.176> 767 59<0 395.813>
CounterMasks: 1 1c
LayerCount: 2
Fore
SplineSet
826 0 m 1xdc
 767 0 l 1
 767 283 l 2
 767 341 755.167 387.333 731.5 422 c 0
 707.833 456.667 673.667 474 629 474 c 0
 589.667 474 555.167 458.667 525.5 428 c 0
 495.833 397.333 481 363 481 325 c 2
 481 0 l 1
 423 0 l 1
 423 310 l 2
 423 419.333 379.667 474 293 474 c 0xdc
 253 474 217 456.667 185 422 c 0
 153 387.333 137 350 137 310 c 2
 137 0 l 1
 78 0 l 1
 78 385 l 2
 78 412.333 74.6667 454.333 68 511 c 1
 123 511 l 1xbc
 130.333 489.667 134.333 459.333 135 420 c 1
 174.333 488 231.667 522 307 522 c 0
 376.333 522 428 484 462 408 c 1
 502 484 563 522 645 522 c 0
 701 522 745.167 500.667 777.5 458 c 0
 809.833 415.333 826 357.333 826 284 c 2
 826 0 l 1xdc
EndSplineSet
EndChar

StartChar: n
Encoding: 110 110 79
Width: 586
VWidth: 1504
Flags: W
HStem: 0 21G<78 137 450 508> 474 48<221.852 382.338> 491 20G<68 126.666>
VStem: 78 59<0 387.014 420 508.354> 450 58<0 402.125>
LayerCount: 2
Fore
SplineSet
508 0 m 1xd8
 450 0 l 1
 450 290 l 2
 450 412.667 398.667 474 296 474 c 0xd8
 254.667 474 217.833 456.667 185.5 422 c 0
 153.167 387.333 137 350 137 310 c 2
 137 0 l 1
 78 0 l 1
 78 385 l 2
 78 412.333 74.6667 454.333 68 511 c 1
 123 511 l 1xb8
 130.333 489.667 134.333 459.333 135 420 c 1
 174.333 488 232 522 308 522 c 0
 441.333 522 508 444.667 508 290 c 2
 508 0 l 1xd8
EndSplineSet
EndChar

StartChar: o
Encoding: 111 111 80
Width: 598
VWidth: 1504
Flags: W
HStem: -15 50<208.912 389.133> 472 50<207.699 390.971>
VStem: 42 57<150.773 357.071> 499 58<150.773 358.23>
LayerCount: 2
Fore
SplineSet
557 254 m 256
 557 178.667 533.333 115 486 63 c 0
 438.667 11 376.333 -15 299 -15 c 256
 221.667 -15 159.5 11 112.5 63 c 0
 65.5 115 42 178.667 42 254 c 256
 42 329.333 65.6667 392.833 113 444.5 c 0
 160.333 496.167 222.333 522 299 522 c 256
 376.334 522 438.667 496.167 486 444.5 c 0
 533.333 392.833 557 329.333 557 254 c 256
499 254 m 256
 499 316 480.333 367.833 443 409.5 c 0
 405.667 451.167 357.667 472 299 472 c 256
 241 472 193.167 451.167 155.5 409.5 c 0
 117.833 367.833 99 316 99 254 c 256
 99 192 117.833 140 155.5 98 c 0
 193.167 56 241 35 299 35 c 256
 357 35 404.833 56 442.5 98 c 0
 480.167 140 499 192 499 254 c 256
EndSplineSet
EndChar

StartChar: p
Encoding: 112 112 81
Width: 603
VWidth: 1504
Flags: W
HStem: -14 47<234.3 410.824> 472 50<225.216 409.563>
VStem: 78 59<-251 -251 128.355 388.164 418 506.778> 505 56<135.415 368.014>
LayerCount: 2
Fore
SplineSet
561 247 m 0
 561 171.667 541 110.333 501 63 c 0
 459 11.6667 402.333 -14 331 -14 c 0
 245.667 -14 181 22.3333 137 95 c 1
 137 -251 l 1
 78 -251 l 1
 78 384 l 2
 78 442 76.6667 483.333 74 508 c 1
 128 508 l 1
 130 482 131 452 131 418 c 1
 178.333 487.333 242 522 322 522 c 0
 395.333 522 453.5 496.667 496.5 446 c 0
 539.5 395.333 561 329 561 247 c 0
505 248 m 0
 505 318 488.833 372.833 456.5 412.5 c 0
 424.167 452.167 376.667 472 314 472 c 0
 264 472 222 456 188 424 c 0
 154 392 137 352 137 304 c 2
 137 218 l 2
 137 162.667 156.667 117.667 196 83 c 1
 231.333 49.6667 272.667 33 320 33 c 0
 378 33 424.333 53.6667 459 95 c 1
 489.667 133.667 505 184.667 505 248 c 0
EndSplineSet
EndChar

StartChar: q
Encoding: 113 113 82
Width: 603
VWidth: 1504
Flags: W
HStem: -14 47<223.852 400.641> 472 50<225.267 409.73>
VStem: 74 55<136.507 366.846> 498 59<-251 95 128.355 388.164 418 506.778>
LayerCount: 2
Fore
SplineSet
557 -251 m 1
 498 -251 l 1
 498 95 l 1
 454 23 389.333 -13.3333 304 -14 c 0
 232.667 -14 176 11.6667 134 63 c 0
 94 110.333 74 171.667 74 247 c 0
 74 329 95.5 395.333 138.5 446 c 0
 181.5 496.667 239.667 522 313 522 c 0
 393 522 456.667 487.333 504 418 c 1
 504 452 505 482 507 508 c 1
 561 508 l 1
 557.65 482.667 556.316 441.333 557 384 c 2
 557 -251 l 1
498 218 m 2
 498 304 l 2
 498 352 481 392 447 424 c 0
 413 456 370.667 472 320 472 c 0
 258 472 210.667 452.167 178 412.5 c 0
 145.333 372.833 129 318 129 248 c 0
 129 184.667 144.667 133.667 176 95 c 1
 210 53.6667 256 33 314 33 c 0
 362 33 403.667 49.6667 439 83 c 1
 478.333 117.667 498 162.667 498 218 c 2
EndSplineSet
EndChar

StartChar: r
Encoding: 114 114 83
Width: 326
VWidth: 1504
Flags: W
HStem: 0 21G<78 137> 471 51<218.189 313> 491 20G<63 118.667>
VStem: 78 59<0 375.278> 78 51<409 509.299>
LayerCount: 2
Fore
SplineSet
313 469 m 1xc8
 309.667 470.333 303.667 471 295 471 c 0xc8
 217.667 471 166.333 422.667 141 326 c 0
 137.666 314.667 136.332 297.667 137 275 c 2
 137 0 l 1
 78 0 l 1
 78 344 l 2
 78 419.333 73 475 63 511 c 1
 113 511 l 1xb0
 124.333 489 129.667 455 129 409 c 1
 161 484.333 212.667 522 284 522 c 0
 293.333 522 303 521 313 519 c 1
 313 469 l 1xc8
EndSplineSet
EndChar

StartChar: s
Encoding: 115 115 84
Width: 424
VWidth: 1504
Flags: W
HStem: -14 50<100.995 283.656> 475 47<150.856 313.174>
VStem: 63 56<339.67 443.427> 319 54<69.3218 186.451>
LayerCount: 2
Fore
SplineSet
373 135 m 0
 373 91.6666 356.667 56 324 28 c 0
 291.333 0 246 -14 188 -14 c 0
 138 -14 90 -0.333334 44 27 c 1
 66 75 l 1
 114 49 156.333 36 193 36 c 0
 277 36 319 67.6667 319 131 c 0
 319 180.333 279.333 217 200 241 c 0
 108.667 269 63 315 63 379 c 0
 63 418.333 77.8333 452 107.5 480 c 0
 137.167 508 178.667 522 232 522 c 256
 285.333 522 327.333 510.333 358 487 c 1
 334 439 l 1
 304 463 266.333 475 221 475 c 0
 189 475 164 466.5 146 449.5 c 0
 128 432.5 119 411.667 119 387 c 0
 119 347 158 313.333 236 286 c 0
 327.333 254.667 373 204.333 373 135 c 0
EndSplineSet
EndChar

StartChar: t
Encoding: 116 116 85
Width: 357
VWidth: 1504
Flags: W
HStem: -14 52<194.766 317.21> 465 46<9 111 170 334>
VStem: 111 59<63.4584 465 511 663>
LayerCount: 2
Fore
SplineSet
316 47 m 1
 322 0 l 1
 302 -9.33333 275.333 -14 242 -14 c 0
 198 -14 164.333 3.33333 141 38 c 0
 121 68 111 105.333 111 150 c 2
 111 465 l 1
 9 465 l 1
 9 511 l 1
 111 511 l 1
 111 663 l 1
 170 690 l 1
 170 511 l 1
 334 511 l 1
 334 465 l 1
 170 465 l 1
 170 152 l 2
 170 76 195.667 38 247 38 c 0
 277.667 38 300.667 41 316 47 c 1
EndSplineSet
EndChar

StartChar: u
Encoding: 117 117 86
Width: 586
VWidth: 1504
Flags: W
HStem: -14 52<199.382 361.502> 491 20G<78 137 450 508>
VStem: 78 59<114.355 511> 450 58<121.467 511> 478 56<0.375 73.6386>
LayerCount: 2
Fore
SplineSet
534 2 m 1xe8
 478 -11 l 1xe8
 466 23 458 56.3333 454 89 c 1
 410 21 346 -13.3333 262 -14 c 0
 139.333 -14 78 65.3333 78 224 c 2
 78 511 l 1
 137 511 l 1
 137 235 l 2
 137 103.667 183 38 275 38 c 0
 318.334 38 357.667 52 393 80 c 1
 431 112 450 152.667 450 202 c 2
 450 511 l 1
 508 511 l 1
 508 125 l 2xf0
 508 88.3333 516.667 47.3333 534 2 c 1xe8
EndSplineSet
EndChar

StartChar: v
Encoding: 118 118 87
Width: 512
VWidth: 1504
Flags: W
HStem: 0 21G<217.35 287.002> 491 20G<5 73.4375 439.339 508>
DStem2: 65 511 5 511 0.396952 -0.917839<0 486.216> 254 63 278 0 0.410439 0.911888<0 488.151>
LayerCount: 2
Fore
SplineSet
508 511 m 1
 278 0 l 1
 226 0 l 1
 5 511 l 1
 65 511 l 1
 254 63 l 1
 448 511 l 1
 508 511 l 1
EndSplineSet
EndChar

StartChar: w
Encoding: 119 119 88
Width: 762
VWidth: 1504
Flags: W
HStem: 0 21G<164.503 232.874 521.481 586.202> 491 20G<5 72.1538 348.077 417.516 697.258 763>
DStem2: 66 511 5 511 0.30896 -0.951075<0 462.394> 202 69 226 0 0.325021 0.945707<0 419.439> 411 511 381 451 0.309896 -0.95077<47.7493 464.866> 555 69 579 0 0.338785 0.940864<0 466.341>
LayerCount: 2
Fore
SplineSet
763 511 m 1
 579 0 l 1
 528 0 l 1
 381 451 l 1
 226 0 l 1
 171 0 l 1
 5 511 l 1
 66 511 l 1
 202 69 l 1
 355 511 l 1
 411 511 l 1
 555 69 l 1
 704 511 l 1
 763 511 l 1
EndSplineSet
EndChar

StartChar: x
Encoding: 120 120 89
Width: 478
VWidth: 1504
Flags: W
HStem: 0 21G<0 83.3846 393.525 478> 491 20G<14 95.6522 387.444 468>
DStem2: 0 0 68 0 0.619246 0.785197<42.1087 320.909 388.557 650.792> 80 511 14 511 0.614475 -0.788936<0 262.855 325.879 605.309>
LayerCount: 2
Fore
SplineSet
478 0 m 1
 409 0 l 1
 238 221 l 1
 68 0 l 1
 0 0 l 1
 208 260 l 1
 14 511 l 1
 80 511 l 1
 242 304 l 1
 403 511 l 1
 468 511 l 1
 272 262 l 1
 478 0 l 1
EndSplineSet
EndChar

StartChar: y
Encoding: 121 121 90
Width: 506
VWidth: 1504
Flags: W
HStem: -235 47<38.9149 81.1961> 491 20G<5 76.8222 429.732 502>
DStem2: 68 511 5 511 0.406851 -0.913495<0 473.252> 259 78 277 0 0.402979 0.915209<0 468.419>
LayerCount: 2
Fore
SplineSet
277 0 m 2
 217.667 -133.333 139 -211.667 41 -235 c 1
 27 -188 l 1
 112.333 -168.667 177 -100.333 221 17 c 1
 221 20.3333 219.667 26.3333 217 35 c 2
 5 511 l 1
 68 511 l 1
 259 78 l 1
 438 511 l 1
 502 511 l 1
 277 0 l 2
EndSplineSet
EndChar

StartChar: z
Encoding: 122 122 91
Width: 482
VWidth: 1504
Flags: W
HStem: 0 48<96 453> 463 48<50 384>
DStem2: 23 36 96 48 0.645621 0.763658<56.2943 559.151>
LayerCount: 2
Fore
SplineSet
453 0 m 1
 23 0 l 1
 23 36 l 1
 384 463 l 1
 41 463 l 1
 50 511 l 1
 457 511 l 1
 456 471 l 1
 96 48 l 1
 465 48 l 1
 453 0 l 1
EndSplineSet
EndChar

StartChar: braceleft
Encoding: 123 123 92
Width: 312
VWidth: 1504
Flags: HW
LayerCount: 2
Fore
SplineSet
271 -71 m 1
 271 -116 l 1
 254 -116 l 2
 146 -116 92 -68.3333 92 27 c 0
 92 46.3333 95.5 75.6667 102.5 115 c 128
 109.5 154.333 113 184.333 113 205 c 0
 113 255 82 281 20 283 c 1
 20 328 l 1
 82 330 113 356 113 406 c 0
 113 426 109.5 455.833 102.5 495.5 c 128
 95.5 535.167 92 564.667 92 584 c 0
 92 679.333 146 727 254 727 c 2
 271 727 l 1
 271 681 l 1
 248 681 l 2
 178.667 681 144 646.667 144 578 c 1
 158 476.667 165 421 165 411 c 0
 165 359.667 145 324.333 105 305 c 1
 145 285.667 165 250.667 165 200 c 0
 165 190 158 134.333 144 33 c 1
 144 -36.3333 178.667 -71 248 -71 c 2
 271 -71 l 1
EndSplineSet
EndChar

StartChar: bar
Encoding: 124 124 93
Width: 230
VWidth: 1504
Flags: HW
LayerCount: 2
Fore
SplineSet
140 794 m 1
 140 -262 l 1
 90 -262 l 1
 90 794 l 1
 140 794 l 1
EndSplineSet
EndChar

StartChar: braceright
Encoding: 125 125 94
Width: 312
VWidth: 1504
Flags: HW
LayerCount: 2
Fore
SplineSet
42 -116 m 1
 42 -71 l 1
 65 -71 l 2
 134.333 -71 168.667 -36.3333 168 33 c 1
 154 134.333 147 190 147 200 c 0
 147 251.333 167.333 286.333 208 305 c 1
 168 324.334 147.667 359.667 147 411 c 0
 147 421 154 476.667 168 578 c 1
 168 647.333 133.667 681.667 65 681 c 2
 42 681 l 1
 42 727 l 1
 59 727 l 2
 167 727 221 679.333 221 584 c 0
 221 564.667 217.5 535.167 210.5 495.5 c 128
 203.5 455.833 200 426 200 406 c 0
 200 356 231 330 293 328 c 1
 293 283 l 1
 231 281 200 255 200 205 c 0
 200 185 203.5 155.167 210.5 115.5 c 128
 217.5 75.8333 221 46.3333 221 27 c 0
 221 -68.3333 167 -116 59 -116 c 2
 42 -116 l 1
EndSplineSet
EndChar

StartChar: asciitilde
Encoding: 126 126 95
Width: 625
VWidth: 1504
Flags: HW
LayerCount: 2
Fore
SplineSet
585 375 m 1
 585 366 l 2
 585 320 572.667 284.333 548 259 c 0
 526.666 237.667 499.999 227 468 227 c 0
 428.667 227 376.167 243.333 310.5 276 c 128
 244.833 308.667 194.333 325 159 325 c 0
 111.667 325 87.3333 292.333 86 227 c 1
 39 227 l 1
 39 239 l 2
 39 281 50.8333 314.167 74.5 338.5 c 128
 98.1667 362.833 126.333 375 159 375 c 0
 197 375 249.5 359.167 316.5 327.5 c 128
 383.5 295.833 435 280 471 280 c 0
 514.333 280 537 311.667 539 375 c 1
 585 375 l 1
EndSplineSet
EndChar

StartChar: uni0E4E.alt1
Encoding: 65540 -1 99
Width: 0
VWidth: 1504
Flags: HW
LayerCount: 2
Fore
SplineSet
-184 999 m 1
 -197 961 l 1
 -214.333 966.333 -233 969 -253 969 c 0
 -299 969 -322 953.333 -322 922 c 0
 -322 888.667 -297 869 -247 863 c 1
 -260 829 l 1
 -272 833 -284 835 -296 835 c 0
 -324 835 -346.833 828.667 -364.5 816 c 128
 -382.167 803.333 -391 789.667 -391 775 c 0
 -391 747.667 -368.333 734 -323 734 c 0
 -309.667 734 -293.667 738 -275 746 c 1
 -274 708 l 1
 -293.333 700 -316.333 696 -343 696 c 0
 -368.333 696 -390 703.333 -408 718 c 128
 -426 732.667 -435 752 -435 776 c 0
 -435 801.333 -425 822.5 -405 839.5 c 128
 -385 856.5 -362.333 865 -337 865 c 1
 -357 878.333 -367 897.333 -367 922 c 0
 -367 980 -328.333 1009 -251 1009 c 0
 -224.333 1009.66 -202 1006.33 -184 999 c 1
EndSplineSet
EndChar

StartChar: exclamdown
Encoding: 161 161 100
Width: 227
VWidth: 1504
Flags: HW
LayerCount: 2
Fore
SplineSet
153 -211 m 1
 71 -211 l 1
 86 313 l 1
 138 313 l 1
 153 -211 l 1
168 457 m 256
 168 441.667 162.5 428.667 151.5 418 c 128
 140.5 407.333 127.667 402 113 402 c 256
 97.6667 402 84.5 407.5 73.5 418.5 c 128
 62.5 429.5 57 442.333 57 457 c 256
 57 472.333 62.5 485.5 73.5 496.5 c 128
 84.5 507.5 97.6667 513 113 513 c 256
 128.333 513 141.333 507.5 152 496.5 c 128
 162.667 485.5 168 472.333 168 457 c 256
EndSplineSet
EndChar

StartChar: cent
Encoding: 162 162 101
Width: 618
VWidth: 1504
Flags: HW
LayerCount: 2
Fore
SplineSet
569 72 m 1
 521 46 455.333 33 372 33 c 2
 364 33 l 1
 364 -89 l 1
 314 -89 l 1
 314 36 l 1
 238 47.3333 176 78 128 128 c 0
 74.6667 183.333 48 260 48 358 c 0
 48 441.334 70 510.667 114 566 c 0
 162 626 228.667 663.333 314 678 c 1
 314 815 l 1
 364 815 l 1
 364 684 l 1
 371.333 685.333 382 686 396 686 c 0
 456 686 512 676.333 564 657 c 1
 552 603 l 1
 506.667 626.333 455.667 638 399 638 c 0
 307 638 235.333 613.667 184 565 c 128
 132.667 516.333 107 446.333 107 355 c 0
 107 269 130.333 203.333 177 158 c 0
 227 110 298 86 390 86 c 0
 453.333 86 507 96 551 116 c 1
 569 72 l 1
EndSplineSet
EndChar

StartChar: sterling
Encoding: 163 163 102
Width: 618
VWidth: 1504
Flags: HW
LayerCount: 2
Fore
SplineSet
531 0 m 1
 86 0 l 1
 86 38 l 1
 171.333 90 214 156.667 214 238 c 0
 214 261.333 211.333 290.333 206 325 c 1
 87 325 l 1
 87 372 l 1
 202 372 l 1
 194 420 190 460.333 190 493 c 0
 190 626.333 254 693 382 693 c 0
 423.333 693 465 683 507 663 c 1
 489 620 l 1
 449 636 412.333 644 379 644 c 0
 287.667 644 242 593.333 242 492 c 0
 242 454.667 246.667 414.667 256 372 c 1
 426 372 l 1
 426 325 l 1
 262 325 l 1
 266 301.667 268 276 268 248 c 0
 268 164 241 98 187 50 c 1
 531 50 l 1
 531 0 l 1
EndSplineSet
EndChar

StartChar: currency
Encoding: 164 164 103
Width: 618
VWidth: 1504
Flags: HW
LayerCount: 2
Fore
SplineSet
582 338 m 0
 582 272 563 216.333 525 171 c 1
 585 110 l 1
 542 65 l 1
 478 128 l 1
 432 86 375 65 307 65 c 0
 241.667 65 185 86 137 128 c 1
 77 65 l 1
 33 110 l 1
 92 171 l 1
 52.6667 219 33 274.667 33 338 c 0
 33 402 52.6667 459.333 92 510 c 1
 33 570 l 1
 77 617 l 1
 137 554 l 1
 189 595.333 245.667 615.667 307 615 c 0
 371 615 428 594.667 478 554 c 1
 543 617 l 1
 585 570 l 1
 525 510 l 1
 563 465.333 582 408 582 338 c 0
522 338 m 0
 522 398 501.167 450.5 459.5 495.5 c 128
 417.833 540.5 367 563 307 563 c 0
 249 563 198.667 540.833 156 496.5 c 128
 113.333 452.167 92 399.333 92 338 c 256
 92 276.667 113.333 224.833 156 182.5 c 128
 198.667 140.167 249 119 307 119 c 0
 367 119 417.833 140.667 459.5 184 c 128
 501.167 227.333 522 278.667 522 338 c 0
EndSplineSet
EndChar

StartChar: yen
Encoding: 165 165 104
Width: 618
VWidth: 1504
Flags: HW
LayerCount: 2
Fore
SplineSet
519 143 m 1
 337 143 l 1
 337 29 l 1
 281 29 l 1
 281 143 l 1
 101 143 l 1
 101 187 l 1
 281 187 l 1
 281 272 l 1
 101 272 l 1
 101 316 l 1
 281 316 l 1
 51 690 l 1
 120 690 l 1
 308 373 l 1
 496 690 l 1
 567 690 l 1
 337 317 l 1
 519 317 l 1
 519 272 l 1
 337 272 l 1
 337 187 l 1
 519 187 l 1
 519 143 l 1
EndSplineSet
EndChar

StartChar: brokenbar
Encoding: 166 166 105
Width: 230
VWidth: 1504
Flags: HW
LayerCount: 2
Fore
SplineSet
140 341 m 1
 90 341 l 1
 90 714 l 1
 140 714 l 1
 140 341 l 1
140 -185 m 1
 90 -185 l 1
 90 190 l 1
 140 190 l 1
 140 -185 l 1
EndSplineSet
EndChar

StartChar: section
Encoding: 167 167 106
Width: 562
VWidth: 1504
Flags: HW
LayerCount: 2
Fore
SplineSet
453 98 m 0
 453 50 434.833 11.8333 398.5 -16.5 c 128
 362.167 -44.8333 317 -59 263 -59 c 0
 199.667 -59 148 -42.3333 108 -9 c 1
 132 33 l 1
 165.333 1.66667 210 -14 266 -14 c 0
 307.333 -14 340.333 -4.33333 365 15 c 128
 389.667 34.3333 402 59.3333 402 90 c 0
 402 133.333 374.333 167.667 319 193 c 1
 267.667 213 216.333 233.333 165 254 c 1
 109.667 282 82.3333 322.333 83 375 c 0
 83 419 105.333 459 150 495 c 1
 126.667 518.333 115.333 545.333 116 576 c 0
 116 619.333 132.833 654.333 166.5 681 c 128
 200.167 707.667 243.333 721 296 721 c 256
 349.333 721 398 707.667 442 681 c 1
 417 638 l 1
 381.667 664 339 677 289 677 c 0
 255 677 226.667 668.167 204 650.5 c 128
 181.333 632.833 170 611 170 585 c 0
 170 557.667 184.667 535 214 517 c 0
 233.333 505 268.667 490 320 472 c 0
 426 436 479.333 384.333 480 317 c 0
 480 271 459 228 417 188 c 1
 441 164 453 134 453 98 c 0
424 310 m 0
 424 330 413.5 350.333 392.5 371 c 128
 371.5 391.667 344 408 310 420 c 0
 250 440 208.333 457 185 471 c 1
 151 441.667 134 410.667 134 378 c 0
 134 350 151.667 325.333 187 304 c 0
 208.333 290.667 244.333 275 295 257 c 0
 342.333 239.666 372.333 226.333 385 217 c 1
 411 247.667 424 278.667 424 310 c 0
EndSplineSet
EndChar

StartChar: dieresis
Encoding: 168 168 107
Width: 318
VWidth: 1504
Flags: HW
LayerCount: 2
Fore
SplineSet
113 635 m 256
 113 621.664 108.5 610.831 99.5 602.5 c 128
 90.5 594.167 79.3333 590 66 590 c 256
 52.6667 590 41.8333 594.167 33.5 602.5 c 128
 25.1667 610.833 21 621.667 21 635 c 256
 21 648.333 25.3333 659.333 34 668 c 128
 42.6667 676.667 53.3333 681 66 681 c 256
 79.3333 681 90.5 676.667 99.5 668 c 128
 108.5 659.333 113 648.333 113 635 c 256
299 635 m 256
 299 621.664 294.5 610.831 285.5 602.5 c 128
 276.5 594.167 265.667 590 253 590 c 256
 239.666 590 228.833 594.167 220.5 602.5 c 128
 212.167 610.833 208 621.667 208 635 c 256
 208 648.333 212.167 659.333 220.5 668 c 128
 228.833 676.667 239.667 681 253 681 c 256
 266.333 681 277.333 676.667 286 668 c 128
 294.667 659.333 299 648.333 299 635 c 256
EndSplineSet
EndChar

StartChar: copyright
Encoding: 169 169 108
Width: 806
VWidth: 1504
Flags: HW
LayerCount: 2
Fore
SplineSet
557 176 m 1
 519 146.667 466.333 132 399 132 c 0
 333.667 132 281.5 153.167 242.5 195.5 c 128
 203.5 237.833 184 289.333 184 350 c 0
 184 420 204.5 475.5 245.5 516.5 c 128
 286.5 557.5 340 578 406 578 c 0
 469.333 578 517 566 549 542 c 1
 531 496 l 1
 493 518 451.333 529 406 529 c 1
 298 523 244 466 244 358 c 0
 244 248.667 298.667 191 408 185 c 1
 459.333 185 502.333 197.667 537 223 c 1
 557 176 l 1
769 361 m 256
 769 261 733.167 175 661.5 103 c 128
 589.833 31 503.667 -5 403 -5 c 256
 303 -5 217.167 31 145.5 103 c 128
 73.8333 175 38 261 38 361 c 256
 38 461 73.8333 547 145.5 619 c 128
 217.167 691 303 727 403 727 c 256
 503 727 589 691 661 619 c 128
 733 547 769 461 769 361 c 256
714 361 m 256
 714 447 683.667 520.334 623 581 c 128
 562.333 641.667 489 672 403 672 c 256
 317 672 243.667 641.667 183 581 c 128
 122.333 520.333 92 447 92 361 c 256
 92 275 122.333 201.667 183 141 c 128
 243.667 80.3333 317 50 403 50 c 256
 489 50 562.333 80.3333 623 141 c 128
 683.667 201.667 714 275 714 361 c 256
EndSplineSet
EndChar

StartChar: ordfeminine
Encoding: 170 170 109
Width: 370
VWidth: 1504
Flags: HW
LayerCount: 2
Fore
SplineSet
319 372 m 1
 272 372 l 1
 265 421 l 1
 237 385 199.333 367 152 367 c 0
 74.6667 367 36 401 36 469 c 0
 36 547 111.333 587.333 262 590 c 1
 262 600 l 2
 262 614 258 627.667 250 641 c 0
 234 664.333 208.333 675.667 173 675 c 0
 139 675 108 664.667 80 644 c 1
 63 681 l 1
 100.333 707 140.667 720.333 184 721 c 0
 271.333 721 314.667 667.333 314 560 c 2
 314 459 l 2
 314 430.333 315.667 401.333 319 372 c 1
262 484 m 2
 262 548 l 1
 146.667 548 89 521.667 89 469 c 0
 89 431 113 412 161 412 c 0
 180.333 412 202 419.167 226 433.5 c 128
 250 447.834 262 464.668 262 484 c 2
EndSplineSet
EndChar

StartChar: guillemotleft
Encoding: 171 171 110
Width: 448
VWidth: 1504
Flags: HW
LayerCount: 2
Fore
SplineSet
350 72 m 1
 184 266 l 1
 349 465 l 1
 412 465 l 1
 247 266 l 1
 414 72 l 1
 350 72 l 1
184 72 m 1
 17 266 l 1
 182 465 l 1
 245 465 l 1
 80 266 l 1
 247 72 l 1
 184 72 l 1
EndSplineSet
EndChar

StartChar: logicalnot
Encoding: 172 172 111
Width: 631
VWidth: 1504
Flags: HW
LayerCount: 2
Fore
SplineSet
582 137 m 1
 523 137 l 1
 523 360 l 1
 35 360 l 1
 35 409 l 1
 582 409 l 1
 582 137 l 1
EndSplineSet
EndChar

StartChar: registered
Encoding: 174 174 112
Width: 806
VWidth: 1504
Flags: HW
LayerCount: 2
Fore
SplineSet
769 361 m 256
 769 261 733.167 175 661.5 103 c 128
 589.833 31 503.667 -5 403 -5 c 256
 303 -5 217.167 31 145.5 103 c 128
 73.8333 175 38 261 38 361 c 256
 38 461 73.8333 547 145.5 619 c 128
 217.167 691 303 727 403 727 c 256
 503 727 589 691 661 619 c 128
 733 547 769 461 769 361 c 256
714 361 m 256
 714 447 683.667 520.334 623 581 c 128
 562.333 641.667 489 672 403 672 c 256
 317 672 243.667 641.667 183 581 c 128
 122.333 520.333 92 447 92 361 c 256
 92 275 122.333 201.667 183 141 c 128
 243.667 80.3333 317 50 403 50 c 256
 489 50 562.333 80.3333 623 141 c 128
 683.667 201.667 714 275 714 361 c 256
572 140 m 1
 513 140 l 1
 495 267.333 462.333 331 415 331 c 2
 323 331 l 1
 323 140 l 1
 263 140 l 1
 263 578 l 1
 299 585.333 340.667 589.333 388 590 c 1
 441.333 590 482.833 578.667 512.5 556 c 128
 542.167 533.333 557 502.333 557 463 c 0
 557 411 536.333 374 495 352 c 1
 534.333 316.667 560 246 572 140 c 1
498 456 m 0
 498 510 463.333 537 394 537 c 0
 366.667 537 343 535.333 323 532 c 1
 323 387 l 1
 405 387 l 2
 433 387 455.5 393 472.5 405 c 128
 489.5 417 498 434 498 456 c 0
EndSplineSet
EndChar

StartChar: macron
Encoding: 175 175 113
Width: 529
VWidth: 1504
Flags: HW
LayerCount: 2
Fore
SplineSet
529 841 m 1
 529 794 l 1
 0 794 l 1
 0 841 l 1
 529 841 l 1
EndSplineSet
EndChar

StartChar: degree
Encoding: 176 176 114
Width: 318
VWidth: 1504
Flags: HW
LayerCount: 2
Fore
SplineSet
287 597 m 256
 287 561.667 274.333 531.5 249 506.5 c 128
 223.667 481.5 193.333 469 158 469 c 256
 122.667 469 92.5 481.667 67.5 507 c 128
 42.5 532.333 30 562.333 30 597 c 256
 30 632.333 42.5 662.833 67.5 688.5 c 128
 92.5 714.167 122.667 727 158 727 c 256
 193.333 727 223.667 714.167 249 688.5 c 128
 274.333 662.833 287 632.333 287 597 c 256
242 597 m 256
 242 620.333 233.833 640.5 217.5 657.5 c 128
 201.167 674.5 181.333 683 158 683 c 256
 134.667 683 115 674.5 99 657.5 c 128
 83 640.5 75 620.333 75 597 c 256
 75 573.664 83 553.831 99 537.5 c 128
 115 521.167 134.667 513 158 513 c 256
 181.333 513 201.167 521.167 217.5 537.5 c 128
 233.833 553.833 242 573.667 242 597 c 256
EndSplineSet
EndChar

StartChar: plusminus
Encoding: 177 177 115
Width: 618
VWidth: 1504
Flags: HW
LayerCount: 2
Fore
SplineSet
561 302 m 1
 335 302 l 1
 335 102 l 1
 283 102 l 1
 283 302 l 1
 57 302 l 1
 57 350 l 1
 283 350 l 1
 283 537 l 1
 335 537 l 1
 335 350 l 1
 561 350 l 1
 561 302 l 1
561 0 m 1
 57 0 l 1
 57 48 l 1
 561 48 l 1
 561 0 l 1
EndSplineSet
EndChar

StartChar: twosuperior
Encoding: 178 178 116
Width: 382
VWidth: 1504
Flags: HW
LayerCount: 2
Fore
SplineSet
316 341 m 1
 310 295 l 1
 38 295 l 1
 40 336.333 74.3333 389 141 453 c 0
 168.333 478.333 194.833 504.5 220.5 531.5 c 128
 246.167 558.5 259 585.333 259 612 c 0
 259 655.333 237.333 677 194 677 c 0
 146 677 119.333 649.333 114 594 c 1
 63 603 l 1
 67 641 80.5 670.667 103.5 692 c 128
 126.5 713.333 155.333 724 190 724 c 0
 225.333 724 254.167 713.833 276.5 693.5 c 128
 298.833 673.167 310 646 310 612 c 0
 310 570.667 283 522 229 466 c 0
 189 424 148.333 382.333 107 341 c 1
 316 341 l 1
EndSplineSet
EndChar

StartChar: threesuperior
Encoding: 179 179 117
Width: 382
VWidth: 1504
Flags: HW
LayerCount: 2
Fore
SplineSet
323 448 m 0
 323 402 308 365.167 278 337.5 c 128
 248 309.833 208.333 295.666 159 295 c 0
 115 293.667 79.6667 303.667 53 325 c 1
 75 373 l 1
 98.3333 353.667 125 344 155 344 c 0
 192.333 344 221.5 353.667 242.5 373 c 128
 263.5 392.333 274 417 274 447 c 0
 274 491 253 513 211 513 c 0
 183 513 160.667 506 144 492 c 1
 123 529 l 1
 173 564.333 201.333 584.667 208 590 c 0
 231.333 609.333 242.667 627.667 242 645 c 0
 242 665 225.667 675 193 675 c 0
 151.667 675 122.333 653 105 609 c 1
 62 632 l 1
 89.3334 694 134.333 725 197 725 c 256
 260.333 725 292 699 292 647 c 0
 292 629 285 610.5 271 591.5 c 128
 257 572.5 241.333 559.333 224 552 c 1
 290 548 323 513.333 323 448 c 0
EndSplineSet
EndChar

StartChar: acute
Encoding: 180 180 118
Width: 318
VWidth: 1504
Flags: HW
LayerCount: 2
Fore
SplineSet
128 794 m 1
 81 794 l 1
 156 931 l 1
 232 931 l 1
 128 794 l 1
EndSplineSet
EndChar

StartChar: mu
Encoding: 181 181 119
Width: 610
VWidth: 1504
Flags: HW
LayerCount: 2
Fore
SplineSet
539 0 m 1
 483 0 l 1
 477.667 28 475 54 475 78 c 2
 475 95 l 1
 417.667 23 353.667 -13.3333 283 -14 c 0
 225 -14 178.333 11.6667 143 63 c 1
 143 -211 l 1
 86 -211 l 1
 86 511 l 1
 143 511 l 1
 143 220 l 2
 143 98.6667 194 38 296 38 c 0
 340 38 380.167 54.6667 416.5 88 c 128
 452.833 121.333 471 158.667 471 200 c 2
 471 511 l 1
 528 511 l 1
 528 125 l 2
 528 63 531.667 21.3333 539 0 c 1
EndSplineSet
EndChar

StartChar: paragraph
Encoding: 182 182 120
Width: 562
VWidth: 1504
Flags: HW
LayerCount: 2
Fore
SplineSet
483 -95 m 1
 432 -95 l 1
 432 666 l 1
 360 666 l 1
 360 -95 l 1
 307 -95 l 1
 307 271 l 1
 301 271 l 2
 241 271 188.667 288.333 144 323 c 0
 92.6667 363 67.3333 416.333 68 483 c 0
 68 637.667 167.333 714.667 366 714 c 0
 419.333 714 458.333 711.667 483 707 c 1
 483 -95 l 1
EndSplineSet
EndChar

StartChar: periodcentered
Encoding: 183 183 121
Width: 243
VWidth: 1504
Flags: HW
LayerCount: 2
Fore
SplineSet
173 272 m 256
 173 258 167.667 246 157 236 c 128
 146.333 226 134 221 120 221 c 256
 106 221 94 226 84 236 c 128
 74 246 69 258 69 272 c 256
 69 286 74 298.333 84 309 c 128
 94 319.667 106 325 120 325 c 256
 134 325 146.333 319.667 157 309 c 128
 167.667 298.333 173 286 173 272 c 256
EndSplineSet
EndChar

StartChar: cedilla
Encoding: 184 184 122
Width: 318
VWidth: 1504
Flags: HW
LayerCount: 2
Fore
SplineSet
230 -122 m 0
 230 -180 195 -209 125 -209 c 0
 101 -209 77 -202.667 53 -190 c 1
 68 -156 l 1
 89.3334 -166 108.667 -171 126 -171 c 0
 164 -171 183.333 -157 184 -129 c 0
 184 -103.667 152.333 -88.6667 89 -84 c 1
 147 6 l 1
 196 6 l 1
 155 -51 l 1
 205 -63 230 -86.6666 230 -122 c 0
EndSplineSet
EndChar

StartChar: onesuperior
Encoding: 185 185 123
Width: 382
VWidth: 1504
Flags: HW
LayerCount: 2
Fore
SplineSet
292 302 m 1
 108 302 l 1
 108 338 l 1
 174 338 l 1
 174 647 l 1
 117 597 l 1
 89 633 l 1
 196 728 l 1
 217.333 726 227.667 712 227 686 c 2
 227 338 l 1
 292 338 l 1
 292 302 l 1
EndSplineSet
EndChar

StartChar: ordmasculine
Encoding: 186 186 124
Width: 428
VWidth: 1504
Flags: HW
LayerCount: 2
Fore
SplineSet
399 542 m 0
 399 492 380.333 448.833 343 412.5 c 128
 305.667 376.167 262.667 358 214 358 c 0
 164 358 120.833 376 84.5 412 c 128
 48.1667 448 30 491.333 30 542 c 0
 30 591.333 48 634.5 84 671.5 c 128
 120 708.5 163.333 727 214 727 c 0
 263.333 727 306.5 708.5 343.5 671.5 c 128
 380.5 634.5 399 591.333 399 542 c 0
346 542 m 256
 346 578 333 609 307 635 c 128
 281 661 250 674 214 674 c 256
 178 674 147.167 661 121.5 635 c 128
 95.8333 609 83 578 83 542 c 256
 83 506 95.6667 475.167 121 449.5 c 128
 146.333 423.833 177.333 411 214 411 c 256
 250 411 281 423.833 307 449.5 c 128
 333 475.167 346 506 346 542 c 256
EndSplineSet
EndChar

StartChar: guillemotright
Encoding: 187 187 125
Width: 442
VWidth: 1504
Flags: HW
LayerCount: 2
Fore
SplineSet
92 72 m 1
 29 72 l 1
 196 266 l 1
 30 465 l 1
 93 465 l 1
 259 266 l 1
 92 72 l 1
259 72 m 1
 196 72 l 1
 363 266 l 1
 197 465 l 1
 260 465 l 1
 426 266 l 1
 259 72 l 1
EndSplineSet
EndChar

StartChar: onequarter
Encoding: 188 188 126
Width: 806
VWidth: 1504
Flags: HW
LayerCount: 2
Fore
SplineSet
636 143 m 1
 636 366 l 1
 608 342 582.667 305.667 560 257 c 0
 538 213 525.667 175 523 143 c 1
 636 143 l 1
752 93 m 1
 689 93 l 1
 689 0 l 1
 636 0 l 1
 636 93 l 1
 468 93 l 1
 469.333 160.333 488.333 229 525 299 c 0
 569 384.333 623.667 428 689 430 c 1
 689 143 l 1
 755 143 l 1
 752 93 l 1
220 -14 m 1
 170 -14 l 1
 597 702 l 1
 647 702 l 1
 220 -14 l 1
248 280 m 1
 65 280 l 1
 65 316 l 1
 131 316 l 1
 131 618 l 1
 74 569 l 1
 45 605 l 1
 152 699 l 1
 173.333 697 184 683 184 657 c 2
 184 316 l 1
 248 316 l 1
 248 280 l 1
EndSplineSet
Ligature2: "'frac' Diagonal Fractions in Latin lookup 0 subtable" one fraction four
Ligature2: "'frac' Diagonal Fractions in Latin lookup 0 subtable" one slash four
EndChar

StartChar: onehalf
Encoding: 189 189 127
Width: 806
VWidth: 1504
Flags: HW
LayerCount: 2
Fore
SplineSet
220 -14 m 1
 170 -14 l 1
 597 702 l 1
 647 702 l 1
 220 -14 l 1
248 280 m 1
 65 280 l 1
 65 316 l 1
 131 316 l 1
 131 618 l 1
 74 569 l 1
 45 605 l 1
 152 699 l 1
 173.333 697 184 683 184 657 c 2
 184 316 l 1
 248 316 l 1
 248 280 l 1
761 0 m 1
 489 0 l 1
 491 41.3333 525.667 94 593 158 c 0
 620.333 183.333 646.667 209.5 672 236.5 c 128
 697.333 263.5 710 290.333 710 317 c 0
 710 360.333 688.333 382 645 382 c 0
 597 382 570.667 354.333 566 299 c 1
 514 308 l 1
 518 346 531.667 375.667 555 397 c 128
 578.333 418.333 607 429 641 429 c 0
 677 429 706.333 419.167 729 399.5 c 128
 751.667 379.833 763 352.333 763 317 c 0
 763 275.667 735.667 227 681 171 c 0
 639.667 129 600.667 87.6667 564 47 c 1
 767 47 l 1
 761 0 l 1
EndSplineSet
Ligature2: "'frac' Diagonal Fractions in Latin lookup 0 subtable" one fraction two
Ligature2: "'frac' Diagonal Fractions in Latin lookup 0 subtable" one slash two
EndChar

StartChar: threequarters
Encoding: 190 190 128
Width: 806
VWidth: 1504
Flags: HW
LayerCount: 2
Fore
SplineSet
220 -14 m 1
 170 -14 l 1
 597 702 l 1
 647 702 l 1
 220 -14 l 1
323 430 m 0
 323 384 308 347.167 278 319.5 c 128
 248 291.832 208.333 277.666 159 277 c 0
 115 275.667 79.6667 285.667 53 307 c 1
 75 355 l 1
 98.3333 335.667 125 326 155 326 c 0
 192.333 326 221.5 335.667 242.5 355 c 128
 263.5 374.333 274 399 274 429 c 0
 274 473 253 495 211 495 c 0
 183 495 160.667 488 144 474 c 1
 123 511 l 1
 173 546.333 201.333 566.667 208 572 c 0
 231.333 591.333 242.667 609.667 242 627 c 0
 242 647 225.667 657 193 657 c 0
 147.667 657 118.333 635 105 591 c 1
 62 614 l 1
 89.3334 676 134.333 707 197 707 c 256
 260.333 707 292 681 292 629 c 0
 292 611 285 592.5 271 573.5 c 128
 257 554.5 241.333 541.333 224 534 c 1
 290 524 323 489.333 323 430 c 0
636 143 m 1
 636 366 l 1
 608 342 582.667 305.667 560 257 c 0
 538 213 525.667 175 523 143 c 1
 636 143 l 1
752 93 m 1
 689 93 l 1
 689 0 l 1
 636 0 l 1
 636 93 l 1
 468 93 l 1
 469.333 160.333 488.333 229 525 299 c 0
 569 384.333 623.667 428 689 430 c 1
 689 143 l 1
 755 143 l 1
 752 93 l 1
EndSplineSet
Ligature2: "'frac' Diagonal Fractions in Latin lookup 0 subtable" three fraction four
Ligature2: "'frac' Diagonal Fractions in Latin lookup 0 subtable" three slash four
EndChar

StartChar: questiondown
Encoding: 191 191 129
Width: 434
VWidth: 1504
Flags: HW
LayerCount: 2
Fore
SplineSet
376 -184 m 1
 328 -215.333 277 -230.666 223 -230 c 0
 165.667 -230 122 -213.667 92 -181 c 0
 64.6667 -151.667 51 -115.333 51 -72 c 0
 51 -18.6667 82.6667 41.3333 146 108 c 0
 195.333 160 220 211.667 220 263 c 0
 220 281 218.333 297 215 311 c 1
 266 311 l 1
 271.333 295.667 274 278.333 274 259 c 0
 274 205.667 246.667 148.333 192 87 c 128
 137.333 25.6667 110 -26.3333 110 -69 c 0
 110 -141 151 -177 233 -177 c 0
 280.333 -177 320.333 -164 353 -138 c 1
 376 -184 l 1
298 457 m 256
 298 441.667 292.5 428.667 281.5 418 c 128
 270.5 407.333 257.333 402 242 402 c 256
 226.667 402 213.667 407.5 203 418.5 c 128
 192.333 429.5 187 442.333 187 457 c 256
 187 472.333 192.5 485.5 203.5 496.5 c 128
 214.5 507.5 227.333 513 242 513 c 256
 257.333 513 270.5 507.5 281.5 496.5 c 128
 292.5 485.5 298 472.333 298 457 c 256
EndSplineSet
EndChar

StartChar: AE
Encoding: 198 198 136
Width: 875
VWidth: 1504
Flags: HW
LayerCount: 2
Fore
SplineSet
818 0 m 1
 496 0 l 1
 454 295 l 1
 208 295 l 1
 51 0 l 1
 -11 0 l 1
 373 716 l 1
 800 716 l 1
 800 666 l 1
 457 666 l 1
 493 402 l 1
 784 402 l 1
 784 352 l 1
 501 352 l 1
 546 50 l 1
 818 50 l 1
 818 0 l 1
447 343 m 1
 406 674 l 1
 232 343 l 1
 447 343 l 1
EndSplineSet
EndChar

StartChar: Eth
Encoding: 208 208 146
Width: 648
VWidth: 1504
Flags: HW
LayerCount: 2
Fore
SplineSet
605 373 m 0
 605 120.333 491.667 -6 265 -6 c 0
 235 -6 173.667 -1.33333 81 8 c 1
 81 320 l 1
 8 320 l 1
 8 370 l 1
 81 370 l 1
 81 705 l 1
 173 717 244.333 723.333 295 724 c 0
 386.333 724 460.333 693.333 517 632 c 1
 575.667 567.333 605 481 605 373 c 0
546 373 m 0
 546 468.333 521 543 471 597 c 0
 425 647 364.667 672 290 672 c 0
 258.667 672 208.667 668 140 660 c 1
 140 370 l 1
 393 370 l 1
 393 320 l 1
 140 320 l 1
 140 54 l 1
 190 48 237.667 45 283 45 c 0
 364.333 45 428.5 73.8333 475.5 131.5 c 128
 522.5 189.167 546 269.667 546 373 c 0
EndSplineSet
EndChar

StartChar: multiply
Encoding: 215 215 153
Width: 618
VWidth: 1504
Flags: HW
LayerCount: 2
Fore
SplineSet
507 17 m 1
 308 224 l 1
 110 17 l 1
 71 53 l 1
 269 262 l 1
 71 471 l 1
 110 507 l 1
 308 299 l 1
 507 507 l 1
 546 471 l 1
 347 262 l 1
 546 53 l 1
 507 17 l 1
EndSplineSet
EndChar

StartChar: Oslash
Encoding: 216 216 154
Width: 731
VWidth: 1504
Flags: HW
LayerCount: 2
Fore
SplineSet
698 356 m 256
 698 248.667 667.167 160 605.5 90 c 128
 543.833 20 464 -15 366 -15 c 0
 314.667 -15 268.333 -6 227 12 c 1
 200 -44 l 1
 143 -44 l 1
 182 38 l 1
 162 53.3333 143 70.6667 125 90 c 0
 63.6667 160 33 248.667 33 356 c 256
 33 463.333 63.8333 552.167 125.5 622.5 c 128
 187.167 692.833 267.333 728 366 728 c 0
 417.334 728 463.667 718 505 698 c 1
 526 742 l 1
 588 742 l 1
 552 671 l 1
 571.333 657 589 641 605 623 c 0
 667 552.333 698 463.333 698 356 c 256
481 650 m 1
 445.667 668 407.333 677 366 677 c 0
 286 677 220.333 645.667 169 583 c 128
 117.667 520.333 92 444.667 92 356 c 256
 92 268 117.333 192.333 168 129 c 0
 180 113.667 193.333 100.667 208 90 c 1
 481 650 l 1
639 356 m 256
 639 444 613.667 519.334 563 582 c 0
 551.666 596 539.333 608 526 618 c 1
 251 62 l 1
 285 44.6667 323.333 36 366 36 c 0
 446 36 511.5 67.3333 562.5 130 c 128
 613.5 192.667 639 268 639 356 c 256
EndSplineSet
EndChar

StartChar: Thorn
Encoding: 222 222 160
Width: 571
VWidth: 1504
Flags: HW
LayerCount: 2
Fore
SplineSet
528 394 m 0
 528 318.667 502.667 261.667 452 223 c 128
 401.333 184.333 332.333 165 245 165 c 0
 219.667 165 187 169 147 177 c 1
 147 0 l 1
 90 0 l 1
 90 716 l 1
 147 716 l 1
 147 575 l 1
 189 586.333 230.333 591.667 271 591 c 0
 338.333 591 396.333 575 445 543 c 0
 500.333 505.667 528 456 528 394 c 0
472 387 m 0
 472 440.334 451.667 480.667 411 508 c 0
 375.667 531.333 329 543 271 543 c 0
 233.667 543 192.333 536 147 522 c 1
 147 230 l 1
 183 218.666 216.667 213.333 248 214 c 0
 320 214 375.333 229.333 414 260 c 128
 452.667 290.667 472 333 472 387 c 0
EndSplineSet
EndChar

StartChar: germandbls
Encoding: 223 223 161
Width: 589
VWidth: 1504
Flags: HW
LayerCount: 2
Fore
SplineSet
535 153 m 0
 535 103.667 520 64.3333 490 35 c 0
 456.667 3 411 -13.3333 353 -14 c 0
 303.667 -14 261.333 -3.66667 226 17 c 1
 244 66 l 1
 282 46 319 36 355 36 c 0
 395 36 426 46.3333 448 67 c 128
 470 87.6667 481 113.333 481 144 c 0
 481 178 455.5 217.333 404.5 262 c 128
 353.5 306.667 328 348.333 328 387 c 0
 328 414.334 345 444.167 379 476.5 c 128
 413 508.833 430 535 430 555 c 0
 430 637 386.333 678 299 678 c 0
 199 678 149 596 149 432 c 2
 149 -81 l 2
 149 -135 138 -182.333 116 -223 c 1
 62 -208 l 1
 81.3334 -168.667 90.6667 -126.333 90 -81 c 2
 90 457 l 2
 90 640.333 163.333 732.333 310 733 c 0
 360 733 401.833 717.167 435.5 685.5 c 128
 469.167 653.833 486 611.333 486 558 c 0
 486 518 469.5 484.5 436.5 457.5 c 128
 403.5 430.5 387 405.333 387 382 c 0
 387 364.667 403.5 341.5 436.5 312.5 c 128
 469.5 283.5 489.333 264 496 254 c 0
 522 218.667 535 185 535 153 c 0
EndSplineSet
EndChar

StartChar: ae
Encoding: 230 230 168
Width: 914
VWidth: 1504
Flags: HW
LayerCount: 2
Fore
SplineSet
827 72 m 1
 832 23 l 1
 774 -1 710.667 -13.3333 642 -14 c 0
 538.666 -14 462.666 29.6667 414 117 c 1
 386 29.6667 315.333 -14 202 -14 c 0
 158 -14 119.833 -1.33333 87.5 24 c 128
 55.1667 49.3333 39 84 39 128 c 0
 39 255.333 150 319 372 319 c 2
 381 319 l 1
 381 328 l 2
 381 361.333 373.333 390.333 358 415 c 0
 334.667 455 295.667 475 241 475 c 0
 205.667 475 151.333 463.667 78 441 c 1
 71 495 l 1
 127 513 185 522 245 522 c 0
 337 522 396.667 484 424 408 c 1
 472 484 542.667 522 636 522 c 0
 779.333 522 852.667 432.333 856 253 c 1
 438 253 l 1
 440 185 460.333 132.167 499 94.5 c 128
 537.668 56.8333 587.334 38 648 38 c 0
 708 37.3333 767.667 48.6667 827 72 c 1
381 215 m 2
 381 268 l 1
 194.333 268 101 224.667 101 138 c 0
 101 104.667 111 79.3333 131 62 c 128
 151 44.6667 176 36 206 36 c 0
 250 36 287.667 47.6667 319 71 c 0
 360.333 101.667 381 149.667 381 215 c 2
441 299 m 1
 800 299 l 1
 798.664 340.333 787.33 377 766 409 c 0
 736 453 690.333 475 629 475 c 0
 573.666 475 528.332 455 493 415 c 0
 465.667 383 448.333 344.333 441 299 c 1
EndSplineSet
EndChar

StartChar: eth
Encoding: 240 240 178
Width: 544
VWidth: 1504
Flags: HW
LayerCount: 2
Fore
SplineSet
484 245 m 0
 484 171.667 466 111 430 63 c 0
 388.667 9 332.667 -18 262 -18 c 0
 198.667 -18 148.667 4 112 48 c 128
 75.3333 92 57 146.667 57 212 c 0
 57 275.333 75.5 329.5 112.5 374.5 c 128
 149.5 419.5 197.667 442 257 442 c 0
 299 442 336.333 432 369 412 c 1
 392.333 396 406.333 381 411 367 c 1
 387.667 445 345.333 513.334 284 572 c 1
 153 489 l 1
 128 529 l 1
 245 605 l 1
 199.667 639 151.667 663.333 101 678 c 1
 105 722 l 1
 176.333 708 239.667 679.333 295 636 c 1
 408 710 l 1
 433 669 l 1
 332 603 l 1
 348 587.664 363.333 571.331 378 554 c 0
 448.667 463.333 484 360.333 484 245 c 0
424 212 m 0
 424 262 409 304.667 379 340 c 128
 349 375.333 312.333 393 269 393 c 0
 221.667 393 184.5 375.333 157.5 340 c 128
 130.5 304.667 117 262 117 212 c 0
 117 162.667 130.333 120.5 157 85.5 c 128
 183.667 50.5 221 33 269 33 c 0
 312.333 33 349 50.5 379 85.5 c 128
 409 120.5 424 162.667 424 212 c 0
EndSplineSet
EndChar

StartChar: divide
Encoding: 247 247 185
Width: 618
VWidth: 1504
Flags: HW
LayerCount: 2
Fore
SplineSet
360 454 m 256
 360 440 355.333 427.833 346 417.5 c 128
 336.667 407.167 325 402 311 402 c 0
 295.667 402 283.667 407.167 275 417.5 c 128
 266.333 427.833 262 440 262 454 c 0
 263.333 468 268.333 480 277 490 c 128
 285.667 500 297 505 311 505 c 256
 325 505 336.667 500 346 490 c 128
 355.333 480 360 468 360 454 c 256
358 89 m 256
 358 75 353.5 63 344.5 53 c 128
 335.5 43 324 38 310 38 c 0
 294.667 38 282.833 43 274.5 53 c 128
 266.167 63 262 75 262 89 c 256
 262 103 266.5 115.167 275.5 125.5 c 128
 284.5 135.833 296.333 141 311 141 c 0
 325 141 336.333 135.833 345 125.5 c 128
 353.667 115.167 358 103 358 89 c 256
561 248 m 1
 57 248 l 1
 57 298 l 1
 561 298 l 1
 561 248 l 1
EndSplineSet
EndChar

StartChar: oslash
Encoding: 248 248 186
Width: 598
VWidth: 1504
Flags: HW
LayerCount: 2
Fore
SplineSet
557 254 m 0
 557 178.667 533.333 115 486 63 c 128
 438.667 11 376.333 -15 299 -15 c 0
 255 -15 213 -5 173 15 c 1
 137 -44 l 1
 77 -44 l 1
 131 45 l 1
 71.6667 96.3333 42 166 42 254 c 0
 42 329.333 65.6667 392.833 113 444.5 c 128
 160.333 496.167 222.333 522 299 522 c 0
 335 522 371.667 514.333 409 499 c 1
 456 576 l 1
 520 576 l 1
 456 472 l 1
 523.333 420.667 557 348 557 254 c 0
499 254 m 0
 499 325.333 475 382.667 427 426 c 1
 202 60 l 1
 231.333 42.6667 263.667 34.3333 299 35 c 0
 357 35 404.833 56 442.5 98 c 128
 480.167 140 499 192 499 254 c 0
159 92 m 1
 382 454 l 1
 356.667 466 329 472 299 472 c 0
 241 472 193.167 451.167 155.5 409.5 c 128
 117.833 367.833 99 316 99 254 c 0
 99 189.333 119 135.333 159 92 c 1
EndSplineSet
EndChar

StartChar: thorn
Encoding: 254 254 192
Width: 649
VWidth: 1504
Flags: HW
LayerCount: 2
Fore
SplineSet
603 265 m 0
 603 177.667 577 108.333 525 57 c 0
 477 9.66667 415.667 -14 341 -14 c 0
 259 -14 195 17.3333 149 80 c 1
 149 -211 l 1
 92 -211 l 1
 92 707 l 1
 149 707 l 1
 149 418 l 1
 200.333 487.333 270 522 358 522 c 0
 430 522 489.667 496.333 537 445 c 0
 581 397 603 337 603 265 c 0
548 263 m 0
 548 324.333 529.667 375 493 415 c 128
 456.333 455 407.666 475 347 475 c 0
 255.667 475 193.667 433.333 161 350 c 0
 153 330 149 310 149 290 c 2
 149 202 l 2
 149 192 151.333 176.667 156 156 c 1
 171.333 122 195.833 93.5 229.5 70.5 c 128
 263.167 47.5 302 36 346 36 c 0
 405.333 36 453.833 56 491.5 96 c 128
 529.167 136 548 191.667 548 263 c 0
EndSplineSet
EndChar

StartChar: dotlessi
Encoding: 305 305 194
Width: 215
VWidth: 1504
Flags: HW
LayerCount: 2
Fore
SplineSet
135 0 m 1
 78 0 l 1
 78 511 l 1
 135 511 l 1
 135 0 l 1
EndSplineSet
EndChar

StartChar: Lslash
Encoding: 321 321 195
Width: 543
VWidth: 1504
Flags: HW
LayerCount: 2
Fore
SplineSet
501 0 m 1
 90 0 l 1
 90 292 l 1
 41 277 l 1
 27 323 l 1
 90 343 l 1
 90 716 l 1
 149 716 l 1
 149 363 l 1
 475 466 l 1
 475 411 l 1
 149 311 l 1
 149 50 l 1
 501 50 l 1
 501 0 l 1
EndSplineSet
EndChar

StartChar: lslash
Encoding: 322 322 196
Width: 314
VWidth: 1504
Flags: HW
LayerCount: 2
Fore
SplineSet
272 403 m 1
 272 350 l 1
 149 310 l 1
 149 280 l 2
 149 206 155.333 152.667 168 120 c 1
 187.333 68.6666 226.667 42.3333 286 41 c 1
 280 -11 l 1
 153.333 -5 90 84.3333 90 257 c 2
 90 292 l 1
 41 277 l 1
 27 323 l 1
 90 343 l 1
 90 760 l 1
 149 760 l 1
 149 363 l 1
 272 403 l 1
EndSplineSet
EndChar

StartChar: OE
Encoding: 338 338 197
Width: 1069
VWidth: 1504
Flags: HW
LayerCount: 2
Fore
SplineSet
1012 50 m 1
 1012 0 l 1
 623 0 l 1
 623 111 l 1
 559.666 27 474 -15 366 -15 c 0
 268 -15 188 20.1667 126 90.5 c 128
 64 160.833 33 249.333 33 356 c 256
 33 463.333 63.8333 552.167 125.5 622.5 c 128
 187.167 692.833 267.333 728 366 728 c 0
 474 728 559.667 686 623 602 c 1
 623 716 l 1
 1012 716 l 1
 1012 666 l 1
 681 666 l 1
 681 403 l 1
 976 403 l 1
 976 353 l 1
 681 353 l 1
 681 50 l 1
 1012 50 l 1
623 218 m 1
 623 481 l 1
 615.667 530.333 587 575 537 615 c 1
 483.667 656.333 426.667 677 366 677 c 0
 286 677 220.333 645.667 169 583 c 128
 117.667 520.333 92 444.667 92 356 c 256
 92 268 117.5 192.667 168.5 130 c 128
 219.5 67.3333 285.333 36 366 36 c 0
 423.333 36 474.667 52.5 520 85.5 c 128
 565.333 118.5 599.667 162.667 623 218 c 1
EndSplineSet
EndChar

StartChar: oe
Encoding: 339 339 198
Width: 1021
VWidth: 1504
Flags: HW
LayerCount: 2
Fore
SplineSet
946 72 m 1
 951 23 l 1
 893 -1 829.667 -13.3333 761 -14 c 0
 651 -14 572.333 31.3333 525 122 c 1
 479.667 30.6667 404.333 -15 299 -15 c 0
 221.667 -15 159.5 11 112.5 63 c 128
 65.5 115 42 178.667 42 254 c 256
 42 329.333 65.6667 392.833 113 444.5 c 128
 160.333 496.167 222.333 522 299 522 c 0
 407 522 483.333 475.333 528 382 c 1
 571.333 475.333 647 522 755 522 c 0
 898.333 522 971.667 432.333 975 253 c 1
 557 253 l 1
 557 181.667 576.5 128 615.5 92 c 128
 654.5 56 705 38 767 38 c 0
 826.333 37.3333 886 48.6667 946 72 c 1
499 254 m 0
 500.332 315.333 482.166 367 444.5 409 c 128
 406.833 451 358.333 472 299 472 c 0
 241 472 193.167 451.167 155.5 409.5 c 128
 117.833 367.833 99 316 99 254 c 256
 99 192 117.833 140 155.5 98 c 128
 193.167 56 241 35 299 35 c 0
 356.333 35 403.667 55.6667 441 97 c 128
 478.334 138.333 497.668 190.667 499 254 c 0
919 299 m 1
 917 350.333 900.667 392.5 870 425.5 c 128
 839.333 458.5 798.667 475 748 475 c 0
 698.667 475 657 458.833 623 426.5 c 128
 589 394.167 568 351.667 560 299 c 1
 919 299 l 1
EndSplineSet
EndChar

StartChar: florin
Encoding: 402 402 204
Width: 598
VWidth: 1504
Flags: HW
LayerCount: 2
Fore
SplineSet
615 671 m 1
 590 629 l 1
 570.667 640.333 547 645.667 519 645 c 0
 441 645 387.333 581.333 358 454 c 2
 349 415 l 1
 496 415 l 1
 487 369 l 1
 340 369 l 1
 289 132 l 2
 253.667 -28.6667 176 -108.667 56 -108 c 0
 18 -108 -9.33333 -100 -26 -84 c 1
 0 -42 l 1
 19.3333 -53.3333 43 -59 71 -59 c 0
 149 -59 202 4.66666 230 132 c 2
 281 369 l 1
 196 369 l 1
 205 415 l 1
 292 415 l 1
 301 454 l 2
 338.333 614.667 416 695 534 695 c 0
 572 695 599 687 615 671 c 1
EndSplineSet
EndChar

StartChar: circumflex
Encoding: 710 710 205
Width: 318
VWidth: 1504
Flags: HW
LayerCount: 2
Fore
SplineSet
181 707 m 1
 284 590 l 1
 229 590 l 1
 159 668 l 1
 90 590 l 1
 35 590 l 1
 138 707 l 1
 181 707 l 1
EndSplineSet
EndChar

StartChar: caron
Encoding: 711 711 206
Width: 318
VWidth: 1504
Flags: HW
LayerCount: 2
Fore
SplineSet
181 578 m 1
 138 578 l 1
 35 695 l 1
 90 695 l 1
 159 617 l 1
 229 695 l 1
 284 695 l 1
 181 578 l 1
EndSplineSet
EndChar

StartChar: breve
Encoding: 728 728 207
Width: 454
VWidth: 1504
Flags: HW
LayerCount: 2
Fore
SplineSet
360 681 m 1
 354.667 653.667 342.333 631.667 323 615 c 0
 297 591 264.667 579 226 579 c 256
 186.667 579 153.333 591 126 615 c 0
 108 632.333 96 654.333 90 681 c 1
 143 681 l 1
 147 669.662 152.333 660.328 159 653 c 0
 175 635 197.333 626 226 626 c 256
 254 626 275.333 635 290 653 c 1
 298 661 304 670.333 308 681 c 1
 360 681 l 1
EndSplineSet
EndChar

StartChar: dotaccent
Encoding: 729 729 208
Width: 454
VWidth: 1504
Flags: HW
LayerCount: 2
Fore
SplineSet
278 812 m 256
 278 798 273 786.333 263 777 c 128
 253 767.667 240.667 763 226 763 c 0
 212 763 200.167 767.667 190.5 777 c 128
 180.833 786.333 176 798 176 812 c 256
 176 826 180.833 838.333 190.5 849 c 128
 200.167 859.667 212 865 226 865 c 0
 241.333 865 253.833 859.667 263.5 849 c 128
 273.167 838.333 278 826 278 812 c 256
EndSplineSet
EndChar

StartChar: ring
Encoding: 730 730 209
Width: 454
VWidth: 1504
Flags: HW
LayerCount: 2
Fore
SplineSet
335 662 m 0
 335 632.665 324.333 607.332 303 586 c 128
 281.667 564.667 255.333 554 224 554 c 0
 194.666 554 169.333 564.667 148 586 c 128
 126.667 607.333 116 632.667 116 662 c 0
 116 693.333 126.833 720 148.5 742 c 128
 170.167 764 195.334 775 224 775 c 0
 255.333 775 281.667 764 303 742 c 128
 324.333 720 335 693.333 335 662 c 0
292 660 m 0
 292 679.333 285.667 695.333 273 708 c 128
 260.333 720.667 244.667 727 226 727 c 0
 208 727 192.833 720.667 180.5 708 c 128
 168.167 695.333 162 679.333 162 660 c 0
 162 642.667 168.167 628.167 180.5 616.5 c 128
 192.833 604.833 208 599 226 599 c 0
 245.333 599 261.167 604.833 273.5 616.5 c 128
 285.833 628.167 292 642.667 292 660 c 0
EndSplineSet
EndChar

StartChar: ogonek
Encoding: 731 731 210
Width: 454
VWidth: 1504
Flags: HW
LayerCount: 2
Fore
SplineSet
328 -215 m 1
 308.667 -223 291 -228.833 275 -232.5 c 128
 259 -236.167 242.667 -238 226 -238 c 0
 190 -238 163.333 -227.167 146 -205.5 c 128
 128.667 -183.833 120 -158.333 120 -129 c 0
 120 -111 122.5 -90.5 127.5 -67.5 c 128
 132.5 -44.5 139 -20 147 6 c 1
 208 6 l 1
 188.667 -43.3333 179 -83.3333 179 -114 c 0
 179 -157.333 198.667 -180.667 238 -184 c 1
 268 -184 297.333 -176.333 326 -161 c 1
 328 -215 l 1
EndSplineSet
EndChar

StartChar: tilde
Encoding: 732 732 211
Width: 318
VWidth: 1504
Flags: HW
LayerCount: 2
Fore
SplineSet
290 687 m 1
 288.667 661 281.833 639 269.5 621 c 128
 257.167 603 239.667 594 217 594 c 0
 207.667 594 197.667 596.333 187 601 c 128
 176.333 605.667 165.833 610.5 155.5 615.5 c 128
 145.167 620.5 135.167 625.167 125.5 629.5 c 128
 115.833 633.833 107.667 636 101 636 c 0
 93 636 86.5 631.5 81.5 622.5 c 128
 76.5 613.5 73.3333 602 72 588 c 1
 35 588 l 1
 36.3333 612 41.6667 634 51 654 c 128
 60.3333 674 76.3333 684 99 684 c 0
 109 684 119 681.833 129 677.5 c 128
 139 673.167 149 668 159 662 c 128
 169 656 179.167 650.667 189.5 646 c 128
 199.833 641.333 210.333 639 221 639 c 0
 228.333 639 235 642.833 241 650.5 c 128
 247 658.169 250.333 670.336 251 687 c 1
 290 687 l 1
EndSplineSet
EndChar

StartChar: hungarumlaut
Encoding: 733 733 212
Width: 419
VWidth: 1504
Flags: HW
LayerCount: 2
Fore
SplineSet
235 496 m 1
 194 496 l 1
 283 739 l 1
 353 739 l 1
 235 496 l 1
104 496 m 1
 63 496 l 1
 152 739 l 1
 223 739 l 1
 104 496 l 1
EndSplineSet
EndChar

StartChar: uni0E01
Encoding: 3585 3585 214
Width: 580
VWidth: 1504
Flags: W
HStem: 0 21G<90 144 442 496> 554 48<192.641 366.533>
VStem: 90 54<0 336.949> 442 54<0 478.446>
LayerCount: 2
Fore
SplineSet
496 0 m 1
 442 0 l 1
 442 393 l 2
 442 442.333 426.667 481.5 396 510.5 c 0
 365.333 539.5 326 554 278 554 c 0
 244 554 211 544.333 179 525 c 0
 147 505.667 125 481 113 451 c 1
 172.333 445.667 213 423.667 235 385 c 1
 211 379.667 189.833 366.333 171.5 345 c 0
 153.167 323.667 144 300 144 274 c 2
 144 0 l 1
 90 0 l 1
 90 272 l 2
 90 331.333 116 371.667 168 393 c 1
 134.667 409 96.6667 414.333 54 409 c 1
 62 465 87.3334 511.167 130 547.5 c 0
 172.667 583.833 223 602 281 602 c 0
 346.333 602 398.5 583.833 437.5 547.5 c 0
 476.5 511.167 496 461.667 496 399 c 2
 496 0 l 1
EndSplineSet
EndChar

StartChar: uni0E02
Encoding: 3586 3586 215
Width: 568
VWidth: 1504
Flags: W
HStem: -12 48<286.219 409.413> 341 43<81.8357 156.245> 480 40<84.6815 155.761> 558 44<107.507 250.584> 570 20G<430 484>
VStem: 23 48<394.36 469.085> 167 41<395.004 468.777> 211 54<55.7308 332.776> 286 51<400.114 523.944> 430 54<58.7744 590>
LayerCount: 2
Fore
SplineSet
484 125 m 2xefc0
 484 33.6667 438 -12 346 -12 c 0
 256 -12 211 33.6667 211 125 c 2
 211 268 l 2
 211 293.333 223.5 327.5 248.5 370.5 c 0
 273.5 413.5 286 447 286 471 c 0
 286 494.333 276.167 514.667 256.5 532 c 0
 236.833 549.333 213 558 185 558 c 0
 141 558 107.333 543.333 84 514 c 1
 93.3333 518 105 520 119 520 c 0
 145 520 166.333 511.833 183 495.5 c 0
 199.667 479.167 208 458.333 208 433 c 0
 208 407 199.667 385.167 183 367.5 c 0
 166.333 349.833 145 341 119 341 c 0
 87.6667 341 63.8333 352.667 47.5 376 c 0
 31.1667 399.333 23 427.333 23 460 c 0
 23 497.333 37.1667 530.333 65.5 559 c 0
 93.8333 587.667 133.667 602 185 602 c 0xf7c0
 229 602 265.333 590.833 294 568.5 c 0
 322.667 546.167 337 516 337 478 c 0
 337 448.667 325 410.5 301 363.5 c 0
 277 316.5 265 282 265 260 c 2
 265 120 l 2
 265 64 292.333 36 347 36 c 256
 402.333 36 430 64 430 120 c 2
 430 590 l 1
 484 590 l 1
 484 125 l 2xefc0
167 432 m 256
 167 446 162.5 457.5 153.5 466.5 c 0
 144.5 475.5 133 480 119 480 c 256
 105 480 93.5 475.5 84.5 466.5 c 0
 75.5 457.5 71 446 71 432 c 256
 71 418 75.5 406.5 84.5 397.5 c 0
 93.5 388.5 105 384 119 384 c 256
 133 384 144.5 388.5 153.5 397.5 c 0
 162.5 406.5 167 418 167 432 c 256
EndSplineSet
EndChar

StartChar: uni0E03
Encoding: 3587 3587 216
Width: 574
VWidth: 1504
Flags: W
HStem: -12 48<292.219 415.413> 275 51<87.9462 162.119> 423 48<87.4743 162.226> 583 7G<138.667 173.615 222.231 256 436 490>
VStem: 23 54<336.768 456.768> 173 48<336.845 412.448> 217 54<55.7308 293.766> 307 49<384.139 531.289> 436 54<58.7744 590>
LayerCount: 2
Fore
SplineSet
490 125 m 2xfb80
 490 33.6667 444 -12 352 -12 c 0
 262 -12 217 33.6667 217 125 c 2
 217 220 l 2xfb80
 217 252 232 292.333 262 341 c 0
 292 389.667 307 429.333 307 460 c 0
 307 512 288 542.333 250 551 c 1
 197 487 l 1
 143 549 l 1
 111 527 89.3333 498 78 462 c 1
 92 468 108 471 126 471 c 0
 155.333 471 178.5 461.667 195.5 443 c 0
 212.5 424.333 221 401 221 373 c 0xfd80
 221 343.667 211.667 320 193 302 c 0
 174.333 284 151.667 275 125 275 c 0
 91 275 65 289 47 317 c 0
 31 342.333 23 373 23 409 c 0
 23 452.333 35 492.333 59 529 c 0
 85 570.333 118.333 595 159 603 c 1
 197 551 l 1
 238 603 l 1
 274 599 303.333 582 326 552 c 1
 346 524 356 492 356 456 c 0
 356 424.667 341.833 384 313.5 334 c 0
 285.167 284 271 244.333 271 215 c 2
 271 120 l 2
 271 64 298.333 36 353 36 c 256
 408.333 36 436 64 436 120 c 2
 436 590 l 1
 490 590 l 1
 490 125 l 2xfb80
173 375 m 256xfd80
 173 389 168.5 400.5 159.5 409.5 c 0
 150.5 418.5 139 423 125 423 c 256
 111 423 99.5 418.5 90.5 409.5 c 0
 81.5 400.5 77 389 77 375 c 256
 77 361 81.5 349.333 90.5 340 c 0
 99.5 330.667 111 326 125 326 c 256
 139 326 150.5 330.667 159.5 340 c 0
 168.5 349.333 173 361 173 375 c 256xfd80
EndSplineSet
EndChar

StartChar: uni0E04
Encoding: 3588 3588 217
Width: 591
VWidth: 1504
Flags: W
HStem: 0 21G<98 152 453 507> 280 43<253.013 324.849> 417 42<253.489 324.271> 554 48<192.896 371.769>
VStem: 50 55<271.328 469.802> 98 54<0 217.062> 335 43<333.498 406.418> 453 54<0 483.32>
LayerCount: 2
Fore
SplineSet
507 0 m 1xfb
 453 0 l 1
 453 405 l 2
 453 453 435.167 489.833 399.5 515.5 c 0
 363.833 541.167 323.333 554 278 554 c 0
 232 554 191.667 538.167 157 506.5 c 0
 122.333 474.833 105 436 105 390 c 0xfb
 105 368 109 341.333 117 310 c 0
 128.333 266 134.333 241 135 235 c 1
 144.333 292.333 160 341 182 381 c 0
 211.333 433 248 459 292 459 c 0
 317.333 459 338 451 354 435 c 0
 370 419 378 397.333 378 370 c 0
 378 344.667 369.333 323.333 352 306 c 0
 334.667 288.667 313.667 280 289 280 c 0
 263 280 240 292 220 316 c 1
 206 294.667 191.667 264.667 177 226 c 0
 159.666 178 151.333 135.333 152 98 c 2
 152 0 l 1
 98 0 l 1
 98 138 l 2xf7
 98 167.333 90 208.5 74 261.5 c 0
 58 314.5 50 355.333 50 384 c 0
 50 449.333 72 502 116 542 c 0
 160 582 215 602 281 602 c 0
 342.333 602 395.333 585.667 440 553 c 0
 484.667 520.333 507 472.333 507 409 c 2
 507 0 l 1xfb
335 370 m 256
 335 383.333 330.5 394.5 321.5 403.5 c 0
 312.5 412.5 301.667 417 289 417 c 256
 275.667 417 264.5 412.5 255.5 403.5 c 0
 246.5 394.5 242 383.333 242 370 c 256
 242 356.667 246.5 345.5 255.5 336.5 c 0
 264.5 327.5 275.667 323 289 323 c 256
 302.333 323 313.333 327.5 322 336.5 c 0
 330.667 345.5 335 356.667 335 370 c 256
EndSplineSet
EndChar

StartChar: uni0E05
Encoding: 3589 3589 218
Width: 591
VWidth: 1504
Flags: W
HStem: 0 21G<101 155 453 507> 248 42<253.06 324.306> 384 40<255.923 321.077>
VStem: 50 57<268.822 474.187> 101 54<0 210.603> 335 41<300.582 373.103> 453 54<0 498.154>
LayerCount: 2
Fore
SplineSet
507 0 m 1xf6
 453 0 l 1
 453 421 l 1
 451.667 490.333 418 533 352 549 c 1
 280 468 l 1
 200 551 l 1
 168 533.667 143.333 507.333 126 472 c 0
 112.667 446 106.333 421.667 107 399 c 0xf6
 107 365 116.333 305.333 135 220 c 1
 162.333 356.667 213.667 424.667 289 424 c 0
 315 424 336 416 352 400 c 0
 368 384 376 363 376 337 c 0
 376 311.667 367.667 290.5 351 273.5 c 0
 334.333 256.5 314 248 290 248 c 0
 258 248 232 259.667 212 283 c 1
 198.667 269 186 242.333 174 203 c 0
 160.666 159.667 154.333 119 155 81 c 2
 155 0 l 1
 101 0 l 1
 101 120 l 2xee
 101 151.333 92.5 196 75.5 254 c 0
 58.5 312 50 356.333 50 387 c 0
 50 502.333 104.667 575 214 605 c 1
 280 528 l 1
 340 605 l 1
 450 583 505.667 522.667 507 424 c 1
 507 0 l 1xf6
335 337 m 256
 335 350.333 330.5 361.5 321.5 370.5 c 0
 312.5 379.5 301.667 384 289 384 c 256
 275.667 384 264.5 379.333 255.5 370 c 0
 246.5 360.667 242 349.667 242 337 c 256
 242 323.667 246.5 312.5 255.5 303.5 c 0
 264.5 294.5 275.667 290 289 290 c 256
 302.333 290 313.333 294.5 322 303.5 c 0
 330.667 312.5 335 323.667 335 337 c 256
EndSplineSet
EndChar

StartChar: uni0E06
Encoding: 3590 3590 219
Width: 613
VWidth: 1504
Flags: W
HStem: -12 51<168.844 252.062> 0 21G<453.333 529> 144 50<168.562 216.798> 275 51<87.9462 162.119> 423 48<87.4743 162.226> 583 7G<138.667 173.615 222.231 256 475 529>
VStem: 23 54<336.768 456.768> 107 51<50.1599 133.379> 173 48<336.845 412.448> 217 54<194 293.766> 263 50<49.3818 133.862> 307 49<384.139 530.888> 475 54<81 590>
LayerCount: 2
Fore
SplineSet
263 92 m 256xbf28
 263 106 257.833 118.167 247.5 128.5 c 0
 237.167 138.833 225 144 211 144 c 256
 197 144 184.667 138.833 174 128.5 c 0
 163.333 118.167 158 106 158 92 c 256
 158 78 163.333 65.6667 174 55 c 0
 184.667 44.3333 197 39 211 39 c 256
 225 39 237.167 44.3333 247.5 55 c 0
 257.833 65.6667 263 78 263 92 c 256xbf28
529 0 m 1x7f58
 475 0 l 1
 431.667 82 370.667 131.667 292 149 c 1
 306 133 313 114 313 92 c 0x7f28
 313 62.6667 303.167 38 283.5 18 c 0
 263.833 -2 239.667 -12 211 -12 c 0
 181 -12 156.167 -2 136.5 18 c 0
 116.833 38 107 62.6667 107 92 c 256
 107 121.333 117 145.667 137 165 c 0
 157 184.333 181.667 194 211 194 c 2
 217 194 l 1
 217 220 l 2xbf48
 217 252 232 292.333 262 341 c 0
 292 389.667 307 429.333 307 460 c 0
 307 512 288 542.333 250 551 c 1
 197 487 l 1
 143 549 l 1
 111 527 89.3333 498 78 462 c 1
 92 468 108 471 126 471 c 0
 155.333 471 178.5 461.667 195.5 443 c 0
 212.5 424.333 221 401 221 373 c 0xbf98
 221 343.667 211.667 320 193 302 c 0
 174.333 284 151.667 275 125 275 c 0
 91 275 65 289 47 317 c 0
 31 342.333 23 373 23 409 c 0
 23 452.333 35 492.333 59 529 c 0
 85 570.333 118.333 595 159 603 c 1
 197 551 l 1
 238 603 l 1
 274 599 302.667 583.167 324 555.5 c 0
 345.333 527.833 356 494.667 356 456 c 0
 356 424.667 341.833 384 313.5 334 c 0
 285.167 284 271 244.333 271 215 c 2
 271 193 l 1
 360.333 183 428.333 145.667 475 81 c 1
 475 590 l 1
 529 590 l 1
 529 0 l 1x7f58
173 375 m 256x3f88
 173 389 168.5 400.5 159.5 409.5 c 0
 150.5 418.5 139 423 125 423 c 256
 111 423 99.5 418.5 90.5 409.5 c 0
 81.5 400.5 77 389 77 375 c 256
 77 361 81.5 349.333 90.5 340 c 0
 99.5 330.667 111 326 125 326 c 256
 139 326 150.5 330.667 159.5 340 c 0
 168.5 349.333 173 361 173 375 c 256x3f88
EndSplineSet
EndChar

StartChar: uni0E07
Encoding: 3591 3591 220
Width: 442
VWidth: 1504
Flags: W
HStem: 0 21G<286.109 358> 403 50<218.608 295.601> 555 47<218.285 295.178>
VStem: 158 48<465.357 542.563> 304 54<77 414 468.47 539.53>
DStem2: 54 347 24 313 0.666725 -0.745304<5.33856 367.913>
LayerCount: 2
Fore
SplineSet
358 0 m 1
 304 0 l 1
 24 313 l 1
 54 347 l 1
 304 77 l 1
 304 414 l 1
 290 406.667 274.333 403 257 403 c 0
 229.666 403 206.333 412.833 187 432.5 c 0
 167.667 452.167 158 475 158 501 c 0
 158 530.333 167.5 554.5 186.5 573.5 c 0
 205.5 592.5 229 602 257 602 c 0
 289 602 314.667 591.333 334 570 c 0
 350 550.667 358 527.667 358 501 c 2
 358 0 l 1
308 504 m 256
 308 518 303 530 293 540 c 0
 283 550 271 555 257 555 c 256
 243 555 231 550 221 540 c 0
 211 530 206 518 206 504 c 256
 206 490 211 478 221 468 c 0
 231 458 243 453 257 453 c 256
 271 453 283 458 293 468 c 0
 303 478 308 490 308 504 c 256
EndSplineSet
EndChar

StartChar: uni0E08
Encoding: 3592 3592 221
Width: 552
VWidth: 1504
Flags: W
HStem: -14 50<327.285 406.123> 226 43<157.408 222.592> 361 45<154.28 225.517> 552 50<158.491 360.034>
VStem: 36 56<445 492.887> 99 45<278.477 350.498> 414 54<44.2637 505.564>
DStem2: 278 329 239 239 0.170036 -0.985438<82.058 298.675>
LayerCount: 2
Fore
SplineSet
468 98 m 2
 468 24 432.333 -13.3333 361 -14 c 0
 305 -14 273 14.3333 265 71 c 2
 239 239 l 1
 223.667 229.666 206.667 225.332 188 226 c 0
 162.667 226 141.5 234.5 124.5 251.5 c 0
 107.5 268.5 99 289.333 99 314 c 0
 99 340 107.5 361.833 124.5 379.5 c 0
 141.5 397.167 162.667 406 188 406 c 0
 210 406 229.5 398.833 246.5 384.5 c 0
 263.5 370.167 274 351.667 278 329 c 2
 322 74 l 2
 326 48.6667 340 36 364 36 c 0
 397.333 36 414 54 414 90 c 2
 414 444 l 2
 414 483.334 398.333 511.167 367 527.5 c 0
 335.667 543.833 299.667 552 259 552 c 0
 213.667 552 176.167 542.5 146.5 523.5 c 0
 116.833 504.5 98.6666 478.333 92 445 c 1
 36 445 l 1
 41.3333 487 61 522.334 95 551 c 0
 136.333 585 190.333 602 257 602 c 0
 397.667 602 468 549.333 468 444 c 2
 468 98 l 2
236 314 m 256
 236 327.333 231.5 338.5 222.5 347.5 c 0
 213.5 356.5 202.667 361 190 361 c 256
 176.667 361 165.667 356.5 157 347.5 c 0
 148.333 338.5 144 327.333 144 314 c 256
 144 300.667 148.333 289.833 157 281.5 c 0
 165.667 273.167 176.667 269 190 269 c 256
 203.333 269 214.333 273.167 223 281.5 c 0
 231.667 289.834 236 300.667 236 314 c 256
EndSplineSet
EndChar

StartChar: uni0E09
Encoding: 3593 3593 222
Width: 567
VWidth: 1504
Flags: W
HStem: -11 44<376.552 454.045> 0 21G<125 207.667> 206 45<98.8924 134.684> 341 47<95.2819 166.254> 552 50<171.554 365.083>
VStem: 39 56<442 486.86> 39 47<260.31 331.513> 125 54<53 205.307> 176 45<260.348 331.512> 322 45<42.4595 101.772> 429 54<211.428 497.438> 466 44<45.1099 120.337>
LayerCount: 2
Fore
SplineSet
510 83 m 0x7850
 510 57 501.5 34.8333 484.5 16.5 c 0
 467.5 -1.83333 444.333 -11 415 -11 c 0xb850
 389 -11 367 -1.83333 349 16.5 c 0
 331 34.8333 322 57 322 83 c 0
 322 92.3333 322.333 98.6667 323 102 c 1
 265.667 78 222.333 44 193 0 c 1
 125 0 l 1
 125 140 l 2x7950
 125 169.333 128.334 191.333 135 206 c 1
 129 206 l 2
 103.667 206 82.3333 214.833 65 232.5 c 0
 47.6667 250.167 39 271.333 39 296 c 0
 39 322 47.8333 343.833 65.5 361.5 c 0
 83.1667 379.167 104.333 388 129 388 c 0
 155 388 176.833 379.167 194.5 361.5 c 0
 212.167 343.833 221 322 221 296 c 0x7ac0
 221 276.667 214 252.833 200 224.5 c 0
 186 196.167 179 171 179 149 c 2
 179 53 l 1
 212.333 101 267 136.333 343 159 c 1
 400.333 185 429 228.333 429 289 c 2
 429 439 l 2
 429 474.333 411 503 375 525 c 0
 343.667 543 307.333 552 266 552 c 0
 228 552 193 543 161 525 c 0
 125 503.667 103 476 95 442 c 1
 39 442 l 1
 42.3333 484 62.3333 520.334 99 551 c 0
 141 585 195.667 602 263 602 c 0
 328.333 602 380.667 589 420 563 c 0
 462 533.666 483 492 483 438 c 2
 483 286 l 2x7d60
 483 238 469.333 200.333 442 173 c 1
 487.333 159 510 129 510 83 c 0x7850
466 83 m 0
 466 97 461.333 108.667 452 118 c 0
 442.667 127.333 431 132 417 132 c 0
 403.667 132 392 127.333 382 118 c 0
 372 108.667 367 97 367 83 c 0
 367 69.6667 372 58 382 48 c 0
 392 38 403.667 33 417 33 c 0
 431 33 442.667 38 452 48 c 0
 461.333 58 466 69.6667 466 83 c 0
176 296 m 256x3ac0
 176 309.335 171.667 320.168 163 328.5 c 0
 154.333 336.833 143.667 341 131 341 c 256
 117.667 341 106.833 336.833 98.5 328.5 c 0
 90.1667 320.167 86 309.333 86 296 c 256
 86 282.667 90.1667 271.833 98.5 263.5 c 0
 106.833 255.167 117.667 251 131 251 c 256
 144.333 251 155.167 255.167 163.5 263.5 c 0
 171.833 271.834 176 282.668 176 296 c 256x3ac0
EndSplineSet
EndChar

StartChar: uni0E0A
Encoding: 3594 3594 223
Width: 571
VWidth: 1504
Flags: W
HStem: -12 48<286.563 411.748> 341 43<81.8357 156.245> 480 40<84.6815 155.761> 558 44<107.507 250.584>
VStem: 23 48<394.36 469.085> 167 41<395.004 468.777> 211 54<58.7745 332.776> 286 51<400.114 523.944> 433 54<58.7744 424.358> 459 57<545.216 626>
LayerCount: 2
Fore
SplineSet
487 125 m 2xff80
 487 33.6667 440.333 -12 347 -12 c 0
 255.667 -12 210.333 33.6667 211 125 c 2
 211 268 l 2
 211 293.333 223.5 327.5 248.5 370.5 c 0
 273.5 413.5 286 447 286 471 c 0
 286 494.333 276.167 514.667 256.5 532 c 0
 236.833 549.333 213 558 185 558 c 0
 141 558 107.333 543.333 84 514 c 1
 93.3333 518 105 520 119 520 c 0
 145 520 166.333 511.833 183 495.5 c 0
 199.667 479.167 208 458.333 208 433 c 0
 208 407 199.667 385.167 183 367.5 c 0
 166.333 349.833 145 341 119 341 c 0
 87.6667 341 63.8333 352.667 47.5 376 c 0
 31.1667 399.333 23 427.333 23 460 c 0
 23 497.333 37.1667 530.333 65.5 559 c 0
 93.8333 587.667 133.667 602 185 602 c 0
 229 602 265.333 590.833 294 568.5 c 0
 322.667 546.167 337 516 337 478 c 0
 337 448.667 325 410.5 301 363.5 c 0
 277 316.5 265 282 265 260 c 2
 265 120 l 2
 265 64 293 36 349 36 c 256
 405 36 433 64 433 120 c 2
 433 363 l 2xff80
 433 407 411.667 436.333 369 451 c 1
 371 457 372 468.667 372 486 c 1
 427.333 509.333 456.333 556 459 626 c 1
 516 626 l 1xff40
 512.665 588 501.998 554.833 484 526.5 c 0
 466 498.167 447.667 479 429 469 c 1
 468.334 453.667 487.668 420.333 487 369 c 2
 487 125 l 2xff80
167 432 m 256
 167 446 162.5 457.5 153.5 466.5 c 0
 144.5 475.5 133 480 119 480 c 256
 105 480 93.5 475.5 84.5 466.5 c 0
 75.5 457.5 71 446 71 432 c 256
 71 418 75.5 406.5 84.5 397.5 c 0
 93.5 388.5 105 384 119 384 c 256
 133 384 144.5 388.5 153.5 397.5 c 0
 162.5 406.5 167 418 167 432 c 256
EndSplineSet
EndChar

StartChar: uni0E0B
Encoding: 3595 3595 224
Width: 577
VWidth: 1504
Flags: W
HStem: -12 48<292.563 417.748> 275 51<87.9462 162.119> 423 48<87.4743 162.226> 583 20G<138.667 173.615 222.231 256>
VStem: 23 54<336.768 456.768> 173 48<336.845 412.448> 217 54<58.7745 293.766> 307 49<384.139 531.289> 439 54<58.7744 425.511> 465 57<545.216 626>
LayerCount: 2
Fore
SplineSet
173 375 m 256xfd
 173 389 168.5 400.5 159.5 409.5 c 0
 150.5 418.5 139 423 125 423 c 256
 111 423 99.5 418.5 90.5 409.5 c 0
 81.5 400.5 77 389 77 375 c 256
 77 361 81.5 349.333 90.5 340 c 0
 99.5 330.667 111 326 125 326 c 256
 139 326 150.5 330.667 159.5 340 c 0
 168.5 349.333 173 361 173 375 c 256xfd
493 125 m 2xf980
 493 33.6667 446.333 -12 353 -12 c 0
 261.667 -12 216.333 33.6667 217 125 c 2
 217 220 l 2xfb80
 217 252 232 292.333 262 341 c 0
 292 389.667 307 429.333 307 460 c 0
 307 512 288 542.333 250 551 c 1
 197 487 l 1
 143 549 l 1
 111 527 89.3333 498 78 462 c 1
 92 468 108 471 126 471 c 0
 155.333 471 178.5 461.667 195.5 443 c 0
 212.5 424.333 221 401 221 373 c 0xfd
 221 343.667 211.667 320 193 302 c 0
 174.333 284 151.667 275 125 275 c 0
 91 275 65 289 47 317 c 0
 31 342.333 23 373 23 409 c 0
 23 452.333 35 492.333 59 529 c 0
 85 570.333 118.333 595 159 603 c 1
 197 551 l 1
 238 603 l 1
 274 599 303.333 582 326 552 c 1
 346 524 356 492 356 456 c 0
 356 424.667 341.833 384 313.5 334 c 0
 285.167 284 271 244.333 271 215 c 2
 271 122 l 2
 271 64.6667 299 36 355 36 c 256
 411 36 439 64 439 120 c 2
 439 363 l 2xfb80
 439 407 419 436 379 450 c 1
 380.333 459.333 380 471.333 378 486 c 1
 433.333 509.333 462.333 556 465 626 c 1
 522 626 l 1xf940
 518.667 588 508 554.833 490 526.5 c 0
 472 498.167 453.667 479 435 469 c 1
 474.334 453.667 493.668 420.333 493 369 c 2
 493 125 l 2xf980
EndSplineSet
EndChar

StartChar: uni0E0C
Encoding: 3596 3596 225
Width: 780
VWidth: 1504
Flags: W
HStem: -14 50<136.226 213.124 384.813 461.567> 0 21G<629 696> 137 48<140.383 213.508> 554 48<181.497 353.621> 570 20G<642 696>
VStem: 75 50<47.7752 124.967> 86 54<179 336.578> 226 48<48.3189 124.604> 325 48<47.7752 124.557> 415 54<180.971 492.241> 474 49<48.3189 104.781> 642 54<71 590>
LayerCount: 2
Fore
SplineSet
696 0 m 1x6bf0
 641 0 l 1x6bf0
 617 37.3333 576.667 72.3333 520 105 c 1
 522 97 523 90.6667 523 86 c 0
 523 58.6667 514.333 35.1667 497 15.5 c 0
 479.667 -4.16667 455.333 -14 424 -14 c 0
 396.667 -14 373.333 -4.16667 354 15.5 c 0
 334.667 35.1667 325 58.6667 325 86 c 0
 325 112 333.833 134.5 351.5 153.5 c 0
 369.167 172.5 390.333 183 415 185 c 1
 415 399 l 2
 415 502.333 363.333 554 260 554 c 0
 228 554 197.667 544.167 169 524.5 c 0
 140.333 504.833 120.667 480 110 450 c 1
 166 446 206 424 230 384 c 1
 206 378.667 185 365.5 167 344.5 c 0
 149 323.5 140 300 140 274 c 2
 140 179 l 1xb3f0
 149.333 183 160.667 185 174 185 c 0
 201.333 185 224.833 175.167 244.5 155.5 c 0
 264.167 135.833 274 112.667 274 86 c 256
 274 58.6667 264.667 35.1667 246 15.5 c 0
 227.333 -4.16667 203.333 -14 174 -14 c 256
 144.667 -14 120.833 -4.16667 102.5 15.5 c 0
 84.1667 35.1667 75 58.6667 75 86 c 0xb5f0
 75 102 78.6667 116.333 86 129 c 1
 86 272 l 2
 86 326 112 365.667 164 391 c 1
 126 406.333 86.3333 412 45 408 c 1
 54.3333 464 79.3333 510.333 120 547 c 0
 160.667 583.667 208.333 602 263 602 c 0xb3f0
 326.333 602 376.5 584.667 413.5 550 c 0
 450.5 515.333 469 467 469 405 c 2
 469 179 l 1
 551 151 608.667 115 642 71 c 1
 642 590 l 1
 696 590 l 1
 696 0 l 1x6bf0
474 86 m 256
 474 100 469 112 459 122 c 0
 449 132 437 137 423 137 c 256
 409 137 397.167 132 387.5 122 c 0
 377.833 112 373 100 373 86 c 256
 373 72 377.833 60.1667 387.5 50.5 c 0
 397.167 40.8333 409 36 423 36 c 256xa1f0
 437 36 449 40.8333 459 50.5 c 0
 469 60.1667 474 72 474 86 c 256
226 86 m 256
 226 100 221 112 211 122 c 0
 201 132 188.667 137 174 137 c 256
 160 137 148.333 132 139 122 c 0
 129.666 112 125 100 125 86 c 256xa5f0
 125 72 129.667 60.1667 139 50.5 c 0
 148.333 40.8333 160 36 174 36 c 256
 188 36 200.167 40.8333 210.5 50.5 c 0
 220.833 60.1667 226 72 226 86 c 256
EndSplineSet
EndChar

StartChar: uni0E0D
Encoding: 3597 3597 226
Width: 780
VWidth: 1504
Flags: W
HStem: -257 43<488.126 607.585> -86 41<423.507 490.208> -14 50<146.983 223.701 481.119 619.905> 137 48<146.874 223.715> 554 48<178.943 345.487> 570 20G<642 696>
VStem: 86 54<50.9548 121.53 176 336.578> 236 48<48.2004 124.282> 376 42<-157.691 -91.4453> 403 54<59.707 493.453> 499 41<-158.177 -94.7917> 642 54<58.333 590> 663 56<-153.18 -51>
LayerCount: 2
Fore
SplineSet
719 -51 m 1xf368
 717 -111 701.167 -160.333 671.5 -199 c 0
 641.833 -237.667 595.333 -257 532 -257 c 0
 492 -257 456 -244.5 424 -219.5 c 0
 392 -194.5 376 -163.333 376 -126 c 0xf3a8
 376 -104 384 -85 400 -69 c 0
 416 -53 435 -45 457 -45 c 0
 480.333 -45 500 -53 516 -69 c 0
 532 -85 540 -104 540 -126 c 0
 540 -163.333 522.333 -189 487 -203 c 1
 499 -210.333 513.667 -214 531 -214 c 0
 617 -214 661 -159.667 663 -51 c 1
 719 -51 l 1xf368
499 -126 m 256
 499 -114.667 495 -105.167 487 -97.5 c 0
 479 -89.8333 469.667 -86 459 -86 c 256
 447.667 -86 438 -90 430 -98 c 0
 422 -106 418 -115.333 418 -126 c 256
 418 -137.333 422 -147 430 -155 c 0
 438 -163 447.667 -167 459 -167 c 256
 470.333 -167 479.833 -163 487.5 -155 c 0
 495.167 -147 499 -137.333 499 -126 c 256
236 86 m 256
 236 100 231 112 221 122 c 0
 211 132 199 137 185 137 c 256
 171 137 159.167 132 149.5 122 c 0
 139.833 112 135 100 135 86 c 256
 135 72 139.833 60.1667 149.5 50.5 c 0
 159.167 40.8333 171 36 185 36 c 256
 199 36 211 40.8333 221 50.5 c 0
 231 60.1667 236 72 236 86 c 256
696 123 m 2xf770
 696 33 647 -12 549 -12 c 0
 451.667 -12 403 33.6667 403 125 c 2
 403 399 l 2
 403 502.333 354.333 554 257 554 c 0
 225 554 195.167 544.333 167.5 525 c 0
 139.833 505.667 120.667 480.667 110 450 c 1
 166 446 206 424 230 384 c 1
 206 378.667 185 365.5 167 344.5 c 0
 149 323.5 140 300 140 274 c 2
 140 176 l 1
 153.333 182 168.333 185 185 185 c 0
 213 185 236.5 175.5 255.5 156.5 c 0
 274.5 137.5 284 114.333 284 87 c 256
 284 59.6667 276.333 36 261 16 c 0
 245.666 -4 220.333 -14 185 -14 c 0
 155.667 -14 131.833 -4.66667 113.5 14 c 0
 95.1667 32.6667 86 57.6667 86 89 c 2
 86 272 l 2
 86 326 112 365.667 164 391 c 1
 126 406.333 86.3333 412 45 408 c 1
 54.3333 464 78.6667 510.333 118 547 c 0
 157.333 583.667 204.667 602 260 602 c 0xfb70
 322 602 370.333 584.833 405 550.5 c 0
 439.667 516.166 457 467.666 457 405 c 2
 457 120 l 2
 457 64 488.333 36 551 36 c 0
 612.333 36 642.667 64 642 120 c 2
 642 590 l 1
 696 590 l 1
 696 123 l 2xf770
EndSplineSet
Substitution2: "<23,16000>  in Thai lookup 69 nested-substitutions 7 subtable" uni0E0D.alt1
Substitution2: "Single Substitution lookup 62 subtable" uni0E0D.alt1
EndChar

StartChar: uni0E0E
Encoding: 3598 3598 227
Width: 639
VWidth: 1504
Flags: W
HStem: -329 48<176.463 263.856> -187 50<178.658 270.562> -12 48<95.9247 172.604> 137 48<95.9247 169.468> 554 48<251.85 424.418>
VStem: 36 48<47.9247 124.929> 123 48<-275.892 -196.094> 161 53<178.606 344.602> 185 48<48.1004 124.591> 274 51<-271.955 -203.109> 501 54<-323 -296 -254 477.273>
LayerCount: 2
Fore
SplineSet
555 -323 m 1xfd60
 495 -323 l 1
 487 -299 464.167 -275 426.5 -251 c 0
 388.833 -227 355 -211 325 -203 c 1
 325 -214 l 2
 325 -246 315.5 -273.167 296.5 -295.5 c 0
 277.5 -317.833 252 -329 220 -329 c 0
 190 -329 166.333 -320.333 149 -303 c 0
 131.666 -285.667 123 -264 123 -238 c 0xfe60
 123 -206.667 134.167 -182 156.5 -164 c 0
 178.833 -146 205.333 -137 236 -137 c 0
 241.333 -137 254.333 -138.333 275 -141 c 1
 279 -103.667 297.667 -75.6667 331 -57 c 1
 372 -81 l 1
 342 -100.333 326.333 -124.333 325 -153 c 1
 405 -181 463.667 -214.667 501 -254 c 1
 501 391 l 2
 501 440.333 485.667 479.833 455 509.5 c 0
 424.333 539.167 385 554 337 554 c 0
 303 554 270.167 544.167 238.5 524.5 c 0
 206.833 504.833 185 480 173 450 c 1
 226.333 444.667 267 422.667 295 384 c 1
 241 366 214 329.333 214 274 c 0xfd60
 214 234.667 218.333 194.333 227 153 c 0
 231 135 233 114 233 90 c 0xfce0
 233 60.6667 223.167 36.3333 203.5 17 c 0
 183.833 -2.33333 160.667 -12 134 -12 c 256
 106.667 -12 83.5 -2.5 64.5 16.5 c 0
 45.5 35.5 36 58.6667 36 86 c 256
 36 113.333 45.5 136.667 64.5 156 c 0
 83.5 175.333 106.667 185 134 185 c 0
 145.333 185 157.333 182.333 170 177 c 1
 164 223 161 258.333 161 283 c 0
 161 329 181 365 221 391 c 1
 193.667 403 167 409 141 409 c 0
 127.667 409 118.333 408.667 113 408 c 1
 118.333 464 142.667 510.333 186 547 c 0
 229.333 583.667 280 602 338 602 c 0
 402 602 454.167 583.667 494.5 547 c 0
 534.833 510.333 555 460.333 555 397 c 2
 555 -323 l 1xfd60
271 -191 m 1
 261.667 -187.667 251 -186.333 239 -187 c 0
 193.667 -187 171 -203 171 -235 c 0
 171 -266.333 187.667 -281.667 221 -281 c 0
 256.333 -281 274 -258.667 274 -214 c 0
 274 -206.667 273 -199 271 -191 c 1
185 86 m 256xfce0
 185 100 180 112 170 122 c 0
 160 132 148 137 134 137 c 256
 120 137 108.167 132 98.5 122 c 0
 88.8333 112 84 100 84 86 c 256
 84 72 88.8333 60.1667 98.5 50.5 c 0
 108.167 40.8333 120 36 134 36 c 256
 148 36 160 40.8333 170 50.5 c 0
 180 60.1667 185 72 185 86 c 256xfce0
EndSplineSet
Substitution2: "<23,16000>  in Thai lookup 79 nested-substitutions 0 subtable" uni0E0E.alt1
Substitution2: "Single Substitution lookup 62 subtable" uni0E0E.alt1
EndChar

StartChar: uni0E0F
Encoding: 3599 3599 228
Width: 639
VWidth: 1504
Flags: W
HStem: -331 47<122.244 207.744> -188 47<124.399 220.45> -12 48<95.9247 172.604> 137 48<95.9247 169.468> 554 48<251.85 424.418>
VStem: 36 48<47.9247 124.929> 72 45<-279.119 -195.986> 161 53<178.606 344.602> 185 48<48.1004 124.591> 221 44<-272.604 -232 -152 -122.206> 501 54<-254 477.273>
DStem2: 269 -173 265 -232 0.67349 -0.739196<40.9186 107.496> 414 -156 414 -232 0.66389 -0.74783<56.8351 131.046>
LayerCount: 2
Fore
SplineSet
221 -202 m 1xfa60
 211.667 -192.667 196.667 -188 176 -188 c 0
 136.667 -188 117 -205 117 -239 c 0
 117 -269 133 -284 165 -284 c 0
 202.333 -284.667 221 -257.334 221 -202 c 1xfa60
555 -323 m 1
 495 -323 l 1
 414 -232 l 1
 347 -322 l 1
 265 -232 l 1
 263.667 -263.333 253.5 -287.667 234.5 -305 c 0
 215.5 -322.333 193.333 -331 168 -331 c 0
 136.667 -331 112.833 -322 96.5 -304 c 0
 80.1667 -286 72 -264 72 -238 c 0
 72 -208.667 81.5 -185.167 100.5 -167.5 c 0
 119.5 -149.833 143 -141 171 -141 c 0
 190.333 -141 207 -144.667 221 -152 c 1
 223 -116.667 243.667 -87.6667 283 -65 c 1
 323 -89 l 1
 289 -110.333 271 -138.333 269 -173 c 1
 343 -251 l 1
 414 -156 l 1
 501 -254 l 1
 501 391 l 2
 501 440.333 485.667 479.833 455 509.5 c 0
 424.333 539.167 385 554 337 554 c 0
 303 554 270.167 544.167 238.5 524.5 c 0
 206.833 504.833 185 480 173 450 c 1
 226.333 444.667 267 422.667 295 384 c 1
 241 366 214 329.333 214 274 c 0xfb60
 214 234.667 218.333 194.333 227 153 c 0
 231 135 233 114 233 90 c 0xf8a0
 233 60.6667 223.167 36.3333 203.5 17 c 0
 183.833 -2.33333 160.667 -12 134 -12 c 256
 106.667 -12 83.5 -2.5 64.5 16.5 c 0
 45.5 35.5 36 58.6667 36 86 c 256
 36 113.333 45.5 136.667 64.5 156 c 0
 83.5 175.333 106.667 185 134 185 c 0
 145.333 185 157.333 182.333 170 177 c 1
 164 223 161 258.333 161 283 c 0xfd20
 161 329 181 365 221 391 c 1
 193.667 403 167 409 141 409 c 0
 127.667 409 118.333 408.667 113 408 c 1
 118.333 464 142.667 510.333 186 547 c 0
 229.333 583.667 280 602 338 602 c 0
 402 602 454.167 583.667 494.5 547 c 0
 534.833 510.333 555 460.333 555 397 c 2
 555 -323 l 1
185 86 m 256xfca0
 185 100 180 112 170 122 c 0
 160 132 148 137 134 137 c 256
 120 137 108.167 132 98.5 122 c 0
 88.8333 112 84 100 84 86 c 256
 84 72 88.8333 60.1667 98.5 50.5 c 0
 108.167 40.8333 120 36 134 36 c 256
 148 36 160 40.8333 170 50.5 c 0
 180 60.1667 185 72 185 86 c 256xfca0
EndSplineSet
Substitution2: "<23,16000>  in Thai lookup 79 nested-substitutions 0 subtable" uni0E0F.alt1
Substitution2: "Single Substitution lookup 62 subtable" uni0E0F.alt1
EndChar

StartChar: uni0E10
Encoding: 3600 3600 229
Width: 515
VWidth: 1504
Flags: W
HStem: -331 42<30.2061 121.965> -220 35<322.507 378.858> -211 41<30.9248 125.526> -117 36<321.773 388.22> -14 50<255.913 355.427> 190 49<117.735 181.779> 319 50<118.233 184.996> 513 56<287.025 425.961> 549 53<141.784 311.46>
VStem: -21 47<-283.839 -216.658> 60 50<246.85 310.767> 129 44<-281.554 -241> 187 54<51.7531 196 250.345 315.31> 278 41<-182.5 -119.27> 372 54<52.1707 359.08> 379 51<-286 -218> 391 39<-182.53 -119.683>
DStem2: 176 -197 173 -241 0.638336 -0.769758<31.9543 101.402> 307 -241 307 -284 0.847998 -0.529999<22.79 84.9058>
LayerCount: 2
Fore
SplineSet
426 119 m 2x9efe
 426 31 385.667 -13.3333 305 -14 c 0
 225.667 -14 186.333 30.3333 187 119 c 2
 187 196 l 1
 175.667 192 163 190 149 190 c 0
 123.667 190 102.5 198.167 85.5 214.5 c 0
 68.5 230.833 60 251.667 60 277 c 0
 60 303 68.5 324.833 85.5 342.5 c 0
 102.5 360.167 123.667 369 149 369 c 0
 175 369 196.833 361.167 214.5 345.5 c 0
 232.167 329.833 241 308 241 280 c 2
 241 114 l 2
 241 62 262.333 36 305 36 c 0
 349 36 371.333 62 372 114 c 2
 372 332 l 2
 372 356 323.333 380.333 226 405 c 0
 168 420.333 105.667 432.333 39 441 c 1
 42.3333 487 60 525.334 92 556 c 0
 124 586.667 166.667 602 220 602 c 0x9efe
 241.333 602 269.667 596.5 305 585.5 c 0
 340.333 574.5 367.667 569 387 569 c 0x9f7e
 411 569 425.333 580 430 602 c 1x9efc80
 477 591 l 1
 461 539 432 513 390 513 c 0x9f7c80
 368 513 337.667 519 299 531 c 0
 260.333 543 231 549 211 549 c 0
 187.667 549 165.167 542.167 143.5 528.5 c 0
 121.833 514.833 110 499 108 481 c 1
 208 461 279.333 443 322 427 c 0
 391.333 401.667 426 371.667 426 337 c 2
 426 119 l 2x9efe
430 -325 m 1xde7c80
 372 -325 l 1xde7e
 307 -284 l 1
 241 -323 l 1
 173 -241 l 1
 171.667 -269 161.5 -291 142.5 -307 c 0
 123.5 -323 101 -331 75 -331 c 0
 11 -329.667 -21 -301 -21 -245 c 0
 -21 -221 -11 -202.5 9 -189.5 c 0
 29 -176.5 52.6667 -170 80 -170 c 0
 103.333 -170 120.667 -172.333 132 -177 c 1
 138 -135.667 160.333 -105.333 199 -86 c 1
 239 -108 l 1
 197.667 -128 176.667 -157.667 176 -197 c 1
 242 -274 l 1
 307 -241 l 1
 379 -286 l 1
 379 -218 l 1xbe7d
 373.667 -219.333 365.667 -220 355 -220 c 0
 333.667 -220 315.5 -213.167 300.5 -199.5 c 0
 285.5 -185.833 278 -169.333 278 -150 c 256
 278 -130.667 285.5 -114.333 300.5 -101 c 0
 315.5 -87.6667 333.667 -81 355 -81 c 0
 375 -81 392.5 -87.3333 407.5 -100 c 0
 422.5 -112.667 430 -129.333 430 -150 c 2
 430 -325 l 1xde7c80
126 -221 m 1
 116 -213.667 99 -210.333 75 -211 c 1xbe7c
 41.6667 -213 25.3333 -226 26 -250 c 0
 26 -276 41.3333 -289 72 -289 c 0
 110 -289 129 -273 129 -241 c 0
 129 -235.667 128 -229 126 -221 c 1
391 -150 m 0xde7c80
 391 -128 379 -117 355 -117 c 256
 331 -117 319 -128 319 -150 c 0
 319 -173.333 331 -185 355 -185 c 256
 379 -185 391 -173.333 391 -150 c 0xde7c80
190 278 m 256
 190 289.333 185.833 299 177.5 307 c 0
 169.167 315 159.667 319 149 319 c 256
 137.666 319 128.333 315 121 307 c 0
 113.667 299 110 289.333 110 278 c 256
 110 266.667 113.667 257.333 121 250 c 0
 128.333 242.667 137.667 239 149 239 c 256
 160.333 239 170 242.667 178 250 c 0
 186 257.334 190 266.668 190 278 c 256
EndSplineSet
Substitution2: "<23,16000>  in Thai lookup 69 nested-substitutions 7 subtable" uni0E10.alt1
Substitution2: "Single Substitution lookup 62 subtable" uni0E10.alt1
EndChar

StartChar: uni0E11
Encoding: 3601 3601 230
Width: 693
VWidth: 1504
Flags: W
HStem: 0 21G<217 291.49 555 609> 275 51<87.9462 162.119> 423 48<87.4743 162.226> 549 53<484.42 545.9>
VStem: 23 54<336.768 456.899> 173 48<336.845 412.448> 217 48<80 281.196> 298 49<379.527 536.225> 555 54<0 542.18>
DStem2: 301 193 284 0 0.350721 0.93648<-116.421 406.421>
LayerCount: 2
Fore
SplineSet
609 0 m 1xfb80
 555 0 l 1
 555 481 l 2
 555 526.333 540.333 549 511 549 c 0
 499.667 549 487.667 536 475 510 c 1
 284 0 l 1
 217 0 l 1
 217 220 l 2xfb80
 217 252 230.5 292.333 257.5 341 c 0
 284.5 389.667 298 429.333 298 460 c 0
 298 514 282 544.333 250 551 c 1
 197 487 l 1
 143 549 l 1
 111 527 89.3333 498 78 462 c 1
 92 468 108 471 126 471 c 0
 155.333 471 178.5 461.667 195.5 443 c 0
 212.5 424.333 221 401 221 373 c 0xfd80
 221 343.667 211.667 320 193 302 c 0
 174.333 284 151.667 275 125 275 c 0
 91 275 65 289 47 317 c 0
 31 342.333 23 373 23 409 c 0
 23 452.333 35.5 493.5 60.5 532.5 c 0
 85.5 571.5 118.333 595 159 603 c 1
 197 551 l 1
 238 603 l 1
 311.334 593.667 347.667 544.667 347 456 c 0
 347 424.667 334.333 383.5 309 332.5 c 0
 283.667 281.5 271 240 271 208 c 1
 265 80 l 1
 276.333 122 288.333 159.667 301 193 c 2
 424 517 l 2
 445.333 573 476 601.333 516 602 c 0
 578 602 609 561.667 609 481 c 2
 609 0 l 1xfb80
173 375 m 256xfd80
 173 389 168.5 400.5 159.5 409.5 c 0
 150.5 418.5 139 423 125 423 c 256
 111 423 99.5 418.5 90.5 409.5 c 0
 81.5 400.5 77 389 77 375 c 256
 77 361 81.5 349.333 90.5 340 c 0
 99.5 330.667 111 326 125 326 c 256
 139 326 150.5 330.667 159.5 340 c 0
 168.5 349.333 173 361 173 375 c 256xfd80
EndSplineSet
EndChar

StartChar: uni0E12
Encoding: 3602 3602 231
Width: 800
VWidth: 1504
Flags: W
HStem: -12 48<404.283 480.45> 0 21G<111 166.667 649 716> 382 39<233.567 305.532> 580 10G<167.333 208.837 333.591 374 662 716>
VStem: 48 54<289.366 477.562> 111 54<0 65.7343 129 232.57> 182 41<297.25 371.347> 317 43<300.408 368.076> 344 49<47.6071 125.141> 435 54<182.927 492.565> 493 50<48.0428 106.669> 662 54<78 590>
DStem2: 190 600 181 546 0.703101 -0.71109<29.4933 118.105>
LayerCount: 2
Fore
SplineSet
716 0 m 1x7f70
 662 0 l 1x7f70
 636 43.3333 595.333 79 540 107 c 1
 542 101 543 94 543 86 c 0
 543 60 534 37.1667 516 17.5 c 0
 498 -2.16667 474 -12 444 -12 c 256
 414 -12 389.833 -2.16667 371.5 17.5 c 0
 353.167 37.1667 344 60.3333 344 87 c 0xbef0
 344 113 352.833 135.667 370.5 155 c 0
 388.167 174.333 409.667 185 435 187 c 1
 435 391 l 2
 435 463 412 514.334 366 545 c 1
 269 457 l 1
 181 546 l 1
 157.667 530.667 138.667 508 124 478 c 0
 109.333 448 102 418 102 388 c 0
 102 358.667 112.333 316.833 133 262.5 c 0
 153.667 208.167 164.333 163.667 165 129 c 1
 173 146.333 188.333 166 211 188 c 1
 237 212 254.333 230.667 263 244 c 1
 237.666 247.333 217.833 257.167 203.5 273.5 c 0
 189.167 289.833 182 309.333 182 332 c 0
 182 357.333 190.5 378.5 207.5 395.5 c 0
 224.5 412.5 245.667 421 271 421 c 256
 296.334 421 317.667 412.333 335 395 c 0
 352.335 377.667 360.668 356.667 360 332 c 0
 358 286 325.833 230.667 263.5 166 c 0
 201.167 101.333 168.333 46 165 0 c 1
 111 0 l 1
 111 137 l 2
 111 167 100.5 208.333 79.5 261 c 0
 58.5 313.667 48 354 48 382 c 0
 48 431.333 59.6667 476 83 516 c 0
 109 560 144.667 588 190 600 c 1
 271 514 l 1
 352 602 l 1
 396 594 429.833 569.833 453.5 529.5 c 0
 477.167 489.167 489 445 489 397 c 2
 489 179 l 1
 571 151 628.667 117.333 662 78 c 1
 662 590 l 1
 716 590 l 1
 716 0 l 1x7f70
317 334 m 256
 317 348 312.5 359.5 303.5 368.5 c 0
 294.5 377.5 283 382 269 382 c 256
 255 382 243.833 377.5 235.5 368.5 c 0
 227.167 359.5 223 348 223 334 c 256
 223 320 227.167 308.667 235.5 300 c 0
 243.833 291.333 255 287 269 287 c 256
 283 287 294.5 291.333 303.5 300 c 0
 312.5 308.667 317 320 317 334 c 256
493 86 m 256
 493 100 488 112 478 122 c 0
 468 132 456 137 442 137 c 256
 428 137 416.333 132 407 122 c 0
 397.667 112 393 100 393 86 c 256
 393 72 397.667 60.1667 407 50.5 c 0
 416.333 40.8333 428 36 442 36 c 256xbef0
 456 36 468 40.8333 478 50.5 c 0
 488 60.1667 493 72 493 86 c 256
EndSplineSet
EndChar

StartChar: uni0E13
Encoding: 3603 3603 232
Width: 816
VWidth: 1504
Flags: W
HStem: -14 47<148.1 222.702 624.285 701.392> 0 21G<403 482> 137 48<146.874 223.715> 554 48<178.943 345.487> 570 20G<678 733>
VStem: 86 54<50.9548 121.53 176 336.578> 236 48<48.3503 124.282> 403 54<72 493.453> 564 48<48.4702 92.9004> 678 55<210.63 590> 714 50<45.3599 122.599>
LayerCount: 2
Fore
SplineSet
764 84 m 0x2fa0
 764 56 754.5 32.6667 735.5 14 c 0
 716.5 -4.66667 692.333 -14 663 -14 c 0xafa0
 635 -14 611.5 -4.66667 592.5 14 c 0
 573.5 32.6667 564 56 564 84 c 2
 564 93 l 1
 528 79 496 48 468 0 c 1
 403 0 l 1x67a0
 403 399 l 2
 403 502.333 354.333 554 257 554 c 0
 225 554 195.167 544.333 167.5 525 c 0
 139.833 505.667 120.667 480.667 110 450 c 1
 166 446 206 424 230 384 c 1
 206 378.667 185 365.5 167 344.5 c 0
 149 323.5 140 300 140 274 c 2
 140 176 l 1
 153.333 182 168.333 185 185 185 c 0
 213 185 236.5 175.5 255.5 156.5 c 0
 274.5 137.5 284 114.333 284 87 c 0
 284 57.6667 274.833 33.5 256.5 14.5 c 0
 238.167 -4.5 214.333 -14 185 -14 c 256
 155.667 -14 131.833 -4.16667 113.5 15.5 c 0
 95.1667 35.1667 86 59.6667 86 89 c 2
 86 272 l 2
 86 326 112 365.667 164 391 c 1
 126 406.333 86.3333 412 45 408 c 1
 54.3333 464 78.6667 510.333 118 547 c 0
 157.333 583.667 204.667 602 260 602 c 0xb7a0
 322 602 370.333 584.833 405 550.5 c 0
 439.667 516.166 457 467.666 457 405 c 2
 457 72 l 1
 480.333 102 512.667 126.667 554 146 c 0
 603.333 170 632.333 185.667 641 193 c 0
 666.333 215 678.667 248.333 678 293 c 2
 678 590 l 1
 733 590 l 1
 733 296 l 2x2fc0
 733 236 723.333 196.333 704 177 c 1
 744 160.333 764 129.333 764 84 c 0x2fa0
236 86 m 256
 236 100 231 112 221 122 c 0
 211 132 199 137 185 137 c 256
 171 137 159.167 132 149.5 122 c 0
 139.833 112 135 100 135 86 c 256
 135 72 139.833 60.1667 149.5 50.5 c 0
 159.167 40.8333 171 36 185 36 c 256
 199 36 211 40.8333 221 50.5 c 0
 231 60.1667 236 72 236 86 c 256
714 84 m 256
 714 98 709 110 699 120 c 0
 689 130 677 135 663 135 c 256
 649 135 637 130 627 120 c 0
 617 110 612 98 612 84 c 256
 612 70 617 58 627 48 c 0
 637 38 649 33 663 33 c 256
 677 33 689 38 699 48 c 0
 709 58 714 70 714 84 c 256
EndSplineSet
EndChar

StartChar: uni0E14
Encoding: 3604 3604 233
Width: 588
VWidth: 1504
Flags: W
HStem: 0 21G<98 153.333 450 504> 280 42<246.923 280> 415 42<244.064 315.436> 554 48<191.752 379.01>
VStem: 48 54<278.72 468.88> 98 52<0 63.5346 116.317 249.036> 191 42<333.064 403.876> 326 43<333.227 404.765> 450 54<0 483.35>
LayerCount: 2
Fore
SplineSet
504 0 m 1xfb80
 450 0 l 1
 450 391 l 2
 450 499 392.333 553.333 277 554 c 0
 231 554 190.333 538.167 155 506.5 c 0
 119.667 474.833 102 436 102 390 c 0xfb80
 102 360.667 110 321.167 126 271.5 c 0
 142 221.833 150 183.333 150 156 c 0
 150 136 149 122.667 147 116 c 1
 159 142 179.667 171 209 203 c 0
 232.333 228.333 256 254 280 280 c 1
 254.667 280 233.5 288.5 216.5 305.5 c 0
 199.5 322.5 191 343.667 191 369 c 256
 191 394.333 199.5 415.333 216.5 432 c 0
 233.5 448.667 254.667 457 280 457 c 256
 305.333 457 326.5 448.5 343.5 431.5 c 0
 360.5 414.5 369 393.667 369 369 c 0
 369 321 333.5 259.833 262.5 185.5 c 0
 191.5 111.167 154.667 49.3333 152 0 c 1
 98 0 l 1
 98 135 l 2xf780
 98 164.333 89.6667 205.833 73 259.5 c 0
 56.3333 313.167 48 354 48 382 c 0
 48 450 70.6667 503.667 116 543 c 0
 161.333 582.333 217.333 602 284 602 c 0
 353.333 602 407.333 583.667 446 547 c 0
 484.667 510.333 504 461 504 399 c 2
 504 0 l 1xfb80
326 369 m 256
 326 382.333 321.5 393.333 312.5 402 c 0
 303.5 410.667 292.667 415 280 415 c 256
 266.667 415 255.5 410.5 246.5 401.5 c 0
 237.5 392.5 233 381.667 233 369 c 256
 233 355.667 237.5 344.5 246.5 335.5 c 0
 255.5 326.5 266.667 322 280 322 c 256
 293.333 322 304.333 326.5 313 335.5 c 0
 321.667 344.5 326 355.667 326 369 c 256
EndSplineSet
EndChar

StartChar: uni0E15
Encoding: 3605 3605 234
Width: 588
VWidth: 1504
Flags: W
HStem: 0 21G<99 154.667 450 504> 382 41<247.162 317.898> 582 20G<165.333 210.41 346.277 389>
VStem: 48 56<271.478 488.448> 99 54<0 62.5436 119 245.818> 193 43<299.397 371.397> 329 40<300.095 370.918> 450 54<0 492.369>
DStem2: 188 602 179 546 0.753491 -0.657458<25.2971 124.644> 281 519 281 457 0.736839 0.676069<0 94.0173>
LayerCount: 2
Fore
SplineSet
504 0 m 1xf7
 450 0 l 1
 450 391 l 2
 450 465 426 516.667 378 546 c 1
 281 457 l 1
 179 546 l 1
 129 514 104 462 104 390 c 0xf7
 104 358.667 112 315.667 128 261 c 0
 144 206.333 152 159 152 119 c 1
 162 139 182.333 161.5 213 186.5 c 0
 243.667 211.5 264 231.667 274 247 c 1
 250.667 249 231.333 258 216 274 c 0
 200.667 290 193 310 193 334 c 0
 193 359.333 201.167 380.5 217.5 397.5 c 0
 233.833 414.5 254.667 423 280 423 c 256
 305.333 423 326.5 414.5 343.5 397.5 c 0
 360.5 380.5 369 359.333 369 334 c 0
 369 288 333.833 232.833 263.5 168.5 c 0
 193.167 104.167 156.333 48 153 0 c 1
 99 0 l 1
 99 135 l 2xef
 99 164.333 90.5 205.833 73.5 259.5 c 0
 56.5 313.167 48 354 48 382 c 0
 48 431.333 59 476 81 516 c 0
 107 561.333 142.667 590 188 602 c 1
 281 519 l 1
 367 602 l 1
 411 594 445.667 568.333 471 525 c 0
 493 487.667 504 445.667 504 399 c 2
 504 0 l 1xf7
329 335 m 256
 329 348.333 324.5 359.5 315.5 368.5 c 0
 306.5 377.5 295.667 382 283 382 c 256
 269.667 382 258.5 377.5 249.5 368.5 c 0
 240.5 359.5 236 348.333 236 335 c 256
 236 321.667 240.5 310.667 249.5 302 c 0
 258.5 293.333 269.667 289 283 289 c 256
 296.333 289 307.333 293.333 316 302 c 0
 324.667 310.667 329 321.667 329 335 c 256
EndSplineSet
EndChar

StartChar: uni0E16
Encoding: 3606 3606 235
Width: 568
VWidth: 1504
Flags: W
HStem: -12 48<142.358 219.51> 0 21G<430 484> 137 51<142.954 219.412> 554 48<181.615 356.634>
VStem: 80 54<50.9548 121.53 177 337.928> 232 48<48.1671 124.259> 430 54<0 482.332>
LayerCount: 2
Fore
SplineSet
484 0 m 1x7e
 430 0 l 1x7e
 430 393 l 2
 430 444.333 415 484 385 512 c 0
 355 540 315.333 554 266 554 c 0
 232 554 199.5 544.167 168.5 524.5 c 0
 137.5 504.833 116 480 104 450 c 1
 165.333 444.667 205 423 223 385 c 1
 199.667 379.667 179 366.333 161 345 c 0
 143 323.667 134 300.333 134 275 c 2
 134 177 l 1
 150 184.333 165 188 179 188 c 0
 207 188 230.833 178.167 250.5 158.5 c 0
 270.167 138.833 280 115 280 87 c 0
 280 57 270.5 33 251.5 15 c 0
 232.5 -3 208.333 -12 179 -12 c 0xbe
 151 -12 127.5 -2.5 108.5 16.5 c 0
 89.5 35.5 80 59 80 87 c 2
 80 274 l 2
 80 328 105.333 367.667 156 393 c 1
 128.667 404.336 89.6667 409.67 39 409 c 1
 47 464.333 73.1667 510.333 117.5 547 c 0
 161.833 583.667 212.333 602 269 602 c 0
 333 602 384.833 583.833 424.5 547.5 c 0
 464.167 511.167 484 461.667 484 399 c 2
 484 0 l 1x7e
232 86 m 256
 232 100 227 112 217 122 c 0
 207 132 195 137 181 137 c 256
 167 137 155.167 132 145.5 122 c 0
 135.833 112 131 100 131 86 c 256
 131 72 135.667 60.1667 145 50.5 c 0
 154.333 40.8333 166.333 36 181 36 c 256xbe
 195 36 207 40.8333 217 50.5 c 0
 227 60.1667 232 72 232 86 c 256
EndSplineSet
EndChar

StartChar: uni0E17
Encoding: 3607 3607 236
Width: 646
VWidth: 1504
Flags: W
HStem: 0 21G<170 234.49 508 563> 403 48<86.6077 163.687> 554 48<83.8237 166.176 433.305 496.192>
VStem: 26 48<463.396 544.513> 170 54<108.978 414 466.47 547.698> 508 55<0 542.18>
DStem2: 244 193 227 0 0.350721 0.93648<-88.0872 404.616>
LayerCount: 2
Fore
SplineSet
563 0 m 1
 508 0 l 1
 508 481 l 2
 508 526.333 493.667 549 465 549 c 0
 447 549 431.333 536 418 510 c 1
 227 0 l 1
 170 0 l 1
 170 414 l 1
 156.667 406.667 141.667 403 125 403 c 0
 97.6667 403 74.3333 412.833 55 432.5 c 0
 35.6667 452.167 26 475.333 26 502 c 256
 26 529.333 35.6667 552.833 55 572.5 c 0
 74.3334 592.167 97.6667 602 125 602 c 256
 152.333 602 175.667 592.167 195 572.5 c 0
 214.333 552.833 224 529.333 224 502 c 2
 224 208 l 1
 222 162 219.667 128.667 217 108 c 1
 223 128 232 156.333 244 193 c 1
 366 517 l 2
 387.334 573 421.667 601.333 469 602 c 0
 531 602 562.333 561.667 563 481 c 2
 563 0 l 1
176 502 m 256
 176 516 171 528.167 161 538.5 c 0
 151 548.833 139 554 125 554 c 256
 111 554 99 548.833 89 538.5 c 0
 79 528.167 74 516 74 502 c 256
 74 488 79 476 89 466 c 0
 99 456 111 451 125 451 c 256
 139 451 151 456 161 466 c 0
 171 476 176 488 176 502 c 256
EndSplineSet
EndChar

StartChar: uni0E18
Encoding: 3608 3608 237
Width: 503
VWidth: 1504
Flags: W
HStem: -11 49<163.988 338.54> 519 50<271.483 411.397> 554 48<134.785 299.054>
VStem: 86 54<62.2728 349> 363 54<62.2727 361>
LayerCount: 2
Fore
SplineSet
417 114 m 2xb8
 417 30.6667 361.667 -11 251 -11 c 256
 141 -11 86 30.6667 86 114 c 2
 86 349 l 1
 140 349 l 1
 140 111 l 2
 140 61.6667 177 37.3333 251 38 c 256
 325 38 362.333 62.3333 363 111 c 2
 363 334 l 2
 363 358 314.333 382 217 406 c 0
 157.667 421.333 95.3333 433.333 30 442 c 1
 33.3333 487.334 49.6667 525.334 79 556 c 0
 108.333 586.667 148.667 602 200 602 c 0xb8
 223.333 602 253.5 596.5 290.5 585.5 c 0
 327.5 574.5 355 569 373 569 c 0
 397 569 411 580.333 415 603 c 1
 462 593 l 1
 446.667 543.667 418 519 376 519 c 0xd8
 354 519 323.667 524.833 285 536.5 c 0
 246.333 548.167 217 554 197 554 c 0
 175.667 554 154.833 546.833 134.5 532.5 c 0
 114.167 518.165 102.333 501.665 99 483 c 1
 207 461 273.667 446 299 438 c 0
 377 412 416.333 378.667 417 338 c 2
 417 114 l 2xb8
EndSplineSet
EndChar

StartChar: uni0E19
Encoding: 3609 3609 238
Width: 631
VWidth: 1504
Flags: W
HStem: -12 48<439.757 516.467> 0 21G<170 253.333> 403 48<86.6077 163.687> 554 48<83.8237 166.176> 570 20G<493 548>
VStem: 26 48<463.396 544.513> 170 54<59 414 466.47 547.698> 381 46<51.4702 95.9004> 493 55<218.853 590> 529 49<48.7178 125.336>
LayerCount: 2
Fore
SplineSet
578 86 m 0x2f40
 578 58.6667 568.167 35.5 548.5 16.5 c 0
 528.833 -2.5 505.333 -12 478 -12 c 256xaf40
 450.667 -12 427.667 -2.5 409 16.5 c 0
 390.333 35.5 381 58.6667 381 86 c 2
 381 96 l 1
 319 70.6667 270.667 38.6667 236 0 c 1
 170 0 l 1
 170 414 l 1
 156.667 406.667 141.667 403 125 403 c 0
 97.6667 403 74.3333 412.833 55 432.5 c 0
 35.6667 452.167 26 475.333 26 502 c 256
 26 529.333 35.6667 552.833 55 572.5 c 0
 74.3334 592.167 97.6667 602 125 602 c 256x7740
 152.333 602 175.667 592.167 195 572.5 c 0
 214.333 552.833 224 529.333 224 502 c 2
 224 59 l 1
 244 81 279.667 103.333 331 126 c 0
 388.333 152 425.333 172.333 442 187 c 0
 476 214.333 493 248.667 493 290 c 2
 493 590 l 1
 548 590 l 1
 548 283 l 2x2f80
 548 235 536.667 199.667 514 177 c 1
 556.667 160.333 578 130 578 86 c 0x2f40
176 502 m 256
 176 516 171 528.167 161 538.5 c 0
 151 548.833 139 554 125 554 c 256x37
 111 554 99 548.833 89 538.5 c 0
 79 528.167 74 516 74 502 c 256
 74 488 79 476 89 466 c 0
 99 456 111 451 125 451 c 256
 139 451 151 456 161 466 c 0
 171 476 176 488 176 502 c 256
529 87 m 256xa740
 529 101 524 113 514 123 c 0
 504 133 492 138 478 138 c 256
 464 138 452 133 442 123 c 0
 432 113 427 101 427 87 c 256
 427 73 432 61 442 51 c 0
 452 41 464 36 478 36 c 256
 492 36 504 41 514 51 c 0
 524 61 529 73 529 87 c 256xa740
EndSplineSet
EndChar

StartChar: uni0E1A
Encoding: 3610 3610 239
Width: 643
VWidth: 1504
Flags: W
HStem: -12 50<262.641 466.269> 403 48<86.6077 163.687> 554 48<83.8237 166.176> 570 20G<505 560>
VStem: 26 48<463.396 544.513> 170 54<73.4493 414 466.47 547.698> 505 55<73.4492 590>
LayerCount: 2
Fore
SplineSet
560 128 m 2xde
 560 34.6667 495.333 -12 366 -12 c 0
 235.333 -12 170 34.6667 170 128 c 2
 170 414 l 1
 156.667 406.667 141.667 403 125 403 c 0
 97.6667 403 74.3333 412.833 55 432.5 c 0
 35.6667 452.167 26 475.333 26 502 c 256
 26 529.333 35.6667 552.833 55 572.5 c 0
 74.3334 592.167 97.6667 602 125 602 c 256xee
 152.333 602 175.667 592.167 195 572.5 c 0
 214.333 552.833 224 529.333 224 502 c 2
 224 132 l 2
 224 68.6667 271.333 37.3333 366 38 c 0
 459.334 38 505.667 69.3333 505 132 c 2
 505 590 l 1
 560 590 l 1
 560 128 l 2xde
176 502 m 256
 176 516 171 528.167 161 538.5 c 0
 151 548.833 139 554 125 554 c 256
 111 554 99 548.833 89 538.5 c 0
 79 528.167 74 516 74 502 c 256
 74 488 79 476 89 466 c 0
 99 456 111 451 125 451 c 256
 139 451 151 456 161 466 c 0
 171 476 176 488 176 502 c 256
EndSplineSet
EndChar

StartChar: uni0E1B
Encoding: 3611 3611 240
Width: 643
VWidth: 1504
Flags: W
HStem: -12 50<262.641 466.269> 403 48<86.6077 163.687> 554 48<83.8237 166.176>
VStem: 26 48<463.396 544.513> 170 54<73.4493 414 466.47 547.698> 505 55<73.4492 841>
LayerCount: 2
Fore
SplineSet
560 128 m 2
 560 34.6667 495.333 -12 366 -12 c 0
 235.333 -12 170 34.6667 170 128 c 2
 170 414 l 1
 156.667 406.667 141.667 403 125 403 c 0
 97.6667 403 74.3333 412.833 55 432.5 c 0
 35.6667 452.167 26 475.333 26 502 c 256
 26 529.333 35.6667 552.833 55 572.5 c 0
 74.3334 592.167 97.6667 602 125 602 c 256
 152.333 602 175.667 592.167 195 572.5 c 0
 214.333 552.833 224 529.333 224 502 c 2
 224 132 l 2
 224 68.6667 271.333 37.3333 366 38 c 0
 459.334 38 505.667 69.3333 505 132 c 2
 505 841 l 1
 560 841 l 1
 560 128 l 2
176 502 m 256
 176 516 171 528.167 161 538.5 c 0
 151 548.833 139 554 125 554 c 256
 111 554 99 548.833 89 538.5 c 0
 79 528.167 74 516 74 502 c 256
 74 488 79 476 89 466 c 0
 99 456 111 451 125 451 c 256
 139 451 151 456 161 466 c 0
 171 476 176 488 176 502 c 256
EndSplineSet
EndChar

StartChar: uni0E1C
Encoding: 3612 3612 241
Width: 573
VWidth: 1504
Flags: W
HStem: 0 21G<60 132.941 415.975 489> 403 48<122.342 199.659> 554 48<120.139 201.792> 570 20G<435 489>
VStem: 60 54<81 414 466.47 546.633> 212 47<463.721 544.513> 435 54<81 590>
DStem2: 114 81 120 0 0.543251 0.83957<0 218.733> 293 295 274 238 0.545731 -0.837961<37.3949 256.817>
LayerCount: 2
Fore
SplineSet
489 0 m 1xde
 429 0 l 1
 274 238 l 1
 120 0 l 1
 60 0 l 1
 60 502 l 2
 60 529.333 69.5 552.833 88.5 572.5 c 0
 107.5 592.167 131 602 159 602 c 0xee
 186.333 602 209.833 592.167 229.5 572.5 c 0
 249.167 552.833 259 529.333 259 502 c 0
 259 476 249.5 453 230.5 433 c 0
 211.5 413 187.667 403 159 403 c 0
 145 403 130 406.667 114 414 c 1
 114 81 l 1
 253 295 l 1
 293 295 l 1
 435 81 l 1
 435 590 l 1
 489 590 l 1
 489 0 l 1xde
212 502 m 256
 212 516 207 528.167 197 538.5 c 0
 187 548.833 175 554 161 554 c 256
 147 554 135 548.833 125 538.5 c 0
 115 528.167 110 516 110 502 c 256
 110 488 115 476 125 466 c 0
 135 456 147 451 161 451 c 256
 175 451 187 456 197 466 c 0
 207 476 212 488 212 502 c 256
EndSplineSet
EndChar

StartChar: uni0E1D
Encoding: 3613 3613 242
Width: 573
VWidth: 1504
Flags: W
HStem: 0 21G<60 132.941 415.975 489> 403 48<122.342 199.659> 554 48<120.139 201.792>
VStem: 60 54<81 414 466.47 546.633> 212 47<463.721 544.513> 435 54<81 841>
DStem2: 114 81 120 0 0.543251 0.83957<0 218.733> 293 295 274 238 0.545731 -0.837961<37.3949 256.817>
LayerCount: 2
Fore
SplineSet
489 0 m 1
 429 0 l 1
 274 238 l 1
 120 0 l 1
 60 0 l 1
 60 502 l 2
 60 529.333 69.5 552.833 88.5 572.5 c 0
 107.5 592.167 131 602 159 602 c 0
 186.333 602 209.833 592.167 229.5 572.5 c 0
 249.167 552.833 259 529.333 259 502 c 0
 259 476 249.5 453 230.5 433 c 0
 211.5 413 187.667 403 159 403 c 0
 145 403 130 406.667 114 414 c 1
 114 81 l 1
 253 295 l 1
 293 295 l 1
 435 81 l 1
 435 841 l 1
 489 841 l 1
 489 0 l 1
212 502 m 256
 212 516 207 528.167 197 538.5 c 0
 187 548.833 175 554 161 554 c 256
 147 554 135 548.833 125 538.5 c 0
 115 528.167 110 516 110 502 c 256
 110 488 115 476 125 466 c 0
 135 456 147 451 161 451 c 256
 175 451 187 456 197 466 c 0
 207 476 212 488 212 502 c 256
EndSplineSet
EndChar

StartChar: uni0E1E
Encoding: 3614 3614 243
Width: 672
VWidth: 1504
Flags: W
HStem: 0 21G<170 241.479 516.521 588> 403 48<86.6077 163.687> 554 48<83.8237 166.176> 570 20G<347.509 410.491 534 588>
VStem: 26 48<463.396 544.513> 170 54<85.0867 414 466.47 547.698> 522 66<0 25.5524> 534 54<85.1174 590>
DStem2: 217 83 236 0 0.264212 0.964465<0 466.202> 405 590 379 522 0.264212 -0.964465<58.7141 525.181>
LayerCount: 2
Fore
SplineSet
588 0 m 1xde
 522 0 l 1
 379 522 l 1
 236 0 l 1
 170 0 l 1
 170 414 l 1
 156.667 406.667 141.667 403 125 403 c 0
 97.6667 403 74.3333 412.833 55 432.5 c 0
 35.6667 452.167 26 475.333 26 502 c 256
 26 529.333 35.6667 552.833 55 572.5 c 0
 74.3334 592.167 97.6667 602 125 602 c 256xee
 152.333 602 175.667 592.167 195 572.5 c 0
 214.333 552.833 224 529.333 224 502 c 2
 224 188 l 2
 224 162.667 221.667 127.667 217 83 c 1
 224.333 116.333 233.333 153 244 193 c 2
 353 590 l 1
 405 590 l 1
 514 193 l 2
 525.333 153 534.667 116.333 542 83 c 1
 536.667 128.333 534 163.333 534 188 c 2
 534 590 l 1
 588 590 l 1xdd
 588 0 l 1xde
176 502 m 256
 176 516 171 528.167 161 538.5 c 0
 151 548.833 139 554 125 554 c 256
 111 554 99 548.833 89 538.5 c 0
 79 528.167 74 516 74 502 c 256
 74 488 79 476 89 466 c 0
 99 456 111 451 125 451 c 256
 139 451 151 456 161 466 c 0
 171 476 176 488 176 502 c 256
EndSplineSet
EndChar

StartChar: uni0E1F
Encoding: 3615 3615 244
Width: 672
VWidth: 1504
Flags: W
HStem: 0 21G<170 241.479 516.521 588> 403 48<86.6077 163.687> 554 48<83.8237 166.176> 570 20G<347.509 410.491>
VStem: 26 48<463.396 544.513> 170 54<85.0867 414 466.47 547.698> 522 66<0 25.5524> 534 54<85.1174 841>
DStem2: 217 83 236 0 0.264212 0.964465<0 466.202> 405 590 379 522 0.264212 -0.964465<58.7141 525.181>
LayerCount: 2
Fore
SplineSet
588 0 m 1xde
 522 0 l 1
 379 522 l 1
 236 0 l 1
 170 0 l 1
 170 414 l 1
 156.667 406.667 141.667 403 125 403 c 0
 97.6667 403 74.3333 412.833 55 432.5 c 0
 35.6667 452.167 26 475.333 26 502 c 256
 26 529.333 35.6667 552.833 55 572.5 c 0
 74.3334 592.167 97.6667 602 125 602 c 256xee
 152.333 602 175.667 592.167 195 572.5 c 0
 214.333 552.833 224 529.333 224 502 c 2
 224 188 l 2
 224 162.667 221.667 127.667 217 83 c 1
 224.333 116.333 233.333 153 244 193 c 2
 353 590 l 1
 405 590 l 1
 514 193 l 2
 525.333 153 534.667 116.333 542 83 c 1
 536.667 128.333 534 163.333 534 188 c 2
 534 841 l 1
 588 841 l 1xdd
 588 0 l 1xde
176 502 m 256
 176 516 171 528.167 161 538.5 c 0
 151 548.833 139 554 125 554 c 256
 111 554 99 548.833 89 538.5 c 0
 79 528.167 74 516 74 502 c 256
 74 488 79 476 89 466 c 0
 99 456 111 451 125 451 c 256
 139 451 151 456 161 466 c 0
 171 476 176 488 176 502 c 256
EndSplineSet
EndChar

StartChar: uni0E20
Encoding: 3616 3616 245
Width: 639
VWidth: 1504
Flags: W
HStem: -12 48<95.9247 172.64> 0 21G<501 555> 137 48<95.9247 169.468> 554 48<251.85 424.418>
VStem: 36 48<47.9247 124.929> 161 53<178.606 344.602> 185 48<48.1004 124.591> 501 54<0 477.273>
LayerCount: 2
Fore
SplineSet
555 0 m 1x7d
 501 0 l 1
 501 391 l 2
 501 440.333 485.667 479.833 455 509.5 c 0
 424.333 539.167 385 554 337 554 c 0
 303 554 270.167 544.167 238.5 524.5 c 0
 206.833 504.833 185 480 173 450 c 1
 226.333 444.667 267 422.667 295 384 c 1
 241 366 214 329.333 214 274 c 0x7d
 214 234.667 218.333 194.333 227 153 c 0
 231 135 233 114 233 90 c 0
 233 60.6667 224.333 36.3333 207 17 c 0
 189.667 -2.33333 165.333 -12 134 -12 c 0xbb
 106.667 -12 83.5 -2.5 64.5 16.5 c 0
 45.5 35.5 36 58.6667 36 86 c 256
 36 113.333 45.5 136.667 64.5 156 c 0
 83.5 175.333 106.667 185 134 185 c 0
 145.333 185 157.333 182.333 170 177 c 1
 164 223 161 258.333 161 283 c 0
 161 329 181 365 221 391 c 1
 193.667 403 167 409 141 409 c 0
 127.667 409 118.333 408.667 113 408 c 1
 118.333 464 142.667 510.333 186 547 c 0
 229.333 583.667 280 602 338 602 c 0
 402 602 454.167 583.667 494.5 547 c 0
 534.833 510.333 555 460.333 555 397 c 2
 555 0 l 1x7d
185 86 m 256xbb
 185 100 180 112 170 122 c 0
 160 132 148 137 134 137 c 256
 120 137 108.167 132 98.5 122 c 0
 88.8333 112 84 100 84 86 c 256
 84 72 88.8333 60.1667 98.5 50.5 c 0
 108.167 40.8333 120 36 134 36 c 256
 148 36 160 40.8333 170 50.5 c 0
 180 60.1667 185 72 185 86 c 256xbb
EndSplineSet
EndChar

StartChar: uni0E21
Encoding: 3617 3617 246
Width: 601
VWidth: 1504
Flags: W
HStem: -12 50<97.1143 179.61> 0 21G<420 517> 149 48<97.1792 169.75> 403 48<86.6077 163.687> 554 48<83.8237 166.176> 570 20G<463 517>
VStem: 26 48<463.396 544.513> 35 48<52.4244 134.606> 170 54<193 414 466.47 547.698> 194 50<52.4244 118.59> 463 54<56 590>
LayerCount: 2
Fore
SplineSet
517 0 m 1x76a0
 459 0 l 1x76a0
 381 60 307.667 99.6667 239 119 c 1
 242.333 109.667 244 100.667 244 92 c 0
 244 62.6667 233.667 38 213 18 c 0
 192.333 -2 167.333 -12 138 -12 c 256
 108.667 -12 84.1667 -2 64.5 18 c 0
 44.8333 38 35 62.6667 35 92 c 256xb160
 35 121.333 45 146.167 65 166.5 c 0
 85 186.833 109.333 197 138 197 c 0
 149.333 197 160 195.667 170 193 c 1
 170 414 l 1
 156.667 406.667 141.667 403 125 403 c 0
 97.6667 403 74.3333 412.833 55 432.5 c 0
 35.6667 452.167 26 475.333 26 502 c 256
 26 529.333 35.6667 552.833 55 572.5 c 0
 74.3334 592.167 97.6667 602 125 602 c 256xbaa0
 152.333 602 175.667 592.167 195 572.5 c 0
 214.333 552.833 224 529.333 224 502 c 2
 224 177 l 1
 323.333 141.667 403 101.333 463 56 c 1
 463 590 l 1
 517 590 l 1
 517 0 l 1x76a0
194 93 m 256xb160
 194 108.333 188.5 121.5 177.5 132.5 c 0
 166.5 143.5 153.333 149 138 149 c 256
 122.667 149 109.667 143.5 99 132.5 c 0
 88.3333 121.5 83 108.333 83 93 c 256
 83 77.6667 88.5 64.6667 99.5 54 c 0
 110.5 43.3333 123.333 38 138 38 c 256
 153.333 38 166.5 43.3333 177.5 54 c 0
 188.5 64.6667 194 77.6667 194 93 c 256xb160
176 502 m 256
 176 516 171 528.167 161 538.5 c 0
 151 548.833 139 554 125 554 c 256
 111 554 99 548.833 89 538.5 c 0
 79 528.167 74 516 74 502 c 256x3a20
 74 488 79 476 89 466 c 0
 99 456 111 451 125 451 c 256
 139 451 151 456 161 466 c 0
 171 476 176 488 176 502 c 256
EndSplineSet
EndChar

StartChar: uni0E22
Encoding: 3618 3618 247
Width: 564
VWidth: 1504
Flags: W
HStem: -12 50<168.894 379.639> 295 51<151.719 292> 432 37<149.705 226.709> 564 38<154.615 226.226> 570 20G<426 480>
VStem: 63 48<386.954 480.355> 72 54<77.1114 269.187> 238 39<479.825 552.602> 426 54<77.1113 590>
LayerCount: 2
Fore
SplineSet
480 134 m 2xeb80
 480 36.6667 412.333 -12 277 -12 c 0
 140.333 -12 72 36.6667 72 134 c 2
 72 211 l 2xeb80
 72 234.333 78.8333 256.333 92.5 277 c 0
 106.167 297.667 123 312 143 320 c 1
 89.6666 343.333 63 393 63 469 c 0
 63 508.333 74.3333 540.333 97 565 c 0
 119.667 589.667 151 602 191 602 c 0
 216.333 602 237 593.5 253 576.5 c 0
 269 559.5 277 539.333 277 516 c 256
 277 492.667 269.5 472.833 254.5 456.5 c 0
 239.5 440.167 218.333 432 191 432 c 0
 153.667 432 127.667 448.333 113 481 c 1
 111.667 477.667 111 469.667 111 457 c 0xf580
 111 429 119.833 403.5 137.5 380.5 c 0
 155.167 357.5 178 346 206 346 c 2
 292 346 l 1
 292 295 l 1
 205 295 l 2
 183 295 164.333 287 149 271 c 0
 133.667 255 126 234 126 208 c 2
 126 138 l 2
 126 70.6667 176.333 37.3333 277 38 c 0
 376.333 38 426 71.3333 426 138 c 2
 426 590 l 1
 480 590 l 1
 480 134 l 2xeb80
238 516 m 256
 238 530 233.5 541.5 224.5 550.5 c 0
 215.5 559.5 204 564 190 564 c 256xf180
 176 564 164.667 559.5 156 550.5 c 0
 147.333 541.5 143 530 143 516 c 0
 143 484.667 158.667 469 190 469 c 0
 204 469 215.5 473.333 224.5 482 c 0
 233.5 490.667 238 502 238 516 c 256
EndSplineSet
EndChar

StartChar: uni0E23
Encoding: 3619 3619 248
Width: 484
VWidth: 1504
Flags: W
HStem: -12 48<244.608 321.575> 138 49<244.608 321.453> 520 50<251.311 378.719> 554 48<126.489 281.169>
VStem: 184 48<48.3962 125.467> 328 54<51.4702 122.53 176 365.469>
LayerCount: 2
Fore
SplineSet
382 87 m 2xdc
 382 59.6667 373 36.3333 355 17 c 0
 337 -2.33333 313 -12 283 -12 c 0
 255.666 -12 232.333 -2.16667 213 17.5 c 0
 193.667 37.1667 184 60.3333 184 87 c 256
 184 114.333 193.667 137.833 213 157.5 c 0
 232.333 177.167 255.667 187 283 187 c 0
 300.333 187 315.333 183.333 328 176 c 1
 328 334 l 2
 328 375.333 231.333 411.333 38 442 c 1
 44 548 92.6667 601.333 184 602 c 0xdc
 205.333 602 235.167 596.667 273.5 586 c 0
 311.833 575.333 339.333 570 356 570 c 0
 366 570 375.667 581.667 385 605 c 1
 432 593 l 1
 416.667 545 391 520.667 355 520 c 0xec
 333.667 520 303.333 525.667 264 537 c 0
 224.667 548.333 194.667 554 174 554 c 0
 156 554 139.333 546.167 124 530.5 c 0
 108.667 514.833 100.333 499 99 483 c 1
 163 471.667 226.167 455 288.5 433 c 0
 350.833 411 382 379.333 382 338 c 2
 382 87 l 2xdc
334 87 m 256
 334 101 329 113 319 123 c 0
 309 133 297 138 283 138 c 256
 269 138 257 133 247 123 c 0
 237 113 232 101 232 87 c 256
 232 73 237 61 247 51 c 0
 257 41 269 36 283 36 c 256
 297 36 309 41 319 51 c 0
 329 61 334 73 334 87 c 256
EndSplineSet
EndChar

StartChar: uni0E24
Encoding: 3620 3620 249
Width: 568
VWidth: 1504
Flags: W
HStem: -12 48<142.358 219.957> 137 51<142.954 219.412> 554 48<181.615 356.634>
VStem: 80 54<50.9548 121.53 177 337.928> 232 48<48.0273 124.259> 430 54<-301 482.332>
LayerCount: 2
Fore
SplineSet
484 -301 m 1
 430 -301 l 1
 430 393 l 2
 430 444.333 415 484 385 512 c 0
 355 540 315.333 554 266 554 c 0
 232 554 199.5 544.167 168.5 524.5 c 0
 137.5 504.833 116 480 104 450 c 1
 165.333 444.667 205 423 223 385 c 1
 199.667 379.667 179 366.333 161 345 c 0
 143 323.667 134 300.333 134 275 c 2
 134 177 l 1
 150 184.333 165 188 179 188 c 0
 207 188 230.833 178.167 250.5 158.5 c 0
 270.167 138.833 280 115 280 87 c 256
 280 59 270.167 35.5 250.5 16.5 c 0
 230.833 -2.5 207 -12 179 -12 c 256
 151 -12 127.5 -2.5 108.5 16.5 c 0
 89.5 35.5 80 59 80 87 c 2
 80 274 l 2
 80 328 105.333 367.667 156 393 c 1
 128.667 404.336 89.6667 409.67 39 409 c 1
 47 464.333 73.1667 510.333 117.5 547 c 0
 161.833 583.667 212.333 602 269 602 c 0
 333 602 384.833 583.833 424.5 547.5 c 0
 464.167 511.167 484 461.667 484 399 c 2
 484 -301 l 1
232 86 m 256
 232 100 227 112 217 122 c 0
 207 132 195 137 181 137 c 256
 167 137 155.167 132 145.5 122 c 0
 135.833 112 131 100 131 86 c 256
 131 72 135.667 60.1667 145 50.5 c 0
 154.333 40.8333 166.333 36 181 36 c 256
 195 36 207 40.8333 217 50.5 c 0
 227 60.1667 232 72 232 86 c 256
EndSplineSet
EndChar

StartChar: uni0E25
Encoding: 3621 3621 250
Width: 573
VWidth: 1504
Flags: W
HStem: -12 48<136.532 213.415> 0 21G<435 489> 137 50<136.447 213.672> 367 53<185.132 370.608> 554 48<165.742 360.184>
VStem: 32 52<445 487.805> 72 54<50.9548 121.53 176 313.63> 226 49<48.3499 124.423> 435 54<0 314.656 360 491.661>
LayerCount: 2
Fore
SplineSet
489 0 m 1x7d80
 435 0 l 1x7d80
 435 257 l 2
 435 292.333 416.333 320.333 379 341 c 0
 347.667 358.333 311.667 367 271 367 c 0
 231 367 196.833 356.167 168.5 334.5 c 0
 140.167 312.833 126 285 126 251 c 2
 126 176 l 1
 140 183.333 156.667 187 176 187 c 0
 204 187 227.5 177.167 246.5 157.5 c 0
 265.5 137.833 275 114.333 275 87 c 256
 275 59.6667 265.5 36.3333 246.5 17 c 0
 227.5 -2.33333 204 -12 176 -12 c 0
 144.667 -12 119.5 -2 100.5 18 c 0
 81.5 38 72 61.6667 72 89 c 2
 72 251 l 2xbb80
 72 301 92 342.333 132 375 c 0
 169.333 405 214 420 266 420 c 0
 336 420 392.333 400 435 360 c 1
 435 433 l 2
 435 469 416 499 378 523 c 0
 344.667 543 308 553.333 268 554 c 0
 226 554 187.667 544.667 153 526 c 0
 115.667 506 92.6666 479 84 445 c 1
 32 445 l 1
 39.3333 491 66.3333 529.334 113 560 c 0
 157 588 207.667 602 265 602 c 0
 323 602 373 588.333 415 561 c 0
 464.333 529 489 485.333 489 430 c 2
 489 0 l 1x7d80
226 86 m 256
 226 100 221 112 211 122 c 0
 201 132 188.667 137 174 137 c 256
 160 137 148.333 132 139 122 c 0
 129.666 112 125 100 125 86 c 256
 125 72 129.667 60.1667 139 50.5 c 0
 148.333 40.8333 160 36 174 36 c 256xb980
 188 36 200.167 40.8333 210.5 50.5 c 0
 220.833 60.1667 226 72 226 86 c 256
EndSplineSet
EndChar

StartChar: uni0E26
Encoding: 3622 3622 251
Width: 639
VWidth: 1504
Flags: W
HStem: -12 48<95.9247 172.604> 137 48<95.9247 169.468> 554 48<251.85 424.418>
VStem: 36 48<47.9247 124.929> 161 53<178.606 344.602> 185 48<48.1004 124.591> 501 54<-301 477.273>
LayerCount: 2
Fore
SplineSet
555 -301 m 1xfa
 501 -301 l 1
 501 391 l 2
 501 440.333 485.667 479.833 455 509.5 c 0
 424.333 539.167 385 554 337 554 c 0
 303 554 270.167 544.167 238.5 524.5 c 0
 206.833 504.833 185 480 173 450 c 1
 226.333 444.667 267 422.667 295 384 c 1
 241 366 214 329.333 214 274 c 0xfa
 214 234.667 218.333 194.333 227 153 c 0
 231 135 233 114 233 90 c 0xf6
 233 60.6667 223.167 36.3333 203.5 17 c 0
 183.833 -2.33333 160.667 -12 134 -12 c 256
 106.667 -12 83.5 -2.5 64.5 16.5 c 0
 45.5 35.5 36 58.6667 36 86 c 256
 36 113.333 45.5 136.667 64.5 156 c 0
 83.5 175.333 106.667 185 134 185 c 0
 145.333 185 157.333 182.333 170 177 c 1
 164 223 161 258.333 161 283 c 0
 161 329 181 365 221 391 c 1
 193.667 403 167 409 141 409 c 0
 127.667 409 118.333 408.667 113 408 c 1
 118.333 464 142.667 510.333 186 547 c 0
 229.333 583.667 280 602 338 602 c 0
 402 602 454.167 583.667 494.5 547 c 0
 534.833 510.333 555 460.333 555 397 c 2
 555 -301 l 1xfa
185 86 m 256xf6
 185 100 180 112 170 122 c 0
 160 132 148 137 134 137 c 256
 120 137 108.167 132 98.5 122 c 0
 88.8333 112 84 100 84 86 c 256
 84 72 88.8333 60.1667 98.5 50.5 c 0
 108.167 40.8333 120 36 134 36 c 256
 148 36 160 40.8333 170 50.5 c 0
 180 60.1667 185 72 185 86 c 256xf6
EndSplineSet
EndChar

StartChar: uni0E27
Encoding: 3623 3623 252
Width: 503
VWidth: 1504
Flags: W
HStem: -12 48<281.608 362.513> 138 49<281.396 362.368> 554 48<130.797 311.286>
VStem: 15 56<445 494.046> 221 48<48.3962 125.467> 366 54<42.5429 132.141 176 501.656>
LayerCount: 2
Fore
SplineSet
420 87 m 2
 420 59.6667 410.167 36.3333 390.5 17 c 0
 370.833 -2.33333 347.333 -12 320 -12 c 256
 292.667 -12 269.333 -2.16667 250 17.5 c 0
 230.667 37.1667 221 60.3333 221 87 c 256
 221 114.333 230.833 137.833 250.5 157.5 c 0
 270.167 177.167 293.333 187 320 187 c 0
 337.334 187 352.667 183.333 366 176 c 1
 366 420 l 2
 366 509.333 316.333 554 217 554 c 0
 139 554 90.3333 517.667 71 445 c 1
 15 445 l 1
 37 549 105.333 601.333 220 602 c 0
 277.333 602 325 586.833 363 556.5 c 0
 401 526.166 420 483.666 420 429 c 2
 420 87 l 2
372 87 m 256
 372 101 366.833 113 356.5 123 c 0
 346.167 133 334 138 320 138 c 256
 306 138 294 133 284 123 c 0
 274 113 269 101 269 87 c 256
 269 73 274 61 284 51 c 0
 294 41 306 36 320 36 c 256
 334 36 346.167 41 356.5 51 c 0
 366.833 61 372 73 372 87 c 256
EndSplineSet
EndChar

StartChar: uni0E28
Encoding: 3624 3624 253
Width: 591
VWidth: 1504
Flags: W
HStem: 0 21G<98 152 453 507> 281 41<251.836 323.128> 554 48<192.896 355.028>
VStem: 50 55<271.328 469.802> 98 54<0 219.285> 334 42<332.849 404.471> 453 54<0 477.152>
DStem2: 238 445 254 401.5 0.8 0.6<-42.8414 20.6994 72.8 150.8>
LayerCount: 2
Fore
SplineSet
507 0 m 1xf6
 453 0 l 1
 453 405 l 2
 453 449 435.333 484.333 400 511 c 1
 392.667 505 367 485.667 323 453 c 1
 358.333 439 376 411 376 369 c 0
 376 345 367.5 324.333 350.5 307 c 0
 333.5 289.667 313 281 289 281 c 0
 259 281 235.333 292.667 218 316 c 1
 204 294.667 190 264.667 176 226 c 0
 160 178 152 135.333 152 98 c 2
 152 0 l 1
 98 0 l 1
 98 138 l 2xee
 98 167.333 90 208.5 74 261.5 c 0
 58 314.5 50 355.333 50 384 c 0
 50 449.333 72 502 116 542 c 0
 160 582 215 602 281 602 c 0
 323 602 362.667 593.333 400 576 c 1
 436 608 455 631.667 457 647 c 1
 526 647 l 1
 522 623 495 590 445 548 c 1
 486.333 514.667 507 468.333 507 409 c 2
 507 0 l 1xf6
356 539 m 1
 332 549 306 554 278 554 c 0
 232 554 191.667 538.167 157 506.5 c 0
 122.333 474.833 105 436 105 390 c 0xf6
 105 368 109 341.333 117 310 c 0
 128.333 266 134.333 241 135 235 c 1
 154.333 337 188.667 407 238 445 c 2
 356 539 l 1
334 369 m 256
 334 382.333 329.5 393.333 320.5 402 c 0
 311.5 410.667 300.333 415 287 415 c 256
 273.667 415 262.667 410.5 254 401.5 c 0
 245.333 392.5 241 381.667 241 369 c 256
 241 355.667 245.5 344.5 254.5 335.5 c 0
 263.5 326.5 274.333 322 287 322 c 256
 300.333 322 311.5 326.5 320.5 335.5 c 0
 329.5 344.5 334 355.667 334 369 c 256
EndSplineSet
EndChar

StartChar: uni0E29
Encoding: 3625 3625 254
Width: 658
VWidth: 1504
Flags: W
HStem: -12 50<265.949 478.729> 232 42<388.062 518.598> 403 48<86.6077 163.687> 403 39<325.229 391.942> 554 48<83.8237 166.176> 570 20G<520 575>
VStem: 26 48<463.396 544.513> 170 54<74.25 414 466.47 547.698> 275 41<325.621 393.783> 399 40<326.701 395.831> 520 55<74.7187 242 319 590>
LayerCount: 2
Fore
SplineSet
666 360 m 1xd7e0
 652 332.667 621.667 300.333 575 263 c 1
 575 128 l 2
 575 34.6667 507.667 -12 373 -12 c 0
 237.667 -12 170 34.6667 170 128 c 2
 170 414 l 1
 156.667 406.667 141.667 403 125 403 c 0
 97.6667 403 74.3333 412.833 55 432.5 c 0
 35.6667 452.167 26 475.333 26 502 c 256
 26 529.333 35.6667 552.833 55 572.5 c 0
 74.3334 592.167 97.6667 602 125 602 c 256xebe0
 152.333 602 175.667 592.167 195 572.5 c 0
 214.333 552.833 224 529.333 224 502 c 2
 224 132 l 2
 224 68.6667 273.333 37.3333 372 38 c 0
 471.333 38 520.667 69.3333 520 132 c 2
 520 242 l 1
 490 234.665 465.667 231.332 447 232 c 0
 401 232 360.833 244.5 326.5 269.5 c 0
 292.167 294.5 275 325 275 361 c 0
 275 384.334 283 403.667 299 419 c 0
 315 434.333 334 442 356 442 c 0
 379.333 442 399 434.333 415 419 c 0
 431 403.667 439 384.333 439 361 c 0
 439 325.667 421.667 300 387 284 c 1
 399 276.667 419 273.333 447 274 c 0
 474.334 274 498.668 279 520 289 c 1
 520 590 l 1
 575 590 l 1
 575 319 l 1
 599 337 618.333 360 633 388 c 1
 666 360 l 1xd7e0
399 361 m 256
 399 372.335 394.667 382.168 386 390.5 c 0
 377.333 398.833 367.333 403 356 403 c 256xd3e0
 344.667 403 335.167 398.833 327.5 390.5 c 0
 319.833 382.167 316 372.333 316 361 c 256
 316 349.667 320 340 328 332 c 0
 336 324 345.333 320 356 320 c 256
 367.333 320 377.333 324 386 332 c 0
 394.667 340 399 349.667 399 361 c 256
176 502 m 256
 176 516 171 528.167 161 538.5 c 0
 151 548.833 139 554 125 554 c 256
 111 554 99 548.833 89 538.5 c 0
 79 528.167 74 516 74 502 c 256
 74 488 79 476 89 466 c 0
 99 456 111 451 125 451 c 256xebe0
 139 451 151 456 161 466 c 0
 171 476 176 488 176 502 c 256
EndSplineSet
EndChar

StartChar: uni0E2A
Encoding: 3626 3626 255
Width: 573
VWidth: 1504
Flags: W
HStem: -12 48<136.532 213.415> 0 21G<435 489> 137 50<136.447 213.672> 355 53<185.211 299.762> 554 48<165.742 361.254>
VStem: 32 52<445 487.805> 72 54<50.9548 121.53 176 301.63> 226 49<48.3499 124.423> 435 54<0 302.656 347 480.158> 460 54<582.917 642>
LayerCount: 2
Fore
SplineSet
489 0 m 1x7980
 435 0 l 1x7980
 435 245 l 2
 435 280.333 416.333 308.333 379 329 c 0
 347.667 346.333 311.667 355 271 355 c 0
 231 355 196.833 344.167 168.5 322.5 c 0
 140.167 300.833 126 273 126 239 c 2
 126 176 l 1
 140 183.333 156.667 187 176 187 c 0
 204 187 227.5 177.167 246.5 157.5 c 0
 265.5 137.833 275 114.333 275 87 c 256
 275 59.6667 265.5 36.3333 246.5 17 c 0
 227.5 -2.33333 204 -12 176 -12 c 0
 144.667 -12 119.5 -2 100.5 18 c 0
 81.5 38 72 61.6667 72 89 c 2
 72 239 l 2xbb80
 72 289 92 330.333 132 363 c 0
 169.333 393 214 408 266 408 c 2
 275 408 l 1
 320.334 445.333 358.667 481.333 390 516 c 1
 352.667 541.333 312 554 268 554 c 0
 226 554 187.667 544.667 153 526 c 0
 115.667 506 92.6666 479 84 445 c 1
 32 445 l 1
 39.3333 491 66.3333 529.334 113 560 c 0
 157 588 207.667 602 265 602 c 256
 322.333 602 374 587.333 420 558 c 1
 441.333 582 454.667 610 460 642 c 1
 514 642 l 1xbd40
 506.667 602 487.667 562.333 457 523 c 1
 478.333 495.667 489 464.667 489 430 c 2
 489 0 l 1x7980
435 347 m 1
 435 433 l 2
 435 447 430.333 463 421 481 c 1
 393 451 363 424 331 400 c 1
 373 390 407.667 372.333 435 347 c 1
226 86 m 256
 226 100 221 112 211 122 c 0
 201 132 188.667 137 174 137 c 256
 160 137 148.333 132 139 122 c 0
 129.666 112 125 100 125 86 c 256
 125 72 129.667 60.1667 139 50.5 c 0
 148.333 40.8333 160 36 174 36 c 256xb9
 188 36 200.167 40.8333 210.5 50.5 c 0
 220.833 60.1667 226 72 226 86 c 256
EndSplineSet
EndChar

StartChar: uni0E2B
Encoding: 3627 3627 256
Width: 642
VWidth: 1504
Flags: W
HStem: 0 21G<170 231.378 504 558> 394 57<448.47 497.109> 403 48<86.6077 163.687> 554 48<83.8237 166.176 443.146 525.251>
VStem: 26 48<463.396 544.513> 170 54<85.4529 414 466.47 547.698> 385 48<463.581 544.513> 504 54<0 390.584> 535 49<463.472 544.513>
DStem2: 250 149 220 0 0.494491 0.869183<-72.3765 320.381>
LayerCount: 2
Fore
SplineSet
558 0 m 1xbf
 504 0 l 1
 504 325 l 2
 504 371 492 394 468 394 c 0xdf
 452.667 394 434.667 376.333 414 341 c 2
 220 0 l 1
 170 0 l 1
 170 414 l 1
 156.667 406.667 141.667 403 125 403 c 0
 97.6667 403 74.3333 412.833 55 432.5 c 0
 35.6667 452.167 26 475.333 26 502 c 256
 26 529.333 35.6667 552.833 55 572.5 c 0
 74.3334 592.167 97.6667 602 125 602 c 256
 152.333 602 175.667 592.167 195 572.5 c 0
 214.333 552.833 224 529.333 224 502 c 2
 224 176 l 2
 224 166.667 221.667 135.667 217 83 c 1
 229 108.333 240 130.333 250 149 c 2
 372 373 l 2
 386 398.333 402.333 416 421 426 c 1
 397 445.334 385 470.668 385 502 c 0
 385 529.333 394.833 552.833 414.5 572.5 c 0
 434.167 592.167 457.333 602 484 602 c 256
 511.333 602 534.833 592.167 554.5 572.5 c 0
 574.167 552.833 584 529.333 584 502 c 0xbe80
 584 464 567.333 435.667 534 417 c 1
 550 399.667 558 369 558 325 c 2
 558 0 l 1xbf
176 502 m 256
 176 516 171 528.167 161 538.5 c 0
 151 548.833 139 554 125 554 c 256
 111 554 99 548.833 89 538.5 c 0
 79 528.167 74 516 74 502 c 256
 74 488 79 476 89 466 c 0
 99 456 111 451 125 451 c 256xbe
 139 451 151 456 161 466 c 0
 171 476 176 488 176 502 c 256
535 502 m 256xde80
 535 516 530 528.167 520 538.5 c 0
 510 548.833 498 554 484 554 c 256
 470 554 458 548.833 448 538.5 c 0
 438 528.167 433 516 433 502 c 256
 433 488 438 476 448 466 c 0
 458 456 470 451 484 451 c 256
 498 451 510 456 520 466 c 0
 530 476 535 488 535 502 c 256xde80
EndSplineSet
EndChar

StartChar: uni0E2C
Encoding: 3628 3628 257
Width: 682
VWidth: 1504
Flags: W
HStem: 0 21G<170 242.239 521.761 599> 403 48<86.6077 163.687 460.608 541.368> 554 48<83.8237 166.176 458.146 540.812>
VStem: 26 48<463.396 544.513> 170 54<75.5252 414 466.47 547.698> 400 48<463.396 544.513> 545 54<75.4944 414 456.859 547.806> 582 69<600.535 648>
DStem2: 356 349 382 293 0.4557 0.890134<-305.907 -37.9993> 408 349 382 293 0.4557 -0.890134<37.9993 308.585>
LayerCount: 2
Fore
SplineSet
599 0 m 1xfe
 532 0 l 1
 382 293 l 1
 232 0 l 1
 170 0 l 1
 170 414 l 1
 156.667 406.667 141.667 403 125 403 c 0
 97.6667 403 74.3333 412.833 55 432.5 c 0
 35.6667 452.167 26 475.333 26 502 c 256
 26 529.333 35.6667 552.833 55 572.5 c 0
 74.3334 592.167 97.6667 602 125 602 c 256
 152.333 602 175.667 592.167 195 572.5 c 0
 214.333 552.833 224 529.333 224 502 c 2
 224 147 l 2
 224 131 222.667 106.667 220 74 c 1
 226 91.3334 234.333 112.667 245 138 c 1
 356 349 l 1
 408 349 l 1
 519 138 l 2
 522.333 130.667 532 109.333 548 74 c 1
 546 106 545 130.333 545 147 c 2
 545 414 l 1
 531.663 406.667 516.329 403 499 403 c 0
 471.667 403 448.333 412.833 429 432.5 c 0
 409.667 452.167 400 475.333 400 502 c 256
 400 529.333 409.833 552.833 429.5 572.5 c 0
 449.167 592.167 472.333 602 499 602 c 0
 515 602 530.333 598 545 590 c 1xfe
 565 599.333 577.333 618.667 582 648 c 1
 651 648 l 1xfd
 641.667 610.667 619.667 578.667 585 552 c 1
 594.333 534 599 517.333 599 502 c 2
 599 0 l 1xfe
176 502 m 256
 176 516 171 528.167 161 538.5 c 0
 151 548.833 139 554 125 554 c 256
 111 554 99 548.833 89 538.5 c 0
 79 528.167 74 516 74 502 c 256
 74 488 79 476 89 466 c 0
 99 456 111 451 125 451 c 256
 139 451 151 456 161 466 c 0
 171 476 176 488 176 502 c 256
551 502 m 256
 551 516 545.833 528.167 535.5 538.5 c 0
 525.167 548.833 513 554 499 554 c 256
 485 554 473 548.833 463 538.5 c 0
 453 528.167 448 516 448 502 c 256
 448 488 453 476 463 466 c 0
 473 456 485 451 499 451 c 256
 513 451 525.167 456 535.5 466 c 0
 545.833 476 551 488 551 502 c 256
EndSplineSet
Substitution2: "<23,16000>  in Thai lookup 81 nested-substitutions 0 subtable" uni0E2C.alt1
Substitution2: "Single Substitution lookup 62 subtable" uni0E2C.alt1
EndChar

StartChar: uni0E2D
Encoding: 3629 3629 258
Width: 582
VWidth: 1504
Flags: W
HStem: -12 50<195.717 400.687> 214 48<158.547 235.575> 364 48<158.608 235.392> 554 48<172.993 369.717>
VStem: 39 54<445 488.58> 98 54<77.8438 224 277.47 348.53> 248 48<274.608 351.604> 444 54<77.8438 488.503>
LayerCount: 2
Fore
SplineSet
248 313 m 256
 248 327 243 339 233 349 c 0
 223 359 211 364 197 364 c 256
 183 364 171 359 161 349 c 0
 151 339 146 327 146 313 c 256
 146 299 151 287 161 277 c 0
 171 267 183 262 197 262 c 256
 211 262 223 267 233 277 c 0
 243 287 248 299 248 313 c 256
498 128 m 1
 496 34.6667 428.667 -12 296 -12 c 256
 163.333 -12 97.3333 34.6667 98 128 c 2
 98 313 l 2
 98 340.333 107.667 363.667 127 383 c 0
 146.333 402.333 169.667 412 197 412 c 256
 224.333 412 247.667 402.167 267 382.5 c 0
 286.333 362.833 296 339.667 296 313 c 256
 296 285.667 287 262.333 269 243 c 0
 251 223.667 227 214 197 214 c 0
 179.667 214 164.667 217.333 152 224 c 1
 152 140 l 2
 152 72 201 38 299 38 c 0
 395 38 443.333 72 444 140 c 2
 444 420 l 2
 444 462 426.333 495.333 391 520 c 0
 359 542 319.333 553.333 272 554 c 0
 230.667 554 193 544.333 159 525 c 0
 121.667 503.667 99.6666 477 93 445 c 1
 39 445 l 1
 49 492.334 75.3333 530.334 118 559 c 0
 160.667 587.667 213 602 275 602 c 0
 334.333 602 384.667 588 426 560 c 0
 474 528 498 484.333 498 429 c 2
 498 128 l 1
EndSplineSet
EndChar

StartChar: uni0E2E
Encoding: 3630 3630 259
Width: 559
VWidth: 1504
Flags: W
HStem: -12 50<171.461 376.729> 174 49<132.547 213.247> 325 48<132.396 210.508> 403 48<120.205 375.706> 557 46<145.484 350.945>
VStem: 56 54<465.038 527.607> 72 54<77.8438 185 238.47 309.53> 223 48<232.749 312.604> 421 54<78.2343 446.514> 468 57<540.924 603>
LayerCount: 2
Fore
SplineSet
475 134 m 2xf980
 475 36.6667 408.333 -12 275 -12 c 0
 139.667 -12 72 36.6667 72 134 c 2
 72 274 l 2
 72 301.334 81.8333 324.667 101.5 344 c 0
 121.167 363.333 144.333 373 171 373 c 256
 198.333 373 221.833 363.167 241.5 343.5 c 0
 261.167 323.833 271 300.666 271 274 c 256
 271 246.667 262.5 223.167 245.5 203.5 c 0
 228.5 183.833 203.667 174 171 174 c 0
 153.667 174 138.667 177.667 126 185 c 1
 126 140 l 2
 126 72 175.667 38 275 38 c 0
 372.333 38 421 72.3333 421 141 c 2
 421 447 l 1xfb80
 377.667 417.667 311.667 403 223 403 c 0
 111.667 403 56 433 56 493 c 0
 56 531 81 560.333 131 581 c 0
 169 596.333 212 603.667 260 603 c 0
 336 603 396.667 578.333 442 529 c 1
 458 556.333 466.667 581 468 603 c 1
 525 603 l 1xfd40
 517.666 561.667 497.666 522.667 465 486 c 1
 472.337 472 475.67 452 475 426 c 2
 475 134 l 2xf980
411 487 m 1
 399.667 506.333 379.167 522.833 349.5 536.5 c 0
 319.833 550.167 289.666 557 259 557 c 0
 223.667 557 191.333 552 162 542 c 0
 126.667 530 109.333 513.667 110 493 c 0xfd
 110 465 148.667 451 226 451 c 0
 301.333 451 363 463 411 487 c 1
223 274 m 256
 223 288 218 300 208 310 c 0
 198 320 185.667 325 171 325 c 256
 157 325 145 320 135 310 c 0
 125 300 120 288 120 274 c 256
 120 260 125 248 135 238 c 0
 145 228 157 223 171 223 c 256
 185 223 197.167 228 207.5 238 c 0
 217.833 248 223 260 223 274 c 256
EndSplineSet
EndChar

StartChar: uni0E2F
Encoding: 3631 3631 260
Width: 588
VWidth: 1504
Flags: HW
LayerCount: 2
Fore
SplineSet
501 0 m 1
 447 0 l 1
 447 492 l 2
 447 523.333 431.333 540 400 542 c 1
 364.667 444 306.667 394.667 226 394 c 0
 178.667 394 142.667 404.333 118 425 c 128
 93.3333 445.667 81 472.333 81 505 c 0
 81 531 90.5 553.667 109.5 573 c 128
 128.5 592.333 151 602 177 602 c 256
 203 602 225.667 592.5 245 573.5 c 128
 264.333 554.5 274 531.667 274 505 c 0
 274 483 267 463.667 253 447 c 1
 308.334 466.333 342.667 514 356 590 c 1
 411 590 l 2
 471 590 501 558.667 501 496 c 2
 501 0 l 1
221 507 m 256
 221 520.333 216.833 531.167 208.5 539.5 c 128
 200.166 547.833 189.333 552 176 552 c 256
 162.667 552 152 547.667 144 539 c 128
 136 530.333 132 519.667 132 507 c 256
 132 493.667 136 483 144 475 c 128
 152 467 162.667 463 176 463 c 256
 189.333 463 200.167 467 208.5 475 c 128
 216.833 483 221 493.667 221 507 c 256
EndSplineSet
EndChar

StartChar: uni0E30
Encoding: 3632 3632 261
Width: 536
VWidth: 1504
Flags: HW
LayerCount: 2
Fore
SplineSet
456 575 m 1
 454 507 433.333 451 394 407 c 128
 354.667 363 304 341 242 341 c 0
 190.667 341 147.667 350.667 113 370 c 0
 69 393.333 47 428 47 474 c 0
 47 500 56.5 522.5 75.5 541.5 c 128
 94.5 560.5 117 570 143 570 c 256
 169 570 191.5 560.5 210.5 541.5 c 128
 229.5 522.5 239 500 239 474 c 0
 239 440 224.667 413.333 196 394 c 1
 212 390 224.333 388 233 388 c 0
 287 390 328.167 407.833 356.5 441.5 c 128
 384.833 475.167 400 519.667 402 575 c 1
 456 575 l 1
188 474 m 256
 188 488 183.5 499.5 174.5 508.5 c 128
 165.5 517.5 154 522 140 522 c 256
 126 522 114.667 517.5 106 508.5 c 128
 97.3333 499.5 93 488 93 474 c 256
 93 460 97.3333 448.667 106 440 c 128
 114.667 431.333 126 427 140 427 c 256
 154 427 165.5 431.333 174.5 440 c 128
 183.5 448.667 188 460 188 474 c 256
456 256 m 1
 454 188 433.333 132.167 394 88.5 c 128
 354.667 44.8333 304 23 242 23 c 0
 190.667 23 147.667 32.3333 113 51 c 0
 69 74.3333 47 109 47 155 c 0
 47 181 56.5 203.5 75.5 222.5 c 128
 94.5 241.5 117 251 143 251 c 256
 169 251 191.5 241.5 210.5 222.5 c 128
 229.5 203.5 239 181 239 155 c 0
 239 121 224.667 94.3333 196 75 c 1
 212 71 224.333 69 233 69 c 0
 287 71 328.167 88.8334 356.5 122.5 c 128
 384.833 156.167 400 200.667 402 256 c 1
 456 256 l 1
188 155 m 256
 188 169 183.5 180.5 174.5 189.5 c 128
 165.5 198.5 154 203 140 203 c 256
 126 203 114.667 198.5 106 189.5 c 128
 97.3333 180.5 93 169 93 155 c 256
 93 141 97.3333 129.667 106 121 c 128
 114.667 112.333 126 108 140 108 c 256
 154 108 165.5 112.333 174.5 121 c 128
 183.5 129.667 188 141 188 155 c 256
EndSplineSet
EndChar

StartChar: uni0E31
Encoding: 3633 3633 262
Width: 0
VWidth: 1504
Flags: HW
LayerCount: 2
Fore
SplineSet
74 931 m 1
 72.6667 863 50 807.167 6 763.5 c 128
 -38 719.833 -93.6667 698 -161 698 c 0
 -219 698 -265.5 710 -300.5 734 c 128
 -335.5 758 -353 789.667 -353 829 c 0
 -353 855 -343.5 877.5 -324.5 896.5 c 128
 -305.5 915.5 -283 925 -257 925 c 256
 -231 925 -208.5 915.667 -189.5 897 c 128
 -170.5 878.333 -161 856 -161 830 c 0
 -161 796 -176 769 -206 749 c 1
 -192 745.644 -173.333 744.311 -150 745 c 0
 -100.667 746.333 -60.3333 765.667 -29 803 c 1
 -1 838.333 14.3333 881 17 931 c 1
 74 931 l 1
-209 832 m 256
 -209 846 -213.833 857.667 -223.5 867 c 128
 -233.167 876.333 -244.333 881 -257 881 c 256
 -270.333 881 -282 876.333 -292 867 c 128
 -302 857.667 -307 846 -307 832 c 256
 -307 818 -302 806.5 -292 797.5 c 128
 -282 788.5 -270.333 784 -257 784 c 256
 -243.667 784 -232.333 788.5 -223 797.5 c 128
 -213.667 806.5 -209 818 -209 832 c 256
EndSplineSet
Substitution2: "<23,16000>  in Thai lookup 69 nested-substitutions 2 subtable" uni0E31.alt1
Substitution2: "Single Substitution lookup 62 subtable" uni0E31.alt1
EndChar

StartChar: uni0E32
Encoding: 3634 3634 263
Width: 475
VWidth: 1504
Flags: HW
LayerCount: 2
Fore
SplineSet
391 0 m 1
 337 0 l 1
 337 450 l 2
 337 480 325.667 504.833 303 524.5 c 128
 280.333 544.167 249.667 554 211 554 c 0
 175.667 554 147.5 542.167 126.5 518.5 c 128
 105.5 494.833 94 469.333 92 442 c 1
 36 442 l 1
 37.3333 484 54.1667 521.167 86.5 553.5 c 128
 118.833 585.833 160.667 602 212 602 c 0
 270 602 314.333 587.833 345 559.5 c 128
 375.667 531.166 391 494 391 448 c 2
 391 0 l 1
EndSplineSet
Substitution2: "<23,16000>  in Thai lookup 69 nested-substitutions 8 subtable" uni0E45
EndChar

StartChar: uni0E33
Encoding: 3635 3635 264
Width: 475
VWidth: 1504
Flags: HW
LayerCount: 2
Fore
SplineSet
391 0 m 1
 337 0 l 1
 337 450 l 2
 337 480 325.667 504.833 303 524.5 c 128
 280.333 544.167 249.667 554 211 554 c 0
 175.667 554 147.5 542.167 126.5 518.5 c 128
 105.5 494.833 94 469.333 92 442 c 1
 36 442 l 1
 37.3333 484 54.1667 521.167 86.5 553.5 c 128
 118.833 585.833 160.667 602 212 602 c 0
 270 602 314.333 587.833 345 559.5 c 128
 375.667 531.166 391 494 391 448 c 2
 391 0 l 1
-14 809 m 256
 -14 777 -25 750 -47 728 c 128
 -69 706 -96 695 -128 695 c 256
 -160 695 -187.333 706 -210 728 c 128
 -232.667 750 -244 777 -244 809 c 256
 -244 841 -232.667 868.333 -210 891 c 128
 -187.333 913.667 -160 925 -128 925 c 256
 -96 925 -69 913.667 -47 891 c 128
 -25 868.333 -14 841 -14 809 c 256
-63 809 m 256
 -63 827 -69.5 842.5 -82.5 855.5 c 128
 -95.5 868.5 -110.667 875 -128 875 c 0
 -146 875 -161.5 868.5 -174.5 855.5 c 128
 -187.5 842.5 -194 827 -194 809 c 256
 -194 791 -187.5 775.833 -174.5 763.5 c 128
 -161.5 751.167 -146 745 -128 745 c 0
 -110.667 745 -95.5 751.167 -82.5 763.5 c 128
 -69.5 775.833 -63 791 -63 809 c 256
EndSplineSet
Substitution2: "<23,16000>  in Thai lookup 69 nested-substitutions 2 subtable" uni0E33.alt1
Substitution2: "Single Substitution lookup 62 subtable" uni0E33.alt1
EndChar

StartChar: uni0E34
Encoding: 3636 3636 265
Width: 0
VWidth: 1504
Flags: HW
LayerCount: 2
Fore
SplineSet
-75 684 m 1
 -190.333 725.333 -298.667 746 -400 746 c 0
 -436 746 -475.667 743 -519 737 c 1
 -517.667 789 -496 831 -454 863 c 0
 -416 892.333 -370.333 907 -317 907 c 0
 -181.667 907 -101 832.667 -75 684 c 1
-134 742 m 1
 -178 823.333 -238.667 863.667 -316 863 c 0
 -386 863 -433 836.667 -457 784 c 1
 -435.667 787.333 -412.334 788.667 -387 788 c 0
 -290.333 788.664 -206 773.33 -134 742 c 1
EndSplineSet
Substitution2: "<23,16000>  in Thai lookup 69 nested-substitutions 2 subtable" uni0E34.alt1
Substitution2: "Single Substitution lookup 62 subtable" uni0E34.alt1
EndChar

StartChar: uni0E35
Encoding: 3637 3637 266
Width: 0
VWidth: 1504
Flags: HW
LayerCount: 2
Fore
SplineSet
-75 684 m 1
 -190.333 725.333 -298.667 746 -400 746 c 0
 -436 746 -475.667 743 -519 737 c 1
 -517.667 789 -496 831 -454 863 c 0
 -416 892.333 -370.333 907 -317 907 c 0
 -237 907 -176 880.333 -134 827 c 1
 -134 973 l 1
 -84 973 l 1
 -84 725 l 1
 -80 711.667 -77 698 -75 684 c 1
-134 742 m 1
 -178 823.333 -238.667 863.667 -316 863 c 0
 -386 863 -433 836.667 -457 784 c 1
 -435.667 787.333 -412.334 788.667 -387 788 c 0
 -290.333 788.664 -206 773.33 -134 742 c 1
EndSplineSet
Substitution2: "<23,16000>  in Thai lookup 69 nested-substitutions 2 subtable" uni0E35.alt1
Substitution2: "Single Substitution lookup 62 subtable" uni0E35.alt1
EndChar

StartChar: uni0E36
Encoding: 3638 3638 267
Width: 0
VWidth: 1504
Flags: HW
LayerCount: 2
Fore
SplineSet
-75 684 m 1
 -190.333 725.333 -298.667 746 -400 746 c 0
 -436 746 -475.667 743 -519 737 c 1
 -517.667 789 -496 831 -454 863 c 0
 -416 892.333 -370.333 907 -317 907 c 0
 -263 907 -216.333 894 -177 868 c 1
 -180.333 876 -182 884 -182 892 c 0
 -182 912 -174.667 929.333 -160 944 c 128
 -145.333 958.667 -128 966 -108 966 c 256
 -88 966 -70.8333 958.667 -56.5 944 c 128
 -42.1667 929.333 -35 912 -35 892 c 256
 -35 872 -42.1667 854.667 -56.5 840 c 128
 -70.8333 825.333 -88 818 -108 818 c 0
 -113.333 818 -120 819 -128 821 c 1
 -102.667 785.667 -85 740 -75 684 c 1
-134 742 m 1
 -178 823.333 -238.667 863.667 -316 863 c 0
 -386 863 -433 836.667 -457 784 c 1
 -435.667 787.333 -412.334 788.667 -387 788 c 0
 -290.333 788.664 -206 773.33 -134 742 c 1
-69 892 m 256
 -69 903.333 -72.8333 912.667 -80.5 920 c 128
 -88.1666 927.333 -97.3332 931 -108 931 c 256
 -119.333 931 -128.667 927.333 -136 920 c 128
 -143.333 912.66 -147 903.326 -147 892 c 256
 -147 880.66 -143.333 871.327 -136 864 c 128
 -128.667 856.667 -119.333 853 -108 853 c 256
 -96.6668 853 -87.3334 856.667 -80 864 c 128
 -72.6667 871.333 -69 880.667 -69 892 c 256
EndSplineSet
Substitution2: "<23,16000>  in Thai lookup 69 nested-substitutions 2 subtable" uni0E36.alt1
Substitution2: "Single Substitution lookup 62 subtable" uni0E36.alt1
EndChar

StartChar: uni0E37
Encoding: 3639 3639 268
Width: 0
VWidth: 1504
Flags: HW
LayerCount: 2
Fore
SplineSet
-75 684 m 1
 -190.333 725.333 -298.667 746 -400 746 c 0
 -436 746 -475.667 743 -519 737 c 1
 -517.667 789 -496 831 -454 863 c 0
 -416 892.333 -370.333 907 -317 907 c 0
 -293.667 907 -272.667 905 -254 901 c 1
 -254 973 l 1
 -205 973 l 1
 -205 883 l 1
 -177 869.667 -153.333 851 -134 827 c 1
 -134 973 l 1
 -84 973 l 1
 -84 725 l 1
 -80 711.667 -77 698 -75 684 c 1
-134 742 m 1
 -178 823.333 -238.667 863.667 -316 863 c 0
 -386 863 -433 836.667 -457 784 c 1
 -435.667 787.333 -412.334 788.667 -387 788 c 0
 -290.333 788.664 -206 773.33 -134 742 c 1
EndSplineSet
Substitution2: "<23,16000>  in Thai lookup 69 nested-substitutions 2 subtable" uni0E37.alt1
Substitution2: "Single Substitution lookup 62 subtable" uni0E37.alt1
EndChar

StartChar: uni0E38
Encoding: 3640 3640 269
Width: 0
VWidth: 1504
Flags: HW
LayerCount: 2
Fore
SplineSet
-84 -349 m 1
 -137 -349 l 1
 -137 -227 l 1
 -145 -230.333 -154 -232 -164 -232 c 0
 -186 -232 -204.833 -224.167 -220.5 -208.5 c 128
 -236.167 -192.833 -244 -174 -244 -152 c 256
 -244 -130 -236.167 -111.167 -220.5 -95.5 c 128
 -204.833 -79.8333 -186 -72 -164 -72 c 256
 -142 -72 -123.167 -79.8333 -107.5 -95.5 c 128
 -91.8333 -111.167 -84 -130 -84 -152 c 2
 -84 -349 l 1
-125 -150 m 256
 -125 -138.667 -128.666 -129.333 -136 -122 c 128
 -143.333 -114.667 -152.666 -111 -164 -111 c 256
 -175.333 -111 -184.666 -114.833 -192 -122.5 c 128
 -199.333 -130.167 -203 -139.333 -203 -150 c 256
 -203 -161.333 -199.333 -170.833 -192 -178.5 c 128
 -184.667 -186.167 -175.333 -190 -164 -190 c 256
 -152.667 -190 -143.333 -186.167 -136 -178.5 c 128
 -128.667 -170.833 -125 -161.333 -125 -150 c 256
EndSplineSet
Substitution2: "<23,16000>  in Thai lookup 69 nested-substitutions 6 subtable" uni0E38.alt1
Substitution2: "Single Substitution lookup 63 subtable" a
Substitution2: "Single Substitution lookup 62 subtable" uni0E38.alt1
EndChar

StartChar: uni0E39
Encoding: 3641 3641 270
Width: 0
VWidth: 1504
Flags: HW
LayerCount: 2
Fore
SplineSet
-84 -275 m 2
 -84 -337 -120.333 -368.333 -193 -369 c 0
 -261 -369 -295 -338.667 -295 -278 c 2
 -295 -227 l 1
 -303 -230.333 -312 -232 -322 -232 c 0
 -344 -232 -362.833 -224.167 -378.5 -208.5 c 128
 -394.167 -192.833 -402 -174 -402 -152 c 256
 -402 -130 -394.167 -111.167 -378.5 -95.5 c 128
 -362.833 -79.8333 -344 -72 -322 -72 c 256
 -300 -72 -281.167 -79.8333 -265.5 -95.5 c 128
 -249.833 -111.167 -242 -130 -242 -152 c 2
 -242 -287 l 2
 -242 -310.333 -224.667 -322 -190 -322 c 0
 -156 -322 -138.667 -310.333 -138 -287 c 2
 -138 -78 l 1
 -84 -78 l 1
 -84 -275 l 2
-283 -150 m 256
 -283 -138.667 -286.667 -129.333 -294 -122 c 128
 -301.333 -114.667 -310.667 -111 -322 -111 c 256
 -333.333 -111 -342.667 -114.833 -350 -122.5 c 128
 -357.333 -130.167 -361 -139.333 -361 -150 c 256
 -361 -161.333 -357.167 -170.833 -349.5 -178.5 c 128
 -341.833 -186.167 -332.667 -190 -322 -190 c 256
 -310.668 -190 -301.335 -186.167 -294 -178.5 c 128
 -286.667 -170.833 -283 -161.333 -283 -150 c 256
EndSplineSet
Substitution2: "<23,16000>  in Thai lookup 69 nested-substitutions 6 subtable" uni0E39.alt1
Substitution2: "Single Substitution lookup 63 subtable" b
Substitution2: "Single Substitution lookup 62 subtable" uni0E39.alt1
EndChar

StartChar: uni0E3A
Encoding: 3642 3642 271
Width: 0
VWidth: 1504
Flags: HW
LayerCount: 2
Fore
SplineSet
-72 -104 m 256
 -72 -115.333 -75.8333 -124.833 -83.5 -132.5 c 128
 -91.1667 -140.167 -100.333 -144 -111 -144 c 256
 -122.333 -144 -132 -140 -140 -132 c 128
 -148 -124 -152 -114.667 -152 -104 c 256
 -152 -92.6667 -148 -83.3334 -140 -76 c 128
 -132 -68.6667 -122.333 -65 -111 -65 c 256
 -99.6668 -65 -90.3334 -68.6667 -83 -76 c 128
 -75.6667 -83.3333 -72 -92.6667 -72 -104 c 256
EndSplineSet
Substitution2: "<23,16000>  in Thai lookup 69 nested-substitutions 6 subtable" uni0E3A.alt1
Substitution2: "Single Substitution lookup 63 subtable" c
Substitution2: "Single Substitution lookup 62 subtable" uni0E3A.alt1
EndChar

StartChar: uni0E3F
Encoding: 3647 3647 272
Width: 618
VWidth: 1504
Flags: HW
LayerCount: 2
Fore
SplineSet
504 220 m 0
 504 114.667 439.333 54 310 38 c 1
 310 -89 l 1
 260 -89 l 1
 260 33 l 1
 236 33 l 2
 198.667 33 157.667 37.6667 113 47 c 1
 113 663 l 1
 169 676.333 214.667 683 250 683 c 2
 260 683 l 1
 260 787 l 1
 310 787 l 1
 310 680 l 1
 422 664.667 478 611.333 478 520 c 0
 478 452.667 446 405.333 382 378 c 1
 413.333 366.667 440.333 348.333 463 323 c 0
 490.333 293.667 504 259.333 504 220 c 0
450 218 m 0
 450 263.333 431 298 393 322 c 1
 359 342 314.333 352 259 352 c 2
 170 352 l 1
 170 89 l 1
 189.333 83.6667 215.333 81 248 81 c 0
 302 81 347.333 91 384 111 c 0
 428 135 450 170.667 450 218 c 0
423 519 m 0
 423 560.333 404 591 366 611 c 0
 334.667 627 296 635 250 635 c 0
 230 635 203.333 631.333 170 624 c 1
 170 402 l 1
 275 402 l 2
 321 402 357.167 413.167 383.5 435.5 c 128
 409.833 457.834 423 485.668 423 519 c 0
EndSplineSet
EndChar

StartChar: uni0E40
Encoding: 3648 3648 273
Width: 305
VWidth: 1504
Flags: HW
LayerCount: 2
Fore
SplineSet
283 93 m 256
 283 65 273.167 41 253.5 21 c 128
 233.833 1 210 -9 182 -9 c 0
 150.667 -9 125 2 105 24 c 0
 87.6667 43.3333 79.3333 66.3333 80 93 c 2
 80 602 l 1
 134 602 l 1
 134 182 l 1
 148 190 164 194 182 194 c 0
 210 194 233.833 184.167 253.5 164.5 c 128
 273.167 144.833 283 121 283 93 c 256
233 93 m 256
 233 107 228 119 218 129 c 128
 208 139 196 144 182 144 c 256
 168 144 156 139 146 129 c 128
 136 119 131 107 131 93 c 256
 131 79 136 67 146 57 c 128
 156 47 168 42 182 42 c 256
 196 42 208 47 218 57 c 128
 228 67 233 79 233 93 c 256
EndSplineSet
EndChar

StartChar: uni0E41
Encoding: 3649 3649 274
Width: 567
VWidth: 1504
Flags: HW
LayerCount: 2
Fore
SplineSet
283 93 m 256
 283 65 273.167 41 253.5 21 c 128
 233.833 1 210 -9 182 -9 c 0
 150.667 -9 125 2 105 24 c 0
 87.6667 43.3333 79.3333 66.3333 80 93 c 2
 80 602 l 1
 134 602 l 1
 134 182 l 1
 148 190 164 194 182 194 c 0
 210 194 233.833 184.167 253.5 164.5 c 128
 273.167 144.833 283 121 283 93 c 256
233 93 m 256
 233 107 228 119 218 129 c 128
 208 139 196 144 182 144 c 256
 168 144 156 139 146 129 c 128
 136 119 131 107 131 93 c 256
 131 79 136 67 146 57 c 128
 156 47 168 42 182 42 c 256
 196 42 208 47 218 57 c 128
 228 67 233 79 233 93 c 256
543 93 m 256
 543 65 533.167 41 513.5 21 c 128
 493.833 1 470 -9 442 -9 c 0
 410.667 -9 385.333 2 366 24 c 0
 348.667 43.3333 340 66.3333 340 93 c 2
 340 602 l 1
 394 602 l 1
 394 182 l 1
 408 190 424 194 442 194 c 0
 470 194 493.833 184.167 513.5 164.5 c 128
 533.167 144.833 543 121 543 93 c 256
493 93 m 256
 493 107 488 119 478 129 c 128
 468 139 456 144 442 144 c 256
 428 144 416 139 406 129 c 128
 396 119 391 107 391 93 c 256
 391 79 396 67 406 57 c 128
 416 47 428 42 442 42 c 256
 456 42 468 47 478 57 c 128
 488 67 493 79 493 93 c 256
EndSplineSet
EndChar

StartChar: uni0E42
Encoding: 3650 3650 275
Width: 356
VWidth: 1504
Flags: HW
LayerCount: 2
Fore
SplineSet
284 90 m 256
 284 104 278.833 116 268.5 126 c 128
 258.167 136 246 141 232 141 c 0
 218.667 141 207 136 197 126 c 128
 187 116 182 104 182 90 c 256
 182 76 186.833 64 196.5 54 c 128
 206.167 44 218 39 232 39 c 256
 246 39 258.167 44 268.5 54 c 128
 278.833 64 284 76 284 90 c 256
334 90 m 256
 334 62 324 38 304 18 c 128
 284 -2 260 -12 232 -12 c 0
 200 -12 174.333 -1 155 21 c 0
 137.667 40.3333 129 63.3333 129 90 c 2
 129 716 l 2
 129 744 107.5 771 64.5 797 c 128
 21.5 823 -19.6667 836.667 -59 838 c 1
 -53.6667 932 -7.33334 979 80 979 c 0
 96 979 122 971.333 158 956 c 128
 194 940.667 218 933 230 933 c 0
 248 933 259 945.333 263 970 c 1
 308 958 l 1
 294 908 270.667 883 238 883 c 0
 222 883 195.167 891.333 157.5 908 c 128
 119.833 924.667 92.3333 933 75 933 c 0
 31 933 7.66667 914.333 5 877 c 1
 124.333 841.667 184 786 184 710 c 2
 184 179 l 1
 198 187 214 191 232 191 c 0
 260 191 284 181.167 304 161.5 c 128
 324 141.833 334 118 334 90 c 256
EndSplineSet
EndChar

StartChar: uni0E43
Encoding: 3651 3651 276
Width: 364
VWidth: 1504
Flags: HW
LayerCount: 2
Fore
SplineSet
341 90 m 256
 341 62 331 38 311 18 c 128
 291 -2 267.667 -12 241 -12 c 0
 209 -12 182.667 -1 162 21 c 0
 144.666 40.3333 136.333 63.3333 137 90 c 2
 137 705 l 2
 137 722.333 141.333 742 150 764 c 0
 171.333 815.333 182 847 182 859 c 0
 182 884.333 173.5 905 156.5 921 c 128
 139.5 937 118.333 945 93 945 c 0
 55.6667 945 27.3333 933.333 8 910 c 1
 35.3333 914 57.8333 908 75.5 892 c 128
 93.1667 876 102 855 102 829 c 0
 102 805.667 94 786 78 770 c 128
 62 754 43 746 21 746 c 256
 -1 746 -20.5 754 -37.5 770 c 128
 -54.5 786 -63 810 -63 842 c 0
 -63 883.333 -48.5 918 -19.5 946 c 128
 9.5 974 48.6667 988 98 988 c 0
 134 988 166.333 976.833 195 954.5 c 128
 223.667 932.165 238 903.332 238 868 c 0
 238 846.667 230.167 817.5 214.5 780.5 c 128
 198.833 743.5 191 715 191 695 c 2
 191 179 l 1
 205 187 221.667 191 241 191 c 0
 268.333 191 291.833 181.167 311.5 161.5 c 128
 331.167 141.833 341 118 341 90 c 256
292 90 m 256
 292 104 286.667 116 276 126 c 128
 265.333 136 253 141 239 141 c 0
 225.667 141 214.167 136 204.5 126 c 128
 194.833 116 190 104 190 90 c 256
 190 76 194.667 64 204 54 c 128
 213.333 44 225 39 239 39 c 256
 253 39 265.333 44 276 54 c 128
 286.667 64 292 76 292 90 c 256
62 829 m 256
 62 840.333 58.1667 850.167 50.5 858.5 c 128
 42.8333 866.833 32.6667 871 20 871 c 256
 6.66667 871 -3.83333 866.667 -11.5 858 c 128
 -19.1667 849.333 -23 839.667 -23 829 c 256
 -23 817.66 -19.1667 807.827 -11.5 799.5 c 128
 -3.83333 791.167 6.66667 787 20 787 c 256
 33.3333 787 43.6667 791.167 51 799.5 c 128
 58.3333 807.833 62 817.667 62 829 c 256
EndSplineSet
EndChar

StartChar: uni0E44
Encoding: 3652 3652 277
Width: 367
VWidth: 1504
Flags: HW
LayerCount: 2
Fore
SplineSet
344 90 m 256
 344 62 334 38 314 18 c 128
 294 -2 270.667 -12 244 -12 c 0
 212 -12 185.667 -1 165 21 c 0
 147.666 40.3333 139.333 63.3333 140 90 c 2
 140 904 l 1
 32 748 l 1
 -18 766 l 1
 -23.3333 833.333 -35 911.333 -53 1000 c 1
 -6 1000 l 1
 10 912.667 19.6667 847 23 803 c 1
 146 985 l 1
 159.333 983.667 170.667 977.667 180 967 c 128
 189.333 956.333 194 945 194 933 c 2
 194 179 l 1
 208 187 224.667 191 244 191 c 0
 271.333 191 294.833 181.167 314.5 161.5 c 128
 334.167 141.833 344 118 344 90 c 256
293 90 m 256
 293 104 288 116 278 126 c 128
 268 136 256 141 242 141 c 256
 228 141 216 136 206 126 c 128
 196 116 191 104 191 90 c 256
 191 76 196 64 206 54 c 128
 216 44 228 39 242 39 c 256
 256 39 268 44 278 54 c 128
 288 64 293 76 293 90 c 256
EndSplineSet
EndChar

StartChar: uni0E45
Encoding: 3653 3653 278
Width: 308
VWidth: 1504
Flags: HW
LayerCount: 2
Fore
SplineSet
224 -301 m 1
 170 -301 l 1
 170 450 l 2
 170 480 158.667 504.833 136 524.5 c 128
 113.333 544.167 82.6667 554 44 554 c 0
 8.66667 554 -19.5 542.167 -40.5 518.5 c 128
 -61.5 494.833 -73 469.333 -75 442 c 1
 -131 442 l 1
 -129.667 484 -112.833 521.167 -80.5 553.5 c 128
 -48.1667 585.833 -6.33333 602 45 602 c 0
 103 602 147.333 587.833 178 559.5 c 128
 208.667 531.166 224 494 224 448 c 2
 224 -301 l 1
EndSplineSet
EndChar

StartChar: uni0E46
Encoding: 3654 3654 279
Width: 600
VWidth: 1504
Flags: HW
LayerCount: 2
Fore
SplineSet
502 -256 m 1
 447 -256 l 1
 447 451 l 2
 447 502.333 424 542 378 570 c 1
 307 516 l 1
 224 572 l 1
 182 554 158 516.667 152 460 c 1
 167.333 470 183 475 199 475 c 0
 225 475 247 466 265 448 c 128
 283 430 292 408 292 382 c 256
 292 356 283 334.167 265 316.5 c 128
 247 298.833 225 290 199 290 c 0
 167.667 290 142.167 301.667 122.5 325 c 128
 102.833 348.333 92.6666 383 92 429 c 0
 88.6667 528.333 134.667 592.333 230 621 c 1
 304 572 l 1
 373 621 l 1
 459 587.667 502 531 502 451 c 2
 502 -256 l 1
244 382 m 256
 244 395.334 239.667 406.167 231 414.5 c 128
 222.333 422.833 211.667 427 199 427 c 256
 185.667 427 175 422.833 167 414.5 c 128
 159 406.167 155 395.333 155 382 c 256
 155 368.667 159 358 167 350 c 128
 175 342 185.667 338 199 338 c 256
 212.333 338 223.167 342 231.5 350 c 128
 239.833 358 244 368.667 244 382 c 256
EndSplineSet
EndChar

StartChar: uni0E47
Encoding: 3655 3655 280
Width: 0
VWidth: 1504
Flags: HW
LayerCount: 2
Fore
SplineSet
-81 769 m 0
 -81 747 -88.8333 728.833 -104.5 714.5 c 128
 -120.167 700.167 -138 693 -158 693 c 0
 -200 693 -248 714.667 -302 758 c 1
 -329.333 748.667 -355 726.667 -379 692 c 1
 -419 717.333 -439 756.333 -439 809 c 0
 -439 887 -396.333 926.333 -311 927 c 2
 -212 927 l 2
 -162.667 927 -136.667 963 -134 1035 c 1
 -83 1035 l 1
 -83 991.667 -94 955.5 -116 926.5 c 128
 -138 897.5 -170.667 883 -214 883 c 2
 -317 883 l 2
 -365 883 -389.333 860 -390 814 c 0
 -390 792 -384.333 772.333 -373 755 c 1
 -347.667 783 -322 799 -296 803 c 1
 -278.667 787.667 -254.333 769.667 -223 749 c 1
 -224.33 757 -224.663 763.667 -224 769 c 0
 -224 789 -217.333 805.667 -204 819 c 128
 -190.667 832.333 -173.667 839 -153 839 c 256
 -133 839 -116 832.167 -102 818.5 c 128
 -88 804.833 -81 788.333 -81 769 c 0
-120 769 m 256
 -120 778.333 -123.333 786.167 -130 792.5 c 128
 -136.667 798.833 -144.333 802 -153 802 c 256
 -162.333 802 -170.333 798.667 -177 792 c 128
 -183.667 785.333 -187 777.667 -187 769 c 256
 -187 759.661 -183.667 751.828 -177 745.5 c 128
 -170.333 739.167 -162.333 736 -153 736 c 256
 -143.667 736 -135.833 739.167 -129.5 745.5 c 128
 -123.167 751.833 -120 759.667 -120 769 c 256
EndSplineSet
Substitution2: "<23,16000>  in Thai lookup 69 nested-substitutions 2 subtable" uni0E47.alt1
Substitution2: "Single Substitution lookup 62 subtable" uni0E47.alt1
EndChar

StartChar: uni0E48
Encoding: 3656 3656 281
Width: 0
VWidth: 1504
Flags: HW
LayerCount: 2
Fore
SplineSet
-84 1023 m 1
 -134 1023 l 1
 -134 1190 l 1
 -84 1190 l 1
 -84 1023 l 1
EndSplineSet
Substitution2: "<23,16000>  in Thai lookup 69 nested-substitutions 5 subtable" uni0E48.alt3
Substitution2: "<23,16000>  in Thai lookup 69 nested-substitutions 3 subtable" uni0E48.alt1
Substitution2: "<23,16000>  in Thai lookup 69 nested-substitutions 2 subtable" uni0E48.alt3
Substitution2: "<23,16000>  in Thai lookup 69 nested-substitutions 0 subtable" uni0E48.alt2
Substitution2: "Single Substitution lookup 62 subtable" uni0E48.alt2
EndChar

StartChar: uni0E49
Encoding: 3657 3657 282
Width: 0
VWidth: 1504
Flags: HW
LayerCount: 2
Fore
SplineSet
63 1242 m 1
 49 1156 12 1095.33 -48 1060 c 0
 -96 1032 -162.667 1018 -248 1018 c 2
 -275 1018 l 1
 -275 1047 l 1
 -241.667 1061 -218.333 1080.67 -205 1106 c 1
 -225 1106 -242.5 1113.17 -257.5 1127.5 c 128
 -272.5 1141.84 -280 1159.68 -280 1181 c 256
 -280 1202.33 -272.5 1220.5 -257.5 1235.5 c 128
 -242.5 1250.5 -224.333 1258 -203 1258 c 0
 -183 1258 -166 1250.83 -152 1236.5 c 128
 -138 1222.17 -130 1203.67 -128 1181 c 1
 -128 1131 -150.667 1089.67 -196 1057 c 1
 -76.6667 1067 -8.66667 1128.67 8 1242 c 1
 63 1242 l 1
-170 1181 m 256
 -170 1191 -173.333 1199.5 -180 1206.5 c 128
 -186.667 1213.5 -195 1217 -205 1217 c 256
 -215 1217 -223.5 1213.5 -230.5 1206.5 c 128
 -237.5 1199.5 -241 1191 -241 1181 c 256
 -241 1171 -237.5 1162.67 -230.5 1156 c 128
 -223.5 1149.33 -215 1146 -205 1146 c 256
 -195 1146 -186.667 1149.33 -180 1156 c 128
 -173.333 1162.67 -170 1171 -170 1181 c 256
EndSplineSet
Substitution2: "<23,16000>  in Thai lookup 69 nested-substitutions 5 subtable" uni0E49.alt3
Substitution2: "<23,16000>  in Thai lookup 69 nested-substitutions 3 subtable" uni0E49.alt1
Substitution2: "<23,16000>  in Thai lookup 69 nested-substitutions 2 subtable" uni0E49.alt3
Substitution2: "<23,16000>  in Thai lookup 69 nested-substitutions 0 subtable" uni0E49.alt2
Substitution2: "Single Substitution lookup 62 subtable" uni0E49.alt2
EndChar

StartChar: uni0E4A
Encoding: 3658 3658 283
Width: 0
VWidth: 1504
Flags: HW
LayerCount: 2
Fore
SplineSet
-221 1091 m 256
 -221 1101 -224.333 1109.5 -231 1116.5 c 128
 -237.667 1123.5 -246 1127 -256 1127 c 256
 -266 1127 -274.5 1123.5 -281.5 1116.5 c 128
 -288.5 1109.5 -292 1101 -292 1091 c 256
 -292 1081 -288.5 1072.67 -281.5 1066 c 128
 -274.5 1059.33 -266 1056 -256 1056 c 256
 -246 1056 -237.667 1059.33 -231 1066 c 128
 -224.333 1072.67 -221 1081 -221 1091 c 256
65 1239 m 1
 61.6667 1089.67 -10.6667 1015 -152 1015 c 1
 -152 1048 l 1
 -112 1068 -92 1100.33 -92 1145 c 0
 -92 1179 -108.333 1201 -141 1211 c 1
 -184 1164 l 1
 -226 1211 l 1
 -236 1209.67 -248 1204 -262 1194 c 0
 -273.333 1186 -280.667 1175.67 -284 1163 c 1
 -278.668 1165 -273.834 1166.5 -269.5 1167.5 c 128
 -265.167 1168.5 -260.667 1169 -256 1169 c 0
 -234.667 1169 -216.833 1161.5 -202.5 1146.5 c 128
 -188.167 1131.5 -181 1113.33 -181 1092 c 256
 -181 1070.67 -188.167 1052.83 -202.5 1038.5 c 128
 -216.833 1024.17 -234.666 1017 -256 1017 c 0
 -282 1017 -302 1025.5 -316 1042.5 c 128
 -330 1059.5 -337 1082.67 -337 1112 c 0
 -337 1149.34 -325.167 1182.17 -301.5 1210.5 c 128
 -277.833 1238.83 -250 1253 -218 1253 c 1
 -182 1208 l 1
 -149 1253 l 1
 -119 1251.67 -95.1667 1241.33 -77.5 1222 c 128
 -59.8333 1202.67 -51 1178 -51 1148 c 0
 -51 1112 -62 1082.33 -84 1059 c 1
 -60.6667 1061 -39.6667 1075.67 -21 1103 c 0
 4.33333 1137 17 1182.33 17 1239 c 1
 65 1239 l 1
EndSplineSet
Substitution2: "<23,16000>  in Thai lookup 69 nested-substitutions 5 subtable" uni0E4A.alt3
Substitution2: "<23,16000>  in Thai lookup 69 nested-substitutions 3 subtable" uni0E4A.alt1
Substitution2: "<23,16000>  in Thai lookup 69 nested-substitutions 2 subtable" uni0E4A.alt3
Substitution2: "<23,16000>  in Thai lookup 69 nested-substitutions 0 subtable" uni0E4A.alt2
Substitution2: "Single Substitution lookup 62 subtable" uni0E4A.alt2
EndChar

StartChar: uni0E4B
Encoding: 3659 3659 284
Width: 0
VWidth: 1504
Flags: HW
LayerCount: 2
Fore
SplineSet
-6 1082 m 1
 -86 1082 l 1
 -86 1023 l 1
 -132 1023 l 1
 -132 1082 l 1
 -212 1082 l 1
 -212 1124 l 1
 -132 1124 l 1
 -132 1188 l 1
 -86 1188 l 1
 -86 1124 l 1
 -6 1124 l 1
 -6 1082 l 1
EndSplineSet
Substitution2: "<23,16000>  in Thai lookup 69 nested-substitutions 5 subtable" uni0E4B.alt3
Substitution2: "<23,16000>  in Thai lookup 69 nested-substitutions 3 subtable" uni0E4B.alt1
Substitution2: "<23,16000>  in Thai lookup 69 nested-substitutions 2 subtable" uni0E4B.alt3
Substitution2: "<23,16000>  in Thai lookup 69 nested-substitutions 0 subtable" uni0E4B.alt2
Substitution2: "Single Substitution lookup 62 subtable" uni0E4B.alt2
EndChar

